SplineFontDB: 3.2
FontName: ChakmaUnicode
FullName: Chakma Unicode
FamilyName: Chakma Unicode
Weight: Regular
Copyright: Copyright (c) 2025 by https://www.youtube.com/@bivuti99, https://www.youtube.com/@chakma9 and https://www.facebook.com/EenJuro/\nAuthor: Bivuti Chakma \nChakma font designer & Keyboard Layout creator.\nFont Updated: 12 August 2025.\nE-mail: bsereye@hotmail.com\nContact: +8801786529401
UComments: "2025-8-12: Created with FontForge (http://fontforge.org).+AAoA-This font is full Unicode Compatible to use Worldwide. "
Version: 1.00; 12 Aug 2025
ItalicAngle: 0
UnderlinePosition: -214
UnderlineWidth: 72
Ascent: 1638
Descent: 410
InvalidEm: 0
sfntRevision: 0x000133d7
LayerCount: 2
Layer: 0 1 "Back" 1
Layer: 1 1 "Fore" 0
XUID: [1021 723 -993739412 16333]
StyleMap: 0x0040
FSType: 8
OS2Version: 1
OS2_WeightWidthSlopeOnly: 1
OS2_UseTypoMetrics: 0
CreationTime: 1754975392
ModificationTime: 1756363856
PfmFamily: 17
TTFWeight: 400
TTFWidth: 5
LineGap: 0
VLineGap: 0
Panose: 2 11 5 2 4 2 4 2 2 3
OS2TypoAscent: 1491
OS2TypoAOffset: 0
OS2TypoDescent: -431
OS2TypoDOffset: 0
OS2TypoLinegap: 269
OS2WinAscent: 2210
OS2WinAOffset: 0
OS2WinDescent: 514
OS2WinDOffset: 0
HheadAscent: 2210
HheadAOffset: 0
HheadDescent: -514
HheadDOffset: 0
OS2SubXSize: 1434
OS2SubYSize: 1331
OS2SubXOff: 0
OS2SubYOff: 283
OS2SupXSize: 1434
OS2SupYSize: 1331
OS2SupXOff: 0
OS2SupYOff: 977
OS2StrikeYSize: 102
OS2StrikeYPos: 530
OS2CapHeight: 1434
OS2XHeight: 1024
OS2FamilyClass: 2053
OS2Vendor: 'Bivu'
OS2CodePages: 00000000.00000000
OS2UnicodeRanges: 00000001.02000000.00000000.00000000
Lookup: 2 0 0 "'ccmp' Glyph Composition/Decomposition in Chakma lookup 0" { "'ccmp' Glyph Composition/Decomposition in Chakma lookup 0-1"  } ['ccmp' ('cakm' <'dflt' > ) ]
Lookup: 4 0 0 "'pstf' Post Base Forms in Chakma lookup 1" { "'pstf' Post Base Forms in Chakma lookup 1-1"  } ['pstf' ('cakm' <'dflt' > ) ]

StartChar: A
Encoding: 34 65 2
Width: 1321
GlyphClass: 2
Flags: W
LayerCount: 2
Fore
SplineSet
1298 0 m 1,0,-1
 1112 0 l 1,1,-1
 960 402 l 1,2,-1
 352 402 l 1,3,-1
 209 0 l 1,4,-1
 22 0 l 1,5,-1
 572 1434 l 1,6,-1
 746 1434 l 1,7,-1
 1298 0 l 1,0,-1
905 553 m 1,8,-1
 680 1164 l 2,9,10
 669 1194 669 1194 658 1260 c 1,11,-1
 654 1260 l 1,12,13
 644 1199 644 1199 631 1164 c 2,14,-1
 408 553 l 1,15,-1
 905 553 l 1,8,-1
EndSplineSet
Validated: 1
EndChar

StartChar: B
Encoding: 35 66 3
Width: 1174
GlyphClass: 2
Flags: W
LayerCount: 2
Fore
SplineSet
188 0 m 1,0,-1
 188 1434 l 1,1,-1
 596 1434 l 2,2,3
 782 1434 782 1434 891 1343 c 128,-1,4
 1000 1252 1000 1252 1000 1106 c 0,5,6
 1000 984 1000 984 934 894 c 128,-1,7
 868 804 868 804 752 766 c 1,8,-1
 752 762 l 1,9,10
 897 745 897 745 984 652.5 c 128,-1,11
 1071 560 1071 560 1071 412 c 0,12,13
 1071 228 1071 228 939 114 c 128,-1,14
 807 0 807 0 606 0 c 2,15,-1
 188 0 l 1,0,-1
356 1282 m 1,16,-1
 356 819 l 1,17,-1
 528 819 l 2,18,19
 666 819 666 819 745 885.5 c 128,-1,20
 824 952 824 952 824 1073 c 0,21,22
 824 1282 824 1282 549 1282 c 2,23,-1
 356 1282 l 1,16,-1
356 668 m 1,24,-1
 356 152 l 1,25,-1
 584 152 l 2,26,27
 732 152 732 152 813.5 222 c 128,-1,28
 895 292 895 292 895 414 c 0,29,30
 895 668 895 668 549 668 c 2,31,-1
 356 668 l 1,24,-1
EndSplineSet
Validated: 1
EndChar

StartChar: C
Encoding: 36 67 4
Width: 1268
GlyphClass: 2
Flags: W
LayerCount: 2
Fore
SplineSet
1164 60 m 1,0,1
 1005 -24 1005 -24 768 -24 c 0,2,3
 462 -24 462 -24 278 173 c 128,-1,4
 94 370 94 370 94 690 c 0,5,6
 94 1034 94 1034 301 1246 c 128,-1,7
 508 1458 508 1458 826 1458 c 0,8,9
 1030 1458 1030 1458 1164 1399 c 1,10,-1
 1164 1220 l 1,11,12
 1010 1306 1010 1306 824 1306 c 0,13,14
 577 1306 577 1306 423.5 1141 c 128,-1,15
 270 976 270 976 270 700 c 0,16,17
 270 438 270 438 413.5 282.5 c 128,-1,18
 557 127 557 127 790 127 c 0,19,20
 1006 127 1006 127 1164 223 c 1,21,-1
 1164 60 l 1,0,1
EndSplineSet
Validated: 1
EndChar

StartChar: D
Encoding: 37 68 5
Width: 1436
GlyphClass: 2
Flags: W
LayerCount: 2
Fore
SplineSet
188 0 m 1,0,-1
 188 1434 l 1,1,-1
 584 1434 l 2,2,3
 1342 1434 1342 1434 1342 735 c 0,4,5
 1342 403 1342 403 1131.5 201.5 c 128,-1,6
 921 0 921 0 568 0 c 2,7,-1
 188 0 l 1,0,-1
356 1282 m 1,8,-1
 356 152 l 1,9,-1
 570 152 l 2,10,11
 852 152 852 152 1009 303 c 128,-1,12
 1166 454 1166 454 1166 731 c 0,13,14
 1166 1282 1166 1282 580 1282 c 2,15,-1
 356 1282 l 1,8,-1
EndSplineSet
Validated: 1
EndChar

StartChar: E
Encoding: 38 69 6
Width: 1036
GlyphClass: 2
Flags: W
LayerCount: 2
Fore
SplineSet
948 0 m 1,0,-1
 188 0 l 1,1,-1
 188 1434 l 1,2,-1
 916 1434 l 1,3,-1
 916 1282 l 1,4,-1
 356 1282 l 1,5,-1
 356 805 l 1,6,-1
 874 805 l 1,7,-1
 874 654 l 1,8,-1
 356 654 l 1,9,-1
 356 152 l 1,10,-1
 948 152 l 1,11,-1
 948 0 l 1,0,-1
EndSplineSet
Validated: 1
EndChar

StartChar: F
Encoding: 39 70 7
Width: 1000
GlyphClass: 2
Flags: W
LayerCount: 2
Fore
SplineSet
916 1282 m 1,0,-1
 356 1282 l 1,1,-1
 356 786 l 1,2,-1
 874 786 l 1,3,-1
 874 635 l 1,4,-1
 356 635 l 1,5,-1
 356 0 l 1,6,-1
 188 0 l 1,7,-1
 188 1434 l 1,8,-1
 916 1434 l 1,9,-1
 916 1282 l 1,0,-1
EndSplineSet
Validated: 1
EndChar

StartChar: G
Encoding: 40 71 8
Width: 1405
GlyphClass: 2
Flags: W
LayerCount: 2
Fore
SplineSet
1260 98 m 1,0,1
 1044 -24 1044 -24 780 -24 c 0,2,3
 473 -24 473 -24 283.5 174 c 128,-1,4
 94 372 94 372 94 698 c 0,5,6
 94 1031 94 1031 304.5 1244.5 c 128,-1,7
 515 1458 515 1458 838 1458 c 0,8,9
 1072 1458 1072 1458 1231 1382 c 1,10,-1
 1231 1196 l 1,11,12
 1057 1306 1057 1306 819 1306 c 0,13,14
 578 1306 578 1306 424 1140 c 128,-1,15
 270 974 270 974 270 710 c 0,16,17
 270 438 270 438 413 282.5 c 128,-1,18
 556 127 556 127 801 127 c 0,19,20
 969 127 969 127 1092 194 c 1,21,-1
 1092 596 l 1,22,-1
 778 596 l 1,23,-1
 778 748 l 1,24,-1
 1260 748 l 1,25,-1
 1260 98 l 1,0,1
EndSplineSet
Validated: 1
EndChar

StartChar: H
Encoding: 41 72 9
Width: 1454
GlyphClass: 2
Flags: W
LayerCount: 2
Fore
SplineSet
1266 0 m 1,0,-1
 1098 0 l 1,1,-1
 1098 654 l 1,2,-1
 356 654 l 1,3,-1
 356 0 l 1,4,-1
 188 0 l 1,5,-1
 188 1434 l 1,6,-1
 356 1434 l 1,7,-1
 356 805 l 1,8,-1
 1098 805 l 1,9,-1
 1098 1434 l 1,10,-1
 1266 1434 l 1,11,-1
 1266 0 l 1,0,-1
EndSplineSet
Validated: 1
EndChar

StartChar: I
Encoding: 42 73 10
Width: 545
GlyphClass: 2
Flags: W
LayerCount: 2
Fore
SplineSet
356 0 m 1,0,-1
 188 0 l 1,1,-1
 188 1434 l 1,2,-1
 356 1434 l 1,3,-1
 356 0 l 1,0,-1
EndSplineSet
Validated: 1
EndChar

StartChar: J
Encoding: 43 74 11
Width: 731
GlyphClass: 2
Flags: W
LayerCount: 2
Fore
SplineSet
555 514 m 2,0,1
 555 259 555 259 447 117.5 c 128,-1,2
 339 -24 339 -24 158 -24 c 0,3,4
 74 -24 74 -24 20 0 c 1,5,-1
 20 166 l 1,6,7
 74 127 74 127 160 127 c 0,8,9
 387 127 387 127 387 512 c 2,10,-1
 387 1434 l 1,11,-1
 555 1434 l 1,12,-1
 555 514 l 2,0,1
EndSplineSet
Validated: 1
EndChar

StartChar: K
Encoding: 44 75 12
Width: 1188
GlyphClass: 2
Flags: W
LayerCount: 2
Fore
SplineSet
1186 0 m 1,0,-1
 952 0 l 1,1,-1
 398 656 l 2,2,3
 367 693 367 693 360 706 c 1,4,-1
 356 706 l 1,5,-1
 356 0 l 1,6,-1
 188 0 l 1,7,-1
 188 1434 l 1,8,-1
 356 1434 l 1,9,-1
 356 760 l 1,10,-1
 360 760 l 1,11,12
 374 782 374 782 398 809 c 2,13,-1
 934 1434 l 1,14,-1
 1143 1434 l 1,15,-1
 528 746 l 1,16,-1
 1186 0 l 1,0,-1
EndSplineSet
Validated: 1
EndChar

StartChar: L
Encoding: 45 76 13
Width: 964
GlyphClass: 2
Flags: W
LayerCount: 2
Fore
SplineSet
932 0 m 1,0,-1
 188 0 l 1,1,-1
 188 1434 l 1,2,-1
 356 1434 l 1,3,-1
 356 152 l 1,4,-1
 932 152 l 1,5,-1
 932 0 l 1,0,-1
EndSplineSet
Validated: 1
EndChar

StartChar: M
Encoding: 46 77 14
Width: 1839
GlyphClass: 2
Flags: W
LayerCount: 2
Fore
SplineSet
1650 0 m 1,0,-1
 1483 0 l 1,1,-1
 1483 962 l 2,2,3
 1483 1076 1483 1076 1497 1241 c 1,4,-1
 1493 1241 l 1,5,6
 1469 1144 1469 1144 1450 1102 c 2,7,-1
 960 0 l 1,8,-1
 878 0 l 1,9,-1
 389 1094 l 2,10,11
 368 1142 368 1142 346 1241 c 1,12,-1
 342 1241 l 1,13,14
 350 1155 350 1155 350 960 c 2,15,-1
 350 0 l 1,16,-1
 188 0 l 1,17,-1
 188 1434 l 1,18,-1
 410 1434 l 1,19,-1
 850 434 l 2,20,21
 901 319 901 319 916 262 c 1,22,-1
 922 262 l 1,23,24
 965 380 965 380 991 438 c 2,25,-1
 1440 1434 l 1,26,-1
 1650 1434 l 1,27,-1
 1650 0 l 1,0,-1
EndSplineSet
Validated: 1
EndChar

StartChar: N
Encoding: 47 78 15
Width: 1532
GlyphClass: 2
Flags: W
LayerCount: 2
Fore
SplineSet
1344 0 m 1,0,-1
 1138 0 l 1,1,-1
 400 1143 l 2,2,3
 372 1186 372 1186 354 1233 c 1,4,-1
 348 1233 l 1,5,6
 356 1187 356 1187 356 1036 c 2,7,-1
 356 0 l 1,8,-1
 188 0 l 1,9,-1
 188 1434 l 1,10,-1
 406 1434 l 1,11,-1
 1124 309 l 2,12,13
 1169 239 1169 239 1182 213 c 1,14,-1
 1186 213 l 1,15,16
 1176 275 1176 275 1176 424 c 2,17,-1
 1176 1434 l 1,18,-1
 1344 1434 l 1,19,-1
 1344 0 l 1,0,-1
EndSplineSet
Validated: 1
EndChar

StartChar: O
Encoding: 48 79 16
Width: 1544
GlyphClass: 2
Flags: W
LayerCount: 2
Fore
SplineSet
766 -24 m 0,0,1
 461 -24 461 -24 277.5 177 c 128,-1,2
 94 378 94 378 94 700 c 0,3,4
 94 1046 94 1046 281 1252 c 128,-1,5
 468 1458 468 1458 790 1458 c 0,6,7
 1087 1458 1087 1458 1268.5 1258 c 128,-1,8
 1450 1058 1450 1058 1450 735 c 0,9,10
 1450 384 1450 384 1264 180 c 128,-1,11
 1078 -24 1078 -24 766 -24 c 0,0,1
778 1306 m 0,12,13
 552 1306 552 1306 411 1143 c 128,-1,14
 270 980 270 980 270 715 c 256,15,16
 270 450 270 450 407.5 288.5 c 128,-1,17
 545 127 545 127 766 127 c 0,18,19
 1002 127 1002 127 1138 281 c 128,-1,20
 1274 435 1274 435 1274 712 c 0,21,22
 1274 996 1274 996 1142 1151 c 128,-1,23
 1010 1306 1010 1306 778 1306 c 0,12,13
EndSplineSet
Validated: 1
EndChar

StartChar: P
Encoding: 49 80 17
Width: 1147
GlyphClass: 2
Flags: W
LayerCount: 2
Fore
SplineSet
356 542 m 1,0,-1
 356 0 l 1,1,-1
 188 0 l 1,2,-1
 188 1434 l 1,3,-1
 582 1434 l 2,4,5
 812 1434 812 1434 938.5 1322 c 128,-1,6
 1065 1210 1065 1210 1065 1006 c 256,7,8
 1065 802 1065 802 924.5 672 c 128,-1,9
 784 542 784 542 545 542 c 2,10,-1
 356 542 l 1,0,-1
356 1282 m 1,11,-1
 356 694 l 1,12,-1
 532 694 l 2,13,14
 706 694 706 694 797.5 773.5 c 128,-1,15
 889 853 889 853 889 998 c 0,16,17
 889 1282 889 1282 553 1282 c 2,18,-1
 356 1282 l 1,11,-1
EndSplineSet
Validated: 1
EndChar

StartChar: Q
Encoding: 50 81 18
Width: 1544
GlyphClass: 2
Flags: W
LayerCount: 2
Fore
SplineSet
766 -24 m 0,0,1
 462 -24 462 -24 277 177 c 0,2,3
 94 378 94 378 94 700 c 0,4,5
 94 1047 94 1047 281 1252 c 0,6,7
 469 1458 469 1458 790 1458 c 0,8,9
 1086 1458 1086 1458 1268 1258 c 256,10,11
 1450 1058 1450 1058 1450 735 c 0,12,13
 1450 384 1450 384 1264 180 c 0,14,15
 1220 131 1220 131 1170 96 c 1,16,-1
 1573 -193 l 1,17,-1
 1268 -193 l 1,18,-1
 998 9 l 1,19,20
 892 -24 892 -24 766 -24 c 0,0,1
778 1306 m 0,21,22
 552 1306 552 1306 411 1143 c 256,23,24
 270 980 270 980 270 715 c 0,25,26
 270 451 270 451 407 288 c 0,27,28
 545 127 545 127 766 127 c 0,29,30
 1002 127 1002 127 1138 281 c 256,31,32
 1274 435 1274 435 1274 712 c 0,33,34
 1274 997 1274 997 1142 1151 c 0,35,36
 1010 1306 1010 1306 778 1306 c 0,21,22
EndSplineSet
Validated: 1
EndChar

StartChar: R
Encoding: 51 82 19
Width: 1225
GlyphClass: 2
Flags: W
LayerCount: 2
Fore
SplineSet
1216 0 m 1,0,-1
 1016 0 l 1,1,-1
 776 402 l 2,2,3
 743 458 743 458 712 497.5 c 128,-1,4
 681 537 681 537 648.5 562 c 128,-1,5
 616 587 616 587 578.5 598.5 c 128,-1,6
 541 610 541 610 494 610 c 2,7,-1
 356 610 l 1,8,-1
 356 0 l 1,9,-1
 188 0 l 1,10,-1
 188 1434 l 1,11,-1
 616 1434 l 2,12,13
 710 1434 710 1434 789.5 1410.5 c 128,-1,14
 869 1387 869 1387 927.5 1339 c 128,-1,15
 986 1291 986 1291 1019 1219.5 c 128,-1,16
 1052 1148 1052 1148 1052 1052 c 0,17,18
 1052 977 1052 977 1029.5 914.5 c 128,-1,19
 1007 852 1007 852 965.5 803 c 128,-1,20
 924 754 924 754 865.5 719.5 c 128,-1,21
 807 685 807 685 734 666 c 1,22,-1
 734 662 l 1,23,24
 770 646 770 646 796.5 625.5 c 128,-1,25
 823 605 823 605 847 577 c 128,-1,26
 871 549 871 549 894.5 513.5 c 128,-1,27
 918 478 918 478 947 431 c 2,28,-1
 1216 0 l 1,0,-1
356 1282 m 1,29,-1
 356 762 l 1,30,-1
 584 762 l 2,31,32
 647 762 647 762 700.5 781 c 128,-1,33
 754 800 754 800 793 835.5 c 128,-1,34
 832 871 832 871 854 922.5 c 128,-1,35
 876 974 876 974 876 1038 c 0,36,37
 876 1153 876 1153 801.5 1217.5 c 128,-1,38
 727 1282 727 1282 586 1282 c 2,39,-1
 356 1282 l 1,29,-1
EndSplineSet
Validated: 1
EndChar

StartChar: S
Encoding: 52 83 20
Width: 1088
GlyphClass: 2
Flags: W
LayerCount: 2
Fore
SplineSet
121 58 m 1,0,-1
 121 256 l 1,1,2
 155 226 155 226 202.5 202 c 128,-1,3
 250 178 250 178 302.5 161.5 c 128,-1,4
 355 145 355 145 408 136 c 128,-1,5
 461 127 461 127 506 127 c 0,6,7
 661 127 661 127 737.5 184.5 c 128,-1,8
 814 242 814 242 814 350 c 0,9,10
 814 408 814 408 788.5 451 c 128,-1,11
 763 494 763 494 718 529.5 c 128,-1,12
 673 565 673 565 611.5 597.5 c 128,-1,13
 550 630 550 630 479 666 c 0,14,15
 404 704 404 704 339 743 c 128,-1,16
 274 782 274 782 226 829 c 128,-1,17
 178 876 178 876 150.5 935.5 c 128,-1,18
 123 995 123 995 123 1075 c 0,19,20
 123 1173 123 1173 166 1245.5 c 128,-1,21
 209 1318 209 1318 279 1365 c 128,-1,22
 349 1412 349 1412 438.5 1435 c 128,-1,23
 528 1458 528 1458 621 1458 c 0,24,25
 833 1458 833 1458 930 1407 c 1,26,-1
 930 1218 l 1,27,28
 803 1306 803 1306 604 1306 c 0,29,30
 549 1306 549 1306 494 1294.5 c 128,-1,31
 439 1283 439 1283 396 1257 c 128,-1,32
 353 1231 353 1231 326 1190 c 128,-1,33
 299 1149 299 1149 299 1090 c 0,34,35
 299 1035 299 1035 319.5 995 c 128,-1,36
 340 955 340 955 380 922 c 128,-1,37
 420 889 420 889 477.5 858 c 128,-1,38
 535 827 535 827 610 790 c 0,39,40
 687 752 687 752 756 710 c 128,-1,41
 825 668 825 668 877 617 c 128,-1,42
 929 566 929 566 959.5 504 c 128,-1,43
 990 442 990 442 990 362 c 0,44,45
 990 256 990 256 948.5 182.5 c 128,-1,46
 907 109 907 109 836.5 63 c 128,-1,47
 766 17 766 17 674 -3.5 c 128,-1,48
 582 -24 582 -24 480 -24 c 0,49,50
 446 -24 446 -24 396 -18.5 c 128,-1,51
 346 -13 346 -13 294 -2.5 c 128,-1,52
 242 8 242 8 195.5 23.5 c 128,-1,53
 149 39 149 39 121 58 c 1,0,-1
EndSplineSet
Validated: 1
EndChar

StartChar: T
Encoding: 53 84 21
Width: 1073
GlyphClass: 2
Flags: W
LayerCount: 2
Fore
SplineSet
1036 1282 m 1,0,-1
 622 1282 l 1,1,-1
 622 0 l 1,2,-1
 454 0 l 1,3,-1
 454 1282 l 1,4,-1
 41 1282 l 1,5,-1
 41 1434 l 1,6,-1
 1036 1434 l 1,7,-1
 1036 1282 l 1,0,-1
EndSplineSet
Validated: 1
EndChar

StartChar: U
Encoding: 54 85 22
Width: 1407
GlyphClass: 2
Flags: W
LayerCount: 2
Fore
SplineSet
1237 580 m 2,0,1
 1237 -24 1237 -24 692 -24 c 0,2,3
 170 -24 170 -24 170 557 c 2,4,-1
 170 1434 l 1,5,-1
 338 1434 l 1,6,-1
 338 568 l 2,7,8
 338 127 338 127 710 127 c 0,9,10
 1069 127 1069 127 1069 553 c 2,11,-1
 1069 1434 l 1,12,-1
 1237 1434 l 1,13,-1
 1237 580 l 2,0,1
EndSplineSet
Validated: 1
EndChar

StartChar: V
Encoding: 55 86 23
Width: 1272
GlyphClass: 2
Flags: W
LayerCount: 2
Fore
SplineSet
1254 1434 m 1,0,-1
 723 0 l 1,1,-1
 538 0 l 1,2,-1
 18 1434 l 1,3,-1
 205 1434 l 1,4,-1
 602 297 l 2,5,6
 621 242 621 242 631 170 c 1,7,-1
 635 170 l 1,8,9
 643 230 643 230 668 299 c 2,10,-1
 1073 1434 l 1,11,-1
 1254 1434 l 1,0,-1
EndSplineSet
Validated: 1
EndChar

StartChar: W
Encoding: 56 87 24
Width: 1913
GlyphClass: 2
Flags: W
LayerCount: 2
Fore
SplineSet
1888 1434 m 1,0,-1
 1483 0 l 1,1,-1
 1286 0 l 1,2,-1
 991 1048 l 2,3,4
 972 1115 972 1115 968 1194 c 1,5,-1
 964 1194 l 1,6,7
 958 1120 958 1120 938 1050 c 2,8,-1
 641 0 l 1,9,-1
 446 0 l 1,10,-1
 26 1434 l 1,11,-1
 211 1434 l 1,12,-1
 516 334 l 2,13,14
 535 265 535 265 540 190 c 1,15,-1
 545 190 l 1,16,17
 550 243 550 243 576 334 c 2,18,-1
 893 1434 l 1,19,-1
 1054 1434 l 1,20,-1
 1358 326 l 2,21,22
 1374 269 1374 269 1382 192 c 1,23,-1
 1386 192 l 1,24,25
 1390 244 1390 244 1413 330 c 2,26,-1
 1706 1434 l 1,27,-1
 1888 1434 l 1,0,-1
EndSplineSet
Validated: 1
EndChar

StartChar: X
Encoding: 57 88 25
Width: 1208
GlyphClass: 2
Flags: W
LayerCount: 2
Fore
SplineSet
1178 0 m 1,0,-1
 973 0 l 1,1,-1
 643 549 l 2,2,3
 628 574 628 574 610 620 c 1,4,-1
 606 620 l 1,5,6
 596 597 596 597 572 549 c 1,7,-1
 232 0 l 1,8,-1
 26 0 l 1,9,-1
 506 721 l 1,10,-1
 64 1434 l 1,11,-1
 270 1434 l 1,12,-1
 563 930 l 2,13,14
 592 880 592 880 614 830 c 1,15,-1
 618 830 l 1,16,17
 650 896 650 896 674 934 c 2,18,-1
 979 1434 l 1,19,-1
 1172 1434 l 1,20,-1
 721 723 l 1,21,-1
 1178 0 l 1,0,-1
EndSplineSet
Validated: 1
EndChar

StartChar: Y
Encoding: 58 89 26
Width: 1132
GlyphClass: 2
Flags: W
LayerCount: 2
Fore
SplineSet
1120 1434 m 1,0,-1
 647 530 l 1,1,-1
 647 0 l 1,2,-1
 479 0 l 1,3,-1
 479 526 l 1,4,-1
 18 1434 l 1,5,-1
 209 1434 l 1,6,-1
 530 786 l 2,7,8
 536 774 536 774 565 698 c 1,9,-1
 568 698 l 1,10,11
 578 732 578 732 606 786 c 2,12,-1
 942 1434 l 1,13,-1
 1120 1434 l 1,0,-1
EndSplineSet
Validated: 1
EndChar

StartChar: Z
Encoding: 59 90 27
Width: 1168
GlyphClass: 2
Flags: W
LayerCount: 2
Fore
SplineSet
1124 1394 m 1,0,-1
 284 152 l 1,1,-1
 1104 152 l 1,2,-1
 1104 0 l 1,3,-1
 33 0 l 1,4,-1
 33 47 l 1,5,-1
 866 1282 l 1,6,-1
 100 1282 l 1,7,-1
 100 1434 l 1,8,-1
 1124 1434 l 1,9,-1
 1124 1394 l 1,0,-1
EndSplineSet
Validated: 1
EndChar

StartChar: zero
Encoding: 17 48 28
Width: 1104
GlyphClass: 2
Flags: W
LayerCount: 2
Fore
SplineSet
1020 723 m 0,0,1
 1020 543 1020 543 987.5 404 c 128,-1,2
 955 265 955 265 893.5 169.5 c 128,-1,3
 832 74 832 74 742.5 24.5 c 128,-1,4
 653 -25 653 -25 539 -25 c 0,5,6
 431 -25 431 -25 346.5 22.5 c 128,-1,7
 262 70 262 70 204 161 c 128,-1,8
 146 252 146 252 116 384.5 c 128,-1,9
 86 517 86 517 86 688 c 0,10,11
 86 876 86 876 117.5 1020 c 128,-1,12
 149 1164 149 1164 210 1261.5 c 128,-1,13
 271 1359 271 1359 361.5 1408.5 c 128,-1,14
 452 1458 452 1458 569 1458 c 0,15,16
 1020 1458 1020 1458 1020 723 c 0,0,1
852 707 m 0,17,18
 852 1319 852 1319 561 1319 c 0,19,20
 254 1319 254 1319 254 696 c 0,21,22
 254 115 254 115 555 115 c 0,23,24
 852 115 852 115 852 707 c 0,17,18
EndSplineSet
Validated: 1
EndChar

StartChar: one
Encoding: 18 49 29
Width: 1104
GlyphClass: 2
Flags: W
LayerCount: 2
Fore
SplineSet
724 0 m 1,0,-1
 560 0 l 1,1,-1
 560 1239 l 1,2,3
 541 1220 541 1220 504.5 1195.5 c 128,-1,4
 468 1171 468 1171 422.5 1147 c 128,-1,5
 377 1123 377 1123 326.5 1102 c 128,-1,6
 276 1081 276 1081 228 1069 c 1,7,-1
 228 1235 l 1,8,9
 282 1250 282 1250 342.5 1275.5 c 128,-1,10
 403 1301 403 1301 461.5 1332.5 c 128,-1,11
 520 1364 520 1364 572 1398.5 c 128,-1,12
 624 1433 624 1433 662 1466 c 1,13,-1
 724 1466 l 1,14,-1
 724 0 l 1,0,-1
EndSplineSet
Validated: 1
EndChar

StartChar: two
Encoding: 19 50 30
Width: 1104
GlyphClass: 2
Flags: W
LayerCount: 2
Fore
SplineSet
772 1058 m 0,0,1
 772 1124 772 1124 751.5 1173 c 128,-1,2
 731 1222 731 1222 695.5 1254.5 c 128,-1,3
 660 1287 660 1287 612 1303 c 128,-1,4
 564 1319 564 1319 508 1319 c 0,5,6
 460 1319 460 1319 414 1306 c 128,-1,7
 368 1293 368 1293 324.5 1270 c 128,-1,8
 281 1247 281 1247 240.5 1215 c 128,-1,9
 200 1183 200 1183 165 1144 c 1,10,-1
 165 1320 l 1,11,12
 234 1387 234 1387 319.5 1422.5 c 128,-1,13
 405 1458 405 1458 528 1458 c 0,14,15
 616 1458 616 1458 691 1432.5 c 128,-1,16
 766 1407 766 1407 821 1358 c 128,-1,17
 876 1309 876 1309 907.5 1237 c 128,-1,18
 939 1165 939 1165 939 1072 c 0,19,20
 939 987 939 987 919.5 918 c 128,-1,21
 900 849 900 849 860.5 788 c 128,-1,22
 821 727 821 727 761 671 c 128,-1,23
 701 615 701 615 620 557 c 0,24,25
 519 485 519 485 453.5 434 c 128,-1,26
 388 383 388 383 349.5 338.5 c 128,-1,27
 311 294 311 294 295.5 249.5 c 128,-1,28
 280 205 280 205 280 147 c 1,29,-1
 994 147 l 1,30,-1
 994 0 l 1,31,-1
 109 0 l 1,32,-1
 109 71 l 2,33,34
 109 163 109 163 129 233 c 128,-1,35
 149 303 149 303 195 366 c 128,-1,36
 241 429 241 429 315.5 492 c 128,-1,37
 390 555 390 555 498 634 c 0,38,39
 576 690 576 690 628.5 741 c 128,-1,40
 681 792 681 792 713 843 c 128,-1,41
 745 894 745 894 758.5 946.5 c 128,-1,42
 772 999 772 999 772 1058 c 0,0,1
EndSplineSet
Validated: 1
EndChar

StartChar: three
Encoding: 20 51 31
Width: 1104
GlyphClass: 2
Flags: W
LayerCount: 2
Fore
SplineSet
953 406 m 0,0,1
 953 309 953 309 916.5 229.5 c 128,-1,2
 880 150 880 150 813.5 93.5 c 128,-1,3
 747 37 747 37 654 6 c 128,-1,4
 561 -25 561 -25 449 -25 c 0,5,6
 244 -25 244 -25 123 53 c 1,7,-1
 123 229 l 1,8,9
 268 115 268 115 455 115 c 0,10,11
 530 115 530 115 590.5 134 c 128,-1,12
 651 153 651 153 694.5 189 c 128,-1,13
 738 225 738 225 761.5 276 c 128,-1,14
 785 327 785 327 785 391 c 0,15,16
 785 672 785 672 385 672 c 2,17,-1
 266 672 l 1,18,-1
 266 811 l 1,19,-1
 379 811 l 2,20,21
 733 811 733 811 733 1075 c 0,22,23
 733 1319 733 1319 463 1319 c 0,24,25
 311 1319 311 1319 178 1217 c 1,26,-1
 178 1376 l 1,27,28
 315 1458 315 1458 504 1458 c 0,29,30
 594 1458 594 1458 667 1433 c 128,-1,31
 740 1408 740 1408 792 1363 c 128,-1,32
 844 1318 844 1318 872.5 1255 c 128,-1,33
 901 1192 901 1192 901 1116 c 0,34,35
 901 833 901 833 615 752 c 1,36,-1
 615 748 l 1,37,38
 688 740 688 740 750 712.5 c 128,-1,39
 812 685 812 685 857 641 c 128,-1,40
 902 597 902 597 927.5 537.5 c 128,-1,41
 953 478 953 478 953 406 c 0,0,1
EndSplineSet
Validated: 1
EndChar

StartChar: four
Encoding: 21 52 32
Width: 1104
GlyphClass: 2
Flags: W
LayerCount: 2
Fore
SplineSet
850 1434 m 1,0,-1
 850 487 l 1,1,-1
 1034 487 l 1,2,-1
 1034 337 l 1,3,-1
 850 337 l 1,4,-1
 850 0 l 1,5,-1
 688 0 l 1,6,-1
 688 337 l 1,7,-1
 14 337 l 1,8,-1
 14 479 l 1,9,10
 108 585 108 585 204 705.5 c 128,-1,11
 300 826 300 826 387.5 950 c 128,-1,12
 475 1074 475 1074 549.5 1197.5 c 128,-1,13
 624 1321 624 1321 675 1434 c 1,14,-1
 850 1434 l 1,0,-1
199 487 m 1,15,-1
 688 487 l 1,16,-1
 688 1189 l 1,17,18
 613 1058 613 1058 546 955 c 128,-1,19
 479 852 479 852 418.5 768 c 128,-1,20
 358 684 358 684 303 616 c 128,-1,21
 248 548 248 548 199 487 c 1,15,-1
EndSplineSet
Validated: 1
EndChar

StartChar: five
Encoding: 22 53 33
Width: 1104
GlyphClass: 2
Flags: W
LayerCount: 2
Fore
SplineSet
969 438 m 0,0,1
 969 333 969 333 933 248 c 128,-1,2
 897 163 897 163 830.5 102 c 128,-1,3
 764 41 764 41 670 8 c 128,-1,4
 576 -25 576 -25 461 -25 c 0,5,6
 261 -25 261 -25 164 35 c 1,7,-1
 164 209 l 1,8,9
 310 115 310 115 463 115 c 0,10,11
 541 115 541 115 603.5 138 c 128,-1,12
 666 161 666 161 710 202 c 128,-1,13
 754 243 754 243 777.5 301 c 128,-1,14
 801 359 801 359 801 428 c 0,15,16
 801 568 801 568 707 647.5 c 128,-1,17
 613 727 613 727 434 727 c 0,18,19
 405 727 405 727 373 726 c 128,-1,20
 341 725 341 725 309 723.5 c 128,-1,21
 277 722 277 722 246.5 720 c 128,-1,22
 216 718 216 718 191 715 c 1,23,-1
 240 1434 l 1,24,-1
 903 1434 l 1,25,-1
 903 1286 l 1,26,-1
 382 1286 l 1,27,-1
 353 865 l 1,28,29
 385 867 385 867 421 868.5 c 128,-1,30
 457 870 457 870 485 870 c 0,31,32
 599 870 599 870 689 840 c 128,-1,33
 779 810 779 810 841.5 754.5 c 128,-1,34
 904 699 904 699 936.5 618.5 c 128,-1,35
 969 538 969 538 969 438 c 0,0,1
EndSplineSet
Validated: 1
EndChar

StartChar: six
Encoding: 23 54 34
Width: 1104
GlyphClass: 2
Flags: W
LayerCount: 2
Fore
SplineSet
1022 455 m 0,0,1
 1022 350 1022 350 988 262 c 128,-1,2
 954 174 954 174 894 110 c 128,-1,3
 834 46 834 46 751 10.5 c 128,-1,4
 668 -25 668 -25 571 -25 c 0,5,6
 463 -25 463 -25 377.5 20 c 128,-1,7
 292 65 292 65 232.5 149.5 c 128,-1,8
 173 234 173 234 142 356 c 128,-1,9
 111 478 111 478 111 631 c 0,10,11
 111 818 111 818 152.5 970.5 c 128,-1,12
 194 1123 194 1123 270.5 1231.5 c 128,-1,13
 347 1340 347 1340 455 1399 c 128,-1,14
 563 1458 563 1458 696 1458 c 0,15,16
 844 1458 844 1458 934 1417 c 1,17,-1
 934 1262 l 1,18,19
 823 1319 823 1319 700 1319 c 0,20,21
 604 1319 604 1319 527 1276 c 128,-1,22
 450 1233 450 1233 395 1154.5 c 128,-1,23
 340 1076 340 1076 310.5 965 c 128,-1,24
 281 854 281 854 281 718 c 1,25,-1
 285 718 l 1,26,27
 384 897 384 897 612 897 c 0,28,29
 706 897 706 897 781.5 865 c 128,-1,30
 857 833 857 833 910.5 774.5 c 128,-1,31
 964 716 964 716 993 635 c 128,-1,32
 1022 554 1022 554 1022 455 c 0,0,1
854 434 m 0,33,34
 854 509 854 509 835 569 c 128,-1,35
 816 629 816 629 780.5 671 c 128,-1,36
 745 713 745 713 693 735.5 c 128,-1,37
 641 758 641 758 575 758 c 0,38,39
 514 758 514 758 462 735 c 128,-1,40
 410 712 410 712 372 672.5 c 128,-1,41
 334 633 334 633 312.5 580.5 c 128,-1,42
 291 528 291 528 291 469 c 0,43,44
 291 395 291 395 312 330.5 c 128,-1,45
 333 266 333 266 371 218 c 128,-1,46
 409 170 409 170 461.5 142.5 c 128,-1,47
 514 115 514 115 578 115 c 0,48,49
 640 115 640 115 691 138.5 c 128,-1,50
 742 162 742 162 778 204 c 128,-1,51
 814 246 814 246 834 304.5 c 128,-1,52
 854 363 854 363 854 434 c 0,33,34
EndSplineSet
Validated: 1
EndChar

StartChar: seven
Encoding: 24 55 35
Width: 1104
GlyphClass: 2
Flags: W
LayerCount: 2
Fore
SplineSet
1010 1339 m 1,0,1
 977 1282 977 1282 930.5 1197 c 128,-1,2
 884 1112 884 1112 832 1006 c 128,-1,3
 780 900 780 900 726 778 c 128,-1,4
 672 656 672 656 625 526 c 128,-1,5
 578 396 578 396 542.5 262.5 c 128,-1,6
 507 129 507 129 491 0 c 1,7,-1
 315 0 l 1,8,9
 333 128 333 128 370.5 261.5 c 128,-1,10
 408 395 408 395 455.5 523.5 c 128,-1,11
 503 652 503 652 556 771 c 128,-1,12
 609 890 609 890 659 990 c 128,-1,13
 709 1090 709 1090 750.5 1166.5 c 128,-1,14
 792 1243 792 1243 817 1286 c 1,15,-1
 98 1286 l 1,16,-1
 98 1434 l 1,17,-1
 1010 1434 l 1,18,-1
 1010 1339 l 1,0,1
EndSplineSet
Validated: 1
EndChar

StartChar: eight
Encoding: 25 56 36
Width: 1104
GlyphClass: 2
Flags: W
LayerCount: 2
Fore
SplineSet
90 400 m 0,0,1
 90 457 90 457 108 514.5 c 128,-1,2
 126 572 126 572 159.5 622 c 128,-1,3
 193 672 193 672 242.5 713 c 128,-1,4
 292 754 292 754 355 778 c 1,5,6
 262 830 262 830 207 911.5 c 128,-1,7
 152 993 152 993 152 1092 c 0,8,9
 152 1171 152 1171 182.5 1238 c 128,-1,10
 213 1305 213 1305 267 1354 c 128,-1,11
 321 1403 321 1403 395 1430.5 c 128,-1,12
 469 1458 469 1458 555 1458 c 0,13,14
 642 1458 642 1458 716 1430 c 128,-1,15
 790 1402 790 1402 844 1353 c 128,-1,16
 898 1304 898 1304 928 1237 c 128,-1,17
 958 1170 958 1170 958 1092 c 0,18,19
 958 993 958 993 903 911.5 c 128,-1,20
 848 830 848 830 757 778 c 1,21,22
 819 754 819 754 868 713 c 128,-1,23
 917 672 917 672 950.5 622 c 128,-1,24
 984 572 984 572 1002 514.5 c 128,-1,25
 1020 457 1020 457 1020 400 c 0,26,27
 1020 306 1020 306 986 228 c 128,-1,28
 952 150 952 150 890.5 94.5 c 128,-1,29
 829 39 829 39 743.5 8 c 128,-1,30
 658 -23 658 -23 555 -23 c 0,31,32
 453 -23 453 -23 368 8 c 128,-1,33
 283 39 283 39 221 94.5 c 128,-1,34
 159 150 159 150 124.5 228 c 128,-1,35
 90 306 90 306 90 400 c 0,0,1
268 414 m 0,36,37
 268 347 268 347 288.5 293 c 128,-1,38
 309 239 309 239 346.5 201 c 128,-1,39
 384 163 384 163 437.5 142.5 c 128,-1,40
 491 122 491 122 556 122 c 0,41,42
 619 122 619 122 672 143 c 128,-1,43
 725 164 725 164 763.5 202 c 128,-1,44
 802 240 802 240 823.5 294 c 128,-1,45
 845 348 845 348 845 414 c 0,46,47
 845 474 845 474 824.5 526.5 c 128,-1,48
 804 579 804 579 766 619 c 128,-1,49
 728 659 728 659 675 682 c 128,-1,50
 622 705 622 705 556 705 c 0,51,52
 494 705 494 705 441.5 683.5 c 128,-1,53
 389 662 389 662 350.5 623.5 c 128,-1,54
 312 585 312 585 290 531.5 c 128,-1,55
 268 478 268 478 268 414 c 0,36,37
319 1079 m 0,56,57
 319 1028 319 1028 337.5 984.5 c 128,-1,58
 356 941 356 941 388.5 908.5 c 128,-1,59
 421 876 421 876 464 857.5 c 128,-1,60
 507 839 507 839 556 839 c 256,61,62
 605 839 605 839 648.5 858 c 128,-1,63
 692 877 692 877 724 909.5 c 128,-1,64
 756 942 756 942 775 985.5 c 128,-1,65
 794 1029 794 1029 794 1079 c 0,66,67
 794 1131 794 1131 775.5 1175 c 128,-1,68
 757 1219 757 1219 725 1251 c 128,-1,69
 693 1283 693 1283 649.5 1301.5 c 128,-1,70
 606 1320 606 1320 556 1320 c 0,71,72
 503 1320 503 1320 459.5 1301 c 128,-1,73
 416 1282 416 1282 384.5 1249.5 c 128,-1,74
 353 1217 353 1217 336 1173 c 128,-1,75
 319 1129 319 1129 319 1079 c 0,56,57
EndSplineSet
Validated: 1
EndChar

StartChar: nine
Encoding: 26 57 37
Width: 1104
GlyphClass: 2
Flags: W
LayerCount: 2
Fore
SplineSet
1004 803 m 0,0,1
 1004 606 1004 606 965 452.5 c 128,-1,2
 926 299 926 299 851 192.5 c 128,-1,3
 776 86 776 86 668 30.5 c 128,-1,4
 560 -25 560 -25 422 -25 c 0,5,6
 280 -25 280 -25 172 25 c 1,7,-1
 172 182 l 1,8,9
 291 115 291 115 426 115 c 0,10,11
 523 115 523 115 599.5 155 c 128,-1,12
 676 195 676 195 729 271.5 c 128,-1,13
 782 348 782 348 810 460 c 128,-1,14
 838 572 838 572 838 717 c 1,15,-1
 834 717 l 1,16,17
 742 532 742 532 514 532 c 0,18,19
 422 532 422 532 345 564.5 c 128,-1,20
 268 597 268 597 212 656.5 c 128,-1,21
 156 716 156 716 125 798 c 128,-1,22
 94 880 94 880 94 979 c 0,23,24
 94 1085 94 1085 128.5 1173 c 128,-1,25
 163 1261 163 1261 224.5 1324.5 c 128,-1,26
 286 1388 286 1388 370.5 1423 c 128,-1,27
 455 1458 455 1458 555 1458 c 0,28,29
 663 1458 663 1458 746.5 1414.5 c 128,-1,30
 830 1371 830 1371 887 1287.5 c 128,-1,31
 944 1204 944 1204 974 1082 c 128,-1,32
 1004 960 1004 960 1004 803 c 0,0,1
827 950 m 0,33,34
 827 1033 827 1033 805.5 1101 c 128,-1,35
 784 1169 784 1169 746 1217.5 c 128,-1,36
 708 1266 708 1266 655.5 1292.5 c 128,-1,37
 603 1319 603 1319 541 1319 c 0,38,39
 482 1319 482 1319 431 1295.5 c 128,-1,40
 380 1272 380 1272 342.5 1229.5 c 128,-1,41
 305 1187 305 1187 283.5 1128.5 c 128,-1,42
 262 1070 262 1070 262 1001 c 0,43,44
 262 925 262 925 282.5 865 c 128,-1,45
 303 805 303 805 341 763.5 c 128,-1,46
 379 722 379 722 432.5 700 c 128,-1,47
 486 678 486 678 551 678 c 0,48,49
 608 678 608 678 658.5 699.5 c 128,-1,50
 709 721 709 721 746.5 757.5 c 128,-1,51
 784 794 784 794 805.5 843.5 c 128,-1,52
 827 893 827 893 827 950 c 0,33,34
EndSplineSet
Validated: 1
EndChar

StartChar: a
Encoding: 66 97 38
Width: 1042
GlyphClass: 2
Flags: W
LayerCount: 2
Fore
SplineSet
899 0 m 1,0,-1
 735 0 l 1,1,-1
 735 160 l 1,2,-1
 731 160 l 1,3,4
 624 -24 624 -24 416 -24 c 0,5,6
 263 -24 263 -24 176.5 57 c 128,-1,7
 90 138 90 138 90 272 c 0,8,9
 90 559 90 559 428 606 c 2,10,-1
 735 649 l 1,11,12
 735 910 735 910 524 910 c 0,13,14
 339 910 339 910 190 784 c 1,15,-1
 190 952 l 1,16,17
 341 1048 341 1048 538 1048 c 0,18,19
 899 1048 899 1048 899 666 c 2,20,-1
 899 0 l 1,0,-1
735 518 m 1,21,-1
 488 484 l 2,22,23
 374 468 374 468 316 427.5 c 128,-1,24
 258 387 258 387 258 284 c 0,25,26
 258 209 258 209 311.5 161.5 c 128,-1,27
 365 114 365 114 454 114 c 0,28,29
 576 114 576 114 655.5 199.5 c 128,-1,30
 735 285 735 285 735 416 c 2,31,-1
 735 518 l 1,21,-1
EndSplineSet
Validated: 1
EndChar

StartChar: b
Encoding: 67 98 39
Width: 1204
GlyphClass: 2
Flags: W
LayerCount: 2
Fore
SplineSet
334 148 m 1,0,-1
 330 148 l 1,1,-1
 330 0 l 1,2,-1
 166 0 l 1,3,-1
 166 1516 l 1,4,-1
 330 1516 l 1,5,-1
 330 844 l 1,6,-1
 334 844 l 1,7,8
 455 1048 455 1048 688 1048 c 0,9,10
 885 1048 885 1048 996.5 910.5 c 128,-1,11
 1108 773 1108 773 1108 542 c 0,12,13
 1108 285 1108 285 983 130.5 c 128,-1,14
 858 -24 858 -24 641 -24 c 0,15,16
 438 -24 438 -24 334 148 c 1,0,-1
330 561 m 2,17,-1
 330 418 l 2,18,19
 330 291 330 291 412.5 202.5 c 128,-1,20
 495 114 495 114 622 114 c 0,21,22
 771 114 771 114 855.5 228 c 128,-1,23
 940 342 940 342 940 545 c 0,24,25
 940 716 940 716 861 813 c 128,-1,26
 782 910 782 910 647 910 c 0,27,28
 504 910 504 910 417 810.5 c 128,-1,29
 330 711 330 711 330 561 c 2,17,-1
EndSplineSet
Validated: 1
EndChar

StartChar: c
Encoding: 68 99 40
Width: 946
GlyphClass: 2
Flags: W
LayerCount: 2
Fore
SplineSet
864 47 m 1,0,1
 746 -24 746 -24 584 -24 c 0,2,3
 365 -24 365 -24 230.5 118.5 c 128,-1,4
 96 261 96 261 96 488 c 0,5,6
 96 741 96 741 241 894.5 c 128,-1,7
 386 1048 386 1048 628 1048 c 0,8,9
 763 1048 763 1048 866 998 c 1,10,-1
 866 830 l 1,11,12
 752 910 752 910 622 910 c 0,13,14
 465 910 465 910 364.5 797.5 c 128,-1,15
 264 685 264 685 264 502 c 0,16,17
 264 322 264 322 358.5 218 c 128,-1,18
 453 114 453 114 612 114 c 0,19,20
 746 114 746 114 864 203 c 1,21,-1
 864 47 l 1,0,1
EndSplineSet
Validated: 1
EndChar

StartChar: d
Encoding: 69 100 41
Width: 1206
GlyphClass: 2
Flags: W
LayerCount: 2
Fore
SplineSet
1040 0 m 1,0,-1
 876 0 l 1,1,-1
 876 174 l 1,2,-1
 872 174 l 1,3,4
 758 -24 758 -24 520 -24 c 0,5,6
 327 -24 327 -24 211.5 113.5 c 128,-1,7
 96 251 96 251 96 488 c 0,8,9
 96 742 96 742 224 895 c 128,-1,10
 352 1048 352 1048 565 1048 c 0,11,12
 776 1048 776 1048 872 882 c 1,13,-1
 876 882 l 1,14,-1
 876 1516 l 1,15,-1
 1040 1516 l 1,16,-1
 1040 0 l 1,0,-1
876 463 m 2,17,-1
 876 614 l 2,18,19
 876 738 876 738 794 824 c 128,-1,20
 712 910 712 910 586 910 c 0,21,22
 436 910 436 910 350 800 c 128,-1,23
 264 690 264 690 264 496 c 0,24,25
 264 319 264 319 346.5 216.5 c 128,-1,26
 429 114 429 114 568 114 c 0,27,28
 705 114 705 114 790.5 213 c 128,-1,29
 876 312 876 312 876 463 c 2,17,-1
EndSplineSet
Validated: 1
EndChar

StartChar: e
Encoding: 70 101 42
Width: 1071
GlyphClass: 2
Flags: W
LayerCount: 2
Fore
SplineSet
989 471 m 1,0,-1
 266 471 l 1,1,2
 270 300 270 300 358 207 c 128,-1,3
 446 114 446 114 600 114 c 0,4,5
 773 114 773 114 918 228 c 1,6,-1
 918 74 l 1,7,8
 783 -24 783 -24 561 -24 c 0,9,10
 344 -24 344 -24 220 115.5 c 128,-1,11
 96 255 96 255 96 508 c 0,12,13
 96 747 96 747 231.5 897.5 c 128,-1,14
 367 1048 367 1048 568 1048 c 256,15,16
 769 1048 769 1048 879 918 c 128,-1,17
 989 788 989 788 989 557 c 2,18,-1
 989 471 l 1,0,-1
821 610 m 1,19,20
 820 752 820 752 752.5 831 c 128,-1,21
 685 910 685 910 565 910 c 0,22,23
 449 910 449 910 368 827 c 128,-1,24
 287 744 287 744 268 610 c 1,25,-1
 821 610 l 1,19,20
EndSplineSet
Validated: 1
EndChar

StartChar: f
Encoding: 71 102 43
Width: 641
GlyphClass: 2
Flags: W
LayerCount: 2
Fore
SplineSet
672 1372 m 1,0,1
 624 1399 624 1399 563 1399 c 0,2,3
 391 1399 391 1399 391 1182 c 2,4,-1
 391 1024 l 1,5,-1
 631 1024 l 1,6,-1
 631 884 l 1,7,-1
 391 884 l 1,8,-1
 391 0 l 1,9,-1
 228 0 l 1,10,-1
 228 884 l 1,11,-1
 53 884 l 1,12,-1
 53 1024 l 1,13,-1
 228 1024 l 1,14,-1
 228 1190 l 2,15,16
 228 1351 228 1351 321 1444.5 c 128,-1,17
 414 1538 414 1538 553 1538 c 0,18,19
 628 1538 628 1538 672 1520 c 1,20,-1
 672 1372 l 1,0,1
EndSplineSet
Validated: 1
EndChar

StartChar: g
Encoding: 72 103 44
Width: 1206
GlyphClass: 2
Flags: W
LayerCount: 2
Fore
SplineSet
1040 82 m 2,0,1
 1040 -482 1040 -482 500 -482 c 0,2,3
 310 -482 310 -482 168 -410 c 1,4,-1
 168 -246 l 1,5,6
 341 -342 341 -342 498 -342 c 0,7,8
 876 -342 876 -342 876 60 c 2,9,-1
 876 172 l 1,10,-1
 872 172 l 1,11,12
 755 -24 755 -24 520 -24 c 0,13,14
 329 -24 329 -24 212.5 112.5 c 128,-1,15
 96 249 96 249 96 479 c 0,16,17
 96 740 96 740 221.5 894 c 128,-1,18
 347 1048 347 1048 565 1048 c 0,19,20
 772 1048 772 1048 872 882 c 1,21,-1
 876 882 l 1,22,-1
 876 1024 l 1,23,-1
 1040 1024 l 1,24,-1
 1040 82 l 2,0,1
876 463 m 2,25,-1
 876 614 l 2,26,27
 876 736 876 736 793.5 823 c 128,-1,28
 711 910 711 910 588 910 c 0,29,30
 436 910 436 910 350 799.5 c 128,-1,31
 264 689 264 689 264 490 c 0,32,33
 264 319 264 319 346.5 216.5 c 128,-1,34
 429 114 429 114 565 114 c 0,35,36
 703 114 703 114 789.5 212 c 128,-1,37
 876 310 876 310 876 463 c 2,25,-1
EndSplineSet
Validated: 1
EndChar

StartChar: h
Encoding: 73 104 45
Width: 1159
GlyphClass: 2
Flags: W
LayerCount: 2
Fore
SplineSet
1016 0 m 1,0,-1
 852 0 l 1,1,-1
 852 590 l 2,2,3
 852 910 852 910 614 910 c 0,4,5
 494 910 494 910 412 817.5 c 128,-1,6
 330 725 330 725 330 580 c 2,7,-1
 330 0 l 1,8,-1
 166 0 l 1,9,-1
 166 1516 l 1,10,-1
 330 1516 l 1,11,-1
 330 854 l 1,12,-1
 334 854 l 1,13,14
 452 1048 452 1048 670 1048 c 0,15,16
 1016 1048 1016 1048 1016 631 c 2,17,-1
 1016 0 l 1,0,-1
EndSplineSet
Validated: 1
EndChar

StartChar: i
Encoding: 74 105 46
Width: 496
GlyphClass: 2
Flags: W
LayerCount: 2
Fore
SplineSet
250 1284 m 0,0,1
 206 1284 206 1284 175 1314 c 128,-1,2
 144 1344 144 1344 144 1390 c 256,3,4
 144 1436 144 1436 175 1466.5 c 128,-1,5
 206 1497 206 1497 250 1497 c 0,6,7
 295 1497 295 1497 326.5 1466.5 c 128,-1,8
 358 1436 358 1436 358 1390 c 0,9,10
 358 1346 358 1346 326.5 1315 c 128,-1,11
 295 1284 295 1284 250 1284 c 0,0,1
330 0 m 1,12,-1
 166 0 l 1,13,-1
 166 1024 l 1,14,-1
 330 1024 l 1,15,-1
 330 0 l 1,12,-1
EndSplineSet
Validated: 1
EndChar

StartChar: j
Encoding: 75 106 47
Width: 496
GlyphClass: 2
Flags: W
LayerCount: 2
Fore
SplineSet
330 43 m 2,0,1
 330 -209 330 -209 228.5 -345.5 c 128,-1,2
 127 -482 127 -482 -62 -482 c 0,3,4
 -132 -482 -132 -482 -198 -450 c 1,5,-1
 -198 -297 l 1,6,7
 -124 -342 -124 -342 -58 -342 c 0,8,9
 166 -342 166 -342 166 16 c 2,10,-1
 166 1024 l 1,11,-1
 330 1024 l 1,12,-1
 330 43 l 2,0,1
250 1284 m 0,13,14
 206 1284 206 1284 175 1314 c 128,-1,15
 144 1344 144 1344 144 1390 c 256,16,17
 144 1436 144 1436 175 1466.5 c 128,-1,18
 206 1497 206 1497 250 1497 c 0,19,20
 295 1497 295 1497 326.5 1466.5 c 128,-1,21
 358 1436 358 1436 358 1390 c 0,22,23
 358 1346 358 1346 326.5 1315 c 128,-1,24
 295 1284 295 1284 250 1284 c 0,13,14
EndSplineSet
Validated: 1
EndChar

StartChar: k
Encoding: 76 107 48
Width: 1018
GlyphClass: 2
Flags: W
LayerCount: 2
Fore
SplineSet
1016 0 m 1,0,-1
 786 0 l 1,1,-1
 334 492 l 1,2,-1
 330 492 l 1,3,-1
 330 0 l 1,4,-1
 166 0 l 1,5,-1
 166 1516 l 1,6,-1
 330 1516 l 1,7,-1
 330 555 l 1,8,-1
 334 555 l 1,9,-1
 764 1024 l 1,10,-1
 979 1024 l 1,11,-1
 504 530 l 1,12,-1
 1016 0 l 1,0,-1
EndSplineSet
Validated: 1
EndChar

StartChar: l
Encoding: 77 108 49
Width: 496
GlyphClass: 2
Flags: W
LayerCount: 2
Fore
SplineSet
330 0 m 1,0,-1
 166 0 l 1,1,-1
 166 1516 l 1,2,-1
 330 1516 l 1,3,-1
 330 0 l 1,0,-1
EndSplineSet
Validated: 1
EndChar

StartChar: m
Encoding: 78 109 50
Width: 1764
GlyphClass: 2
Flags: W
LayerCount: 2
Fore
SplineSet
1620 0 m 1,0,-1
 1456 0 l 1,1,-1
 1456 588 l 2,2,3
 1456 758 1456 758 1403.5 834 c 128,-1,4
 1351 910 1351 910 1227 910 c 0,5,6
 1122 910 1122 910 1048.5 814 c 128,-1,7
 975 718 975 718 975 584 c 2,8,-1
 975 0 l 1,9,-1
 811 0 l 1,10,-1
 811 608 l 2,11,12
 811 910 811 910 578 910 c 0,13,14
 470 910 470 910 400 819.5 c 128,-1,15
 330 729 330 729 330 584 c 2,16,-1
 330 0 l 1,17,-1
 166 0 l 1,18,-1
 166 1024 l 1,19,-1
 330 1024 l 1,20,-1
 330 862 l 1,21,-1
 334 862 l 1,22,23
 443 1048 443 1048 652 1048 c 0,24,25
 757 1048 757 1048 835 989.5 c 128,-1,26
 913 931 913 931 942 836 c 1,27,28
 1056 1048 1056 1048 1282 1048 c 0,29,30
 1620 1048 1620 1048 1620 631 c 2,31,-1
 1620 0 l 1,0,-1
EndSplineSet
Validated: 1
EndChar

StartChar: n
Encoding: 79 110 51
Width: 1159
GlyphClass: 2
Flags: W
LayerCount: 2
Fore
SplineSet
1016 0 m 1,0,-1
 852 0 l 1,1,-1
 852 584 l 2,2,3
 852 910 852 910 614 910 c 0,4,5
 491 910 491 910 410.5 817.5 c 128,-1,6
 330 725 330 725 330 584 c 2,7,-1
 330 0 l 1,8,-1
 166 0 l 1,9,-1
 166 1024 l 1,10,-1
 330 1024 l 1,11,-1
 330 854 l 1,12,-1
 334 854 l 1,13,14
 450 1048 450 1048 670 1048 c 0,15,16
 838 1048 838 1048 927 939.5 c 128,-1,17
 1016 831 1016 831 1016 626 c 2,18,-1
 1016 0 l 1,0,-1
EndSplineSet
Validated: 1
EndChar

StartChar: o
Encoding: 80 111 52
Width: 1200
GlyphClass: 2
Flags: W
LayerCount: 2
Fore
SplineSet
594 -24 m 0,0,1
 367 -24 367 -24 231.5 119.5 c 128,-1,2
 96 263 96 263 96 500 c 0,3,4
 96 758 96 758 237 903 c 128,-1,5
 378 1048 378 1048 618 1048 c 0,6,7
 847 1048 847 1048 975.5 907 c 128,-1,8
 1104 766 1104 766 1104 516 c 0,9,10
 1104 271 1104 271 965.5 123.5 c 128,-1,11
 827 -24 827 -24 594 -24 c 0,0,1
606 910 m 0,12,13
 448 910 448 910 356 802.5 c 128,-1,14
 264 695 264 695 264 506 c 0,15,16
 264 324 264 324 357 219 c 128,-1,17
 450 114 450 114 606 114 c 0,18,19
 765 114 765 114 850.5 217 c 128,-1,20
 936 320 936 320 936 510 c 0,21,22
 936 702 936 702 850.5 806 c 128,-1,23
 765 910 765 910 606 910 c 0,12,13
EndSplineSet
Validated: 1
EndChar

StartChar: p
Encoding: 81 112 53
Width: 1204
GlyphClass: 2
Flags: W
LayerCount: 2
Fore
SplineSet
334 148 m 1,0,-1
 330 148 l 1,1,-1
 330 -471 l 1,2,-1
 166 -471 l 1,3,-1
 166 1024 l 1,4,-1
 330 1024 l 1,5,-1
 330 844 l 1,6,-1
 334 844 l 1,7,8
 455 1048 455 1048 688 1048 c 0,9,10
 886 1048 886 1048 997 910.5 c 128,-1,11
 1108 773 1108 773 1108 542 c 0,12,13
 1108 285 1108 285 983 130.5 c 128,-1,14
 858 -24 858 -24 641 -24 c 0,15,16
 442 -24 442 -24 334 148 c 1,0,-1
330 561 m 2,17,-1
 330 418 l 2,18,19
 330 291 330 291 412.5 202.5 c 128,-1,20
 495 114 495 114 622 114 c 0,21,22
 771 114 771 114 855.5 228 c 128,-1,23
 940 342 940 342 940 545 c 0,24,25
 940 716 940 716 861 813 c 128,-1,26
 782 910 782 910 647 910 c 0,27,28
 504 910 504 910 417 810.5 c 128,-1,29
 330 711 330 711 330 561 c 2,17,-1
EndSplineSet
Validated: 1
EndChar

StartChar: q
Encoding: 82 113 54
Width: 1206
GlyphClass: 2
Flags: W
LayerCount: 2
Fore
SplineSet
1040 -471 m 1,0,-1
 876 -471 l 1,1,-1
 876 176 l 1,2,-1
 872 176 l 1,3,4
 765 -24 765 -24 522 -24 c 0,5,6
 329 -24 329 -24 212.5 113.5 c 128,-1,7
 96 251 96 251 96 488 c 0,8,9
 96 743 96 743 224 895.5 c 128,-1,10
 352 1048 352 1048 568 1048 c 0,11,12
 778 1048 778 1048 872 882 c 1,13,-1
 876 882 l 1,14,-1
 876 1024 l 1,15,-1
 1040 1024 l 1,16,-1
 1040 -471 l 1,0,-1
876 461 m 2,17,-1
 876 610 l 2,18,19
 876 736 876 736 793.5 823 c 128,-1,20
 711 910 711 910 584 910 c 0,21,22
 436 910 436 910 350 800.5 c 128,-1,23
 264 691 264 691 264 492 c 0,24,25
 264 315 264 315 347 214.5 c 128,-1,26
 430 114 430 114 561 114 c 0,27,28
 705 114 705 114 790.5 212.5 c 128,-1,29
 876 311 876 311 876 461 c 2,17,-1
EndSplineSet
Validated: 1
EndChar

StartChar: r
Encoding: 83 114 55
Width: 712
GlyphClass: 2
Flags: W
LayerCount: 2
Fore
SplineSet
700 858 m 1,0,1
 657 891 657 891 576 891 c 0,2,3
 471 891 471 891 400.5 792 c 128,-1,4
 330 693 330 693 330 522 c 2,5,-1
 330 0 l 1,6,-1
 166 0 l 1,7,-1
 166 1024 l 1,8,-1
 330 1024 l 1,9,-1
 330 813 l 1,10,-1
 334 813 l 1,11,12
 369 921 369 921 441 981.5 c 128,-1,13
 513 1042 513 1042 602 1042 c 0,14,15
 666 1042 666 1042 700 1028 c 1,16,-1
 700 858 l 1,0,1
EndSplineSet
Validated: 1
EndChar

StartChar: s
Encoding: 84 115 56
Width: 869
GlyphClass: 2
Flags: W
LayerCount: 2
Fore
SplineSet
104 37 m 1,0,-1
 104 213 l 1,1,2
 238 114 238 114 399 114 c 0,3,4
 615 114 615 114 615 258 c 0,5,6
 615 299 615 299 596.5 327.5 c 128,-1,7
 578 356 578 356 546.5 378 c 128,-1,8
 515 400 515 400 472.5 417.5 c 128,-1,9
 430 435 430 435 381 454 c 0,10,11
 313 481 313 481 261.5 508.5 c 128,-1,12
 210 536 210 536 175.5 570.5 c 128,-1,13
 141 605 141 605 123.5 649 c 128,-1,14
 106 693 106 693 106 752 c 0,15,16
 106 824 106 824 139 879.5 c 128,-1,17
 172 935 172 935 227 972.5 c 128,-1,18
 282 1010 282 1010 352.5 1029 c 128,-1,19
 423 1048 423 1048 498 1048 c 0,20,21
 631 1048 631 1048 736 1002 c 1,22,-1
 736 836 l 1,23,24
 623 910 623 910 476 910 c 0,25,26
 430 910 430 910 393 899.5 c 128,-1,27
 356 889 356 889 329.5 870 c 128,-1,28
 303 851 303 851 288.5 824.5 c 128,-1,29
 274 798 274 798 274 766 c 0,30,31
 274 726 274 726 288.5 699 c 128,-1,32
 303 672 303 672 331 651 c 128,-1,33
 359 630 359 630 399 613 c 128,-1,34
 439 596 439 596 490 576 c 0,35,36
 558 550 558 550 612 522.5 c 128,-1,37
 666 495 666 495 704 460.5 c 128,-1,38
 742 426 742 426 762.5 381 c 128,-1,39
 783 336 783 336 783 274 c 0,40,41
 783 198 783 198 749.5 142 c 128,-1,42
 716 86 716 86 660 49 c 128,-1,43
 604 12 604 12 531 -6 c 128,-1,44
 458 -24 458 -24 378 -24 c 0,45,46
 220 -24 220 -24 104 37 c 1,0,-1
EndSplineSet
Validated: 1
EndChar

StartChar: t
Encoding: 85 116 57
Width: 694
GlyphClass: 2
Flags: W
LayerCount: 2
Fore
SplineSet
641 10 m 1,0,1
 583 -22 583 -22 488 -22 c 0,2,3
 219 -22 219 -22 219 278 c 2,4,-1
 219 884 l 1,5,-1
 43 884 l 1,6,-1
 43 1024 l 1,7,-1
 219 1024 l 1,8,-1
 219 1274 l 1,9,-1
 383 1327 l 1,10,-1
 383 1024 l 1,11,-1
 641 1024 l 1,12,-1
 641 884 l 1,13,-1
 383 884 l 1,14,-1
 383 307 l 2,15,16
 383 204 383 204 418 160 c 128,-1,17
 453 116 453 116 534 116 c 0,18,19
 596 116 596 116 641 150 c 1,20,-1
 641 10 l 1,0,1
EndSplineSet
Validated: 1
EndChar

StartChar: u
Encoding: 86 117 58
Width: 1159
GlyphClass: 2
Flags: W
LayerCount: 2
Fore
SplineSet
994 0 m 1,0,-1
 830 0 l 1,1,-1
 830 162 l 1,2,-1
 826 162 l 1,3,4
 724 -24 724 -24 510 -24 c 0,5,6
 144 -24 144 -24 144 412 c 2,7,-1
 144 1024 l 1,8,-1
 307 1024 l 1,9,-1
 307 438 l 2,10,11
 307 114 307 114 555 114 c 0,12,13
 675 114 675 114 752.5 202.5 c 128,-1,14
 830 291 830 291 830 434 c 2,15,-1
 830 1024 l 1,16,-1
 994 1024 l 1,17,-1
 994 0 l 1,0,-1
EndSplineSet
Validated: 1
EndChar

StartChar: v
Encoding: 87 118 59
Width: 981
GlyphClass: 2
Flags: W
LayerCount: 2
Fore
SplineSet
971 1024 m 1,0,-1
 563 0 l 1,1,-1
 402 0 l 1,2,-1
 14 1024 l 1,3,-1
 194 1024 l 1,4,-1
 454 280 l 2,5,6
 483 198 483 198 490 137 c 1,7,-1
 494 137 l 1,8,9
 504 214 504 214 526 276 c 2,10,-1
 798 1024 l 1,11,-1
 971 1024 l 1,0,-1
EndSplineSet
Validated: 1
EndChar

StartChar: w
Encoding: 88 119 60
Width: 1480
GlyphClass: 2
Flags: W
LayerCount: 2
Fore
SplineSet
1456 1024 m 1,0,-1
 1149 0 l 1,1,-1
 979 0 l 1,2,-1
 768 733 l 2,3,4
 756 775 756 775 752 828 c 1,5,-1
 748 828 l 1,6,7
 745 792 745 792 727 735 c 2,8,-1
 498 0 l 1,9,-1
 334 0 l 1,10,-1
 24 1024 l 1,11,-1
 196 1024 l 1,12,-1
 408 254 l 2,13,14
 418 219 418 219 422 162 c 1,15,-1
 430 162 l 1,16,17
 433 206 433 206 448 256 c 2,18,-1
 684 1024 l 1,19,-1
 834 1024 l 1,20,-1
 1046 252 l 2,21,22
 1056 215 1056 215 1061 160 c 1,23,-1
 1069 160 l 1,24,25
 1071 199 1071 199 1086 252 c 2,26,-1
 1294 1024 l 1,27,-1
 1456 1024 l 1,0,-1
EndSplineSet
Validated: 1
EndChar

StartChar: x
Encoding: 89 120 61
Width: 940
GlyphClass: 2
Flags: W
LayerCount: 2
Fore
SplineSet
914 1024 m 1,0,-1
 570 506 l 1,1,-1
 908 0 l 1,2,-1
 717 0 l 1,3,-1
 516 332 l 2,4,5
 497 363 497 363 471 410 c 1,6,-1
 467 410 l 1,7,8
 462 401 462 401 420 332 c 2,9,-1
 215 0 l 1,10,-1
 26 0 l 1,11,-1
 375 502 l 1,12,-1
 41 1024 l 1,13,-1
 232 1024 l 1,14,-1
 430 674 l 2,15,16
 452 635 452 635 473 594 c 1,17,-1
 477 594 l 1,18,-1
 733 1024 l 1,19,-1
 914 1024 l 1,0,-1
EndSplineSet
Validated: 1
EndChar

StartChar: y
Encoding: 90 121 62
Width: 991
GlyphClass: 2
Flags: W
LayerCount: 2
Fore
SplineSet
981 1024 m 1,0,-1
 510 -164 l 2,1,2
 384 -482 384 -482 156 -482 c 0,3,4
 92 -482 92 -482 49 -469 c 1,5,-1
 49 -322 l 1,6,7
 102 -340 102 -340 146 -340 c 0,8,9
 270 -340 270 -340 332 -192 c 2,10,-1
 414 2 l 1,11,-1
 14 1024 l 1,12,-1
 196 1024 l 1,13,-1
 473 236 l 2,14,15
 478 221 478 221 494 158 c 1,16,-1
 500 158 l 1,17,18
 505 182 505 182 520 234 c 2,19,-1
 811 1024 l 1,20,-1
 981 1024 l 1,0,-1
EndSplineSet
Validated: 1
EndChar

StartChar: z
Encoding: 91 122 63
Width: 926
GlyphClass: 2
Flags: W
LayerCount: 2
Fore
SplineSet
880 977 m 1,0,-1
 274 140 l 1,1,-1
 874 140 l 1,2,-1
 874 0 l 1,3,-1
 33 0 l 1,4,-1
 33 51 l 1,5,-1
 639 884 l 1,6,-1
 90 884 l 1,7,-1
 90 1024 l 1,8,-1
 880 1024 l 1,9,-1
 880 977 l 1,0,-1
EndSplineSet
Validated: 1
EndChar

StartChar: numbersign
Encoding: 5 35 64
Width: 1210
GlyphClass: 2
Flags: W
LayerCount: 2
Fore
SplineSet
1166 1032 m 1,0,-1
 1143 926 l 1,1,-1
 882 926 l 1,2,-1
 819 626 l 1,3,-1
 1100 626 l 1,4,-1
 1073 520 l 1,5,-1
 798 520 l 1,6,-1
 710 123 l 1,7,-1
 584 123 l 1,8,-1
 670 520 l 1,9,-1
 420 520 l 1,10,-1
 336 123 l 1,11,-1
 211 123 l 1,12,-1
 295 520 l 1,13,-1
 33 520 l 1,14,-1
 53 626 l 1,15,-1
 318 626 l 1,16,-1
 379 926 l 1,17,-1
 102 926 l 1,18,-1
 123 1032 l 1,19,-1
 400 1032 l 1,20,-1
 484 1434 l 1,21,-1
 610 1434 l 1,22,-1
 526 1032 l 1,23,-1
 778 1032 l 1,24,-1
 864 1434 l 1,25,-1
 987 1434 l 1,26,-1
 903 1032 l 1,27,-1
 1166 1032 l 1,0,-1
758 926 m 1,28,-1
 506 926 l 1,29,-1
 440 626 l 1,30,-1
 694 626 l 1,31,-1
 758 926 l 1,28,-1
EndSplineSet
Validated: 1
EndChar

StartChar: dollar
Encoding: 6 36 65
Width: 1104
GlyphClass: 2
Flags: W
LayerCount: 2
Fore
SplineSet
616 8 m 1,0,-1
 616 -209 l 1,1,-1
 512 -209 l 1,2,-1
 512 0 l 1,3,4
 299 0 299 0 166 86 c 1,5,-1
 166 260 l 1,6,7
 224 209 224 209 324.5 174.5 c 128,-1,8
 425 140 425 140 512 140 c 1,9,-1
 512 652 l 1,10,11
 292 758 292 758 227 847.5 c 128,-1,12
 162 937 162 937 162 1059 c 0,13,14
 162 1204 162 1204 261 1309.5 c 128,-1,15
 360 1415 360 1415 512 1436 c 1,16,-1
 512 1616 l 1,17,-1
 616 1616 l 1,18,-1
 616 1440 l 1,19,20
 812 1434 812 1434 887 1384 c 1,21,-1
 887 1214 l 1,22,23
 785 1294 785 1294 616 1300 c 1,24,-1
 616 772 l 1,25,26
 824 673 824 673 900.5 580.5 c 128,-1,27
 977 488 977 488 977 370 c 0,28,29
 977 228 977 228 881.5 131.5 c 128,-1,30
 786 35 786 35 616 8 c 1,0,-1
512 828 m 1,31,-1
 512 1294 l 1,32,33
 428 1277 428 1277 379 1219.5 c 128,-1,34
 330 1162 330 1162 330 1080 c 0,35,36
 330 994 330 994 370 939 c 128,-1,37
 410 884 410 884 512 828 c 1,31,-1
616 600 m 1,38,-1
 616 148 l 1,39,40
 809 190 809 190 809 356 c 0,41,42
 809 494 809 494 616 600 c 1,38,-1
EndSplineSet
Validated: 1
EndChar

StartChar: percent
Encoding: 7 37 66
Width: 1676
GlyphClass: 2
Flags: W
LayerCount: 2
Fore
SplineSet
404 715 m 0,0,1
 256 715 256 715 168 812.5 c 128,-1,2
 80 910 80 910 80 1073 c 0,3,4
 80 1251 80 1251 173 1353.5 c 128,-1,5
 266 1456 266 1456 424 1456 c 0,6,7
 577 1456 577 1456 661.5 1361 c 128,-1,8
 746 1266 746 1266 746 1094 c 256,9,10
 746 922 746 922 651.5 818.5 c 128,-1,11
 557 715 557 715 404 715 c 0,0,1
418 1346 m 0,12,13
 323 1346 323 1346 268 1275.5 c 128,-1,14
 213 1205 213 1205 213 1082 c 0,15,16
 213 961 213 961 267 893.5 c 128,-1,17
 321 826 321 826 414 826 c 0,18,19
 508 826 508 826 561 896 c 128,-1,20
 614 966 614 966 614 1090 c 0,21,22
 614 1211 614 1211 561.5 1278.5 c 128,-1,23
 509 1346 509 1346 418 1346 c 0,12,13
1364 1434 m 1,24,-1
 444 -10 l 1,25,-1
 301 -10 l 1,26,-1
 1220 1434 l 1,27,-1
 1364 1434 l 1,24,-1
1258 -22 m 0,28,29
 1110 -22 1110 -22 1022 76 c 128,-1,30
 934 174 934 174 934 336 c 0,31,32
 934 514 934 514 1028 617.5 c 128,-1,33
 1122 721 1122 721 1278 721 c 0,34,35
 1430 721 1430 721 1515 625 c 128,-1,36
 1600 529 1600 529 1600 356 c 0,37,38
 1600 185 1600 185 1505.5 81.5 c 128,-1,39
 1411 -22 1411 -22 1258 -22 c 0,28,29
1272 608 m 0,40,41
 1176 608 1176 608 1121.5 538 c 128,-1,42
 1067 468 1067 468 1067 344 c 0,43,44
 1067 225 1067 225 1121 157.5 c 128,-1,45
 1175 90 1175 90 1268 90 c 0,46,47
 1362 90 1362 90 1415 160.5 c 128,-1,48
 1468 231 1468 231 1468 354 c 0,49,50
 1468 476 1468 476 1415.5 542 c 128,-1,51
 1363 608 1363 608 1272 608 c 0,40,41
EndSplineSet
Validated: 1
EndChar

StartChar: backslash
Encoding: 61 92 67
Width: 1104
GlyphClass: 2
Flags: W
LayerCount: 2
Fore
SplineSet
1042 1434 m 1,0,-1
 686 778 l 1,1,-1
 971 778 l 1,2,-1
 971 639 l 1,3,-1
 637 639 l 1,4,-1
 637 432 l 1,5,-1
 971 432 l 1,6,-1
 971 293 l 1,7,-1
 637 293 l 1,8,-1
 637 0 l 1,9,-1
 473 0 l 1,10,-1
 473 293 l 1,11,-1
 129 293 l 1,12,-1
 129 432 l 1,13,-1
 473 432 l 1,14,-1
 473 639 l 1,15,-1
 129 639 l 1,16,-1
 129 778 l 1,17,-1
 420 778 l 1,18,-1
 68 1434 l 1,19,-1
 260 1434 l 1,20,-1
 510 920 l 2,21,22
 538 862 538 862 557 809 c 1,23,-1
 561 809 l 1,24,25
 574 851 574 851 610 926 c 2,26,-1
 862 1434 l 1,27,-1
 1042 1434 l 1,0,-1
EndSplineSet
Validated: 1
EndChar

StartChar: asciicircum
Encoding: 63 94 68
Width: 1401
GlyphClass: 4
Flags: W
LayerCount: 2
Fore
SplineSet
1174 624 m 1,0,-1
 1024 624 l 1,1,-1
 692 1243 l 1,2,-1
 686 1243 l 1,3,-1
 377 624 l 1,4,-1
 230 624 l 1,5,-1
 652 1458 l 1,6,-1
 717 1458 l 1,7,-1
 1174 624 l 1,0,-1
EndSplineSet
Validated: 1
EndChar

StartChar: bracketright
Encoding: 62 93 69
Width: 618
GlyphClass: 2
Flags: W
LayerCount: 2
Fore
SplineSet
420 -326 m 1,0,-1
 53 -326 l 1,1,-1
 53 -207 l 1,2,-1
 274 -207 l 1,3,-1
 274 1315 l 1,4,-1
 53 1315 l 1,5,-1
 53 1434 l 1,6,-1
 420 1434 l 1,7,-1
 420 -326 l 1,0,-1
EndSplineSet
Validated: 1
EndChar

StartChar: bracketleft
Encoding: 60 91 70
Width: 618
GlyphClass: 2
Flags: W
LayerCount: 2
Fore
SplineSet
568 -326 m 1,0,-1
 200 -326 l 1,1,-1
 200 1434 l 1,2,-1
 568 1434 l 1,3,-1
 568 1315 l 1,4,-1
 346 1315 l 1,5,-1
 346 -207 l 1,6,-1
 568 -207 l 1,7,-1
 568 -326 l 1,0,-1
EndSplineSet
Validated: 1
EndChar

StartChar: equal
Encoding: 30 61 71
Width: 1401
GlyphClass: 2
Flags: W
LayerCount: 2
Fore
SplineSet
1172 744 m 1,0,-1
 232 744 l 1,1,-1
 232 876 l 1,2,-1
 1172 876 l 1,3,-1
 1172 744 l 1,0,-1
1172 318 m 1,4,-1
 232 318 l 1,5,-1
 232 450 l 1,6,-1
 1172 450 l 1,7,-1
 1172 318 l 1,4,-1
EndSplineSet
Validated: 1
EndChar

StartChar: less
Encoding: 29 60 72
Width: 1401
GlyphClass: 2
Flags: W
LayerCount: 2
Fore
SplineSet
1132 127 m 1,0,-1
 272 559 l 1,1,-1
 272 618 l 1,2,-1
 1132 1100 l 1,3,-1
 1132 950 l 1,4,-1
 490 594 l 1,5,-1
 490 590 l 1,6,-1
 1132 276 l 1,7,-1
 1132 127 l 1,0,-1
EndSplineSet
Validated: 1
EndChar

StartChar: greater
Encoding: 31 62 73
Width: 1401
GlyphClass: 2
Flags: W
LayerCount: 2
Fore
SplineSet
1132 559 m 1,0,-1
 272 127 l 1,1,-1
 272 276 l 1,2,-1
 916 588 l 1,3,-1
 916 594 l 1,4,-1
 272 950 l 1,5,-1
 272 1100 l 1,6,-1
 1132 618 l 1,7,-1
 1132 559 l 1,0,-1
EndSplineSet
Validated: 1
EndChar

StartChar: question
Encoding: 32 63 74
Width: 918
GlyphClass: 2
Flags: W
LayerCount: 2
Fore
SplineSet
335 398 m 1,0,1
 326 424 326 424 319 465.5 c 128,-1,2
 312 507 312 507 312 548 c 0,3,4
 312 612 312 612 337.5 663.5 c 128,-1,5
 363 715 363 715 401 760 c 128,-1,6
 439 805 439 805 484 846.5 c 128,-1,7
 529 888 529 888 567 930.5 c 128,-1,8
 605 973 605 973 630.5 1019.5 c 128,-1,9
 656 1066 656 1066 656 1122 c 0,10,11
 656 1170 656 1170 637.5 1207 c 128,-1,12
 619 1244 619 1244 587 1269 c 128,-1,13
 555 1294 555 1294 513 1306.5 c 128,-1,14
 471 1319 471 1319 424 1319 c 0,15,16
 255 1319 255 1319 131 1186 c 1,17,-1
 131 1362 l 1,18,19
 284 1458 284 1458 448 1458 c 0,20,21
 524 1458 524 1458 591 1438 c 128,-1,22
 658 1418 658 1418 708.5 1378.5 c 128,-1,23
 759 1339 759 1339 788 1280 c 128,-1,24
 817 1221 817 1221 817 1143 c 0,25,26
 817 1069 817 1069 791 1011 c 128,-1,27
 765 953 765 953 725.5 904.5 c 128,-1,28
 686 856 686 856 640 814 c 128,-1,29
 594 772 594 772 554.5 730.5 c 128,-1,30
 515 689 515 689 489 644 c 128,-1,31
 463 599 463 599 463 545 c 0,32,33
 463 499 463 499 474 461.5 c 128,-1,34
 485 424 485 424 496 398 c 1,35,-1
 335 398 l 1,0,1
425 -18 m 256,36,37
 381 -18 381 -18 347 14 c 0,38,39
 314 46 314 46 314 92 c 0,40,41
 314 139 314 139 347 170 c 0,42,43
 380 203 380 203 425 203 c 256,44,45
 470 203 470 203 503 170 c 0,46,47
 536 139 536 139 536 92 c 0,48,49
 536 46 536 46 503 14 c 0,50,51
 469 -18 469 -18 425 -18 c 256,36,37
EndSplineSet
Validated: 1
EndChar

StartChar: at
Encoding: 33 64 75
Width: 1956
GlyphClass: 2
Flags: W
LayerCount: 2
Fore
SplineSet
1164 420 m 1,0,-1
 1159 420 l 1,1,2
 1086 182 1086 182 872 182 c 0,3,4
 735 182 735 182 651.5 283 c 128,-1,5
 568 384 568 384 568 555 c 0,6,7
 568 781 568 781 683.5 930.5 c 128,-1,8
 799 1080 799 1080 987 1080 c 0,9,10
 1059 1080 1059 1080 1115.5 1043 c 128,-1,11
 1172 1006 1172 1006 1188 950 c 1,12,-1
 1192 950 l 1,13,14
 1194 978 1194 978 1202 1065 c 1,15,-1
 1327 1065 l 1,16,17
 1280 514 1280 514 1280 504 c 0,18,19
 1280 297 1280 297 1399 297 c 0,20,21
 1507 297 1507 297 1578.5 414 c 128,-1,22
 1650 531 1650 531 1650 717 c 0,23,24
 1650 992 1650 992 1476 1166 c 128,-1,25
 1302 1340 1302 1340 994 1340 c 0,26,27
 697 1340 697 1340 503 1132 c 128,-1,28
 309 924 309 924 309 612 c 0,29,30
 309 305 309 305 493.5 116.5 c 128,-1,31
 678 -72 678 -72 991 -72 c 0,32,33
 1238 -72 1238 -72 1413 10 c 1,34,-1
 1413 -114 l 1,35,36
 1240 -188 1240 -188 981 -188 c 0,37,38
 617 -188 617 -188 394.5 31.5 c 128,-1,39
 172 251 172 251 172 606 c 0,40,41
 172 972 172 972 405.5 1213 c 128,-1,42
 639 1454 639 1454 1002 1454 c 0,43,44
 1342 1454 1342 1454 1565 1252 c 128,-1,45
 1788 1050 1788 1050 1788 725 c 0,46,47
 1788 487 1788 487 1670.5 334.5 c 128,-1,48
 1553 182 1553 182 1384 182 c 0,49,50
 1165 182 1165 182 1164 420 c 1,0,-1
985 964 m 0,51,52
 861 964 861 964 784.5 846 c 128,-1,53
 708 728 708 728 708 553 c 0,54,55
 708 435 708 435 759.5 367 c 128,-1,56
 811 299 811 299 897 299 c 0,57,58
 1021 299 1021 299 1093.5 422.5 c 128,-1,59
 1166 546 1166 546 1166 750 c 0,60,61
 1166 964 1166 964 985 964 c 0,51,52
EndSplineSet
Validated: 1
EndChar

StartChar: colon
Encoding: 27 58 76
Width: 444
GlyphClass: 2
Flags: W
LayerCount: 2
Fore
SplineSet
223 824 m 0,0,1
 177 824 177 824 144.5 857 c 128,-1,2
 112 890 112 890 112 936 c 256,3,4
 112 982 112 982 144.5 1014 c 128,-1,5
 177 1046 177 1046 223 1046 c 0,6,7
 270 1046 270 1046 303 1014 c 128,-1,8
 336 982 336 982 336 936 c 256,9,10
 336 890 336 890 303 857 c 128,-1,11
 270 824 270 824 223 824 c 0,0,1
223 -22 m 0,12,13
 177 -22 177 -22 144.5 11 c 128,-1,14
 112 44 112 44 112 90 c 256,15,16
 112 136 112 136 144.5 169.5 c 128,-1,17
 177 203 177 203 223 203 c 0,18,19
 270 203 270 203 303 169.5 c 128,-1,20
 336 136 336 136 336 90 c 256,21,22
 336 44 336 44 303 11 c 128,-1,23
 270 -22 270 -22 223 -22 c 0,12,13
EndSplineSet
Validated: 1
EndChar

StartChar: semicolon
Encoding: 28 59 77
Width: 444
GlyphClass: 2
Flags: W
LayerCount: 2
Fore
SplineSet
226 824 m 0,0,1
 179 824 179 824 146.5 857 c 128,-1,2
 114 890 114 890 114 936 c 256,3,4
 114 982 114 982 146.5 1014 c 128,-1,5
 179 1046 179 1046 226 1046 c 0,6,7
 272 1046 272 1046 305 1014 c 128,-1,8
 338 982 338 982 338 936 c 256,9,10
 338 890 338 890 305 857 c 128,-1,11
 272 824 272 824 226 824 c 0,0,1
316 228 m 1,12,-1
 156 -264 l 1,13,-1
 39 -264 l 1,14,-1
 156 228 l 1,15,-1
 316 228 l 1,12,-1
EndSplineSet
Validated: 1
EndChar

StartChar: plus
Encoding: 13 43 78
Width: 1401
GlyphClass: 2
Flags: W
LayerCount: 2
Fore
SplineSet
1172 530 m 1,0,-1
 768 530 l 1,1,-1
 768 127 l 1,2,-1
 635 127 l 1,3,-1
 635 530 l 1,4,-1
 232 530 l 1,5,-1
 232 664 l 1,6,-1
 635 664 l 1,7,-1
 635 1067 l 1,8,-1
 768 1067 l 1,9,-1
 768 664 l 1,10,-1
 1172 664 l 1,11,-1
 1172 530 l 1,0,-1
EndSplineSet
Validated: 1
EndChar

StartChar: asterisk
Encoding: 12 42 79
Width: 854
GlyphClass: 2
Flags: W
LayerCount: 2
Fore
SplineSet
780 1104 m 1,0,-1
 506 1048 l 1,1,-1
 696 805 l 1,2,-1
 586 729 l 1,3,-1
 430 994 l 1,4,-1
 272 729 l 1,5,-1
 162 805 l 1,6,-1
 352 1048 l 1,7,-1
 76 1104 l 1,8,-1
 121 1229 l 1,9,-1
 383 1130 l 1,10,-1
 360 1434 l 1,11,-1
 498 1434 l 1,12,-1
 475 1130 l 1,13,-1
 738 1229 l 1,14,-1
 780 1104 l 1,0,-1
EndSplineSet
Validated: 1
EndChar

StartChar: slash
Encoding: 16 47 80
Width: 798
GlyphClass: 2
Flags: W
LayerCount: 2
Fore
SplineSet
813 1434 m 1,0,-1
 125 -238 l 1,1,-1
 -28 -238 l 1,2,-1
 658 1434 l 1,3,-1
 813 1434 l 1,0,-1
EndSplineSet
Validated: 1
EndChar

StartChar: braceleft
Encoding: 92 123 81
Width: 618
GlyphClass: 2
Flags: W
LayerCount: 2
Fore
SplineSet
555 -326 m 1,0,1
 248 -322 248 -322 248 -16 c 2,2,-1
 248 284 l 2,3,4
 248 486 248 486 92 496 c 1,5,-1
 92 612 l 1,6,7
 248 622 248 622 248 828 c 2,8,-1
 248 1120 l 2,9,10
 248 1430 248 1430 555 1434 c 1,11,-1
 555 1306 l 1,12,13
 396 1302 396 1302 396 1108 c 2,14,-1
 396 815 l 2,15,16
 396 605 396 605 246 557 c 1,17,-1
 246 553 l 1,18,19
 396 508 396 508 396 297 c 2,20,-1
 396 8 l 2,21,22
 396 -103 396 -103 431.5 -150.5 c 128,-1,23
 467 -198 467 -198 555 -200 c 1,24,-1
 555 -326 l 1,0,1
EndSplineSet
Validated: 1
EndChar

StartChar: braceright
Encoding: 94 125 82
Width: 618
GlyphClass: 2
Flags: W
LayerCount: 2
Fore
SplineSet
528 496 m 1,0,1
 372 486 372 486 372 284 c 2,2,-1
 372 -16 l 2,3,4
 372 -322 372 -322 66 -326 c 1,5,-1
 66 -200 l 1,6,7
 153 -198 153 -198 189.5 -150 c 128,-1,8
 226 -102 226 -102 226 8 c 2,9,-1
 226 297 l 2,10,11
 226 508 226 508 375 553 c 1,12,-1
 375 557 l 1,13,14
 226 605 226 605 226 815 c 2,15,-1
 226 1108 l 2,16,17
 226 1302 226 1302 66 1306 c 1,18,-1
 66 1434 l 1,19,20
 372 1430 372 1430 372 1120 c 2,21,-1
 372 828 l 2,22,23
 372 622 372 622 528 612 c 1,24,-1
 528 496 l 1,0,1
EndSplineSet
Validated: 1
EndChar

StartChar: bar
Encoding: 93 124 83
Width: 490
GlyphClass: 2
Flags: W
LayerCount: 2
Fore
SplineSet
320 -482 m 1,0,-1
 172 -482 l 1,1,-1
 172 1566 l 1,2,-1
 320 1566 l 1,3,-1
 320 -482 l 1,0,-1
EndSplineSet
Validated: 1
EndChar

StartChar: parenleft
Encoding: 10 40 84
Width: 618
GlyphClass: 2
Flags: W
LayerCount: 2
Fore
SplineSet
596 -326 m 1,0,-1
 450 -326 l 1,1,2
 140 28 140 28 140 547 c 0,3,4
 140 1068 140 1068 450 1434 c 1,5,-1
 598 1434 l 1,6,7
 284 1054 284 1054 284 549 c 0,8,9
 284 48 284 48 596 -326 c 1,0,-1
EndSplineSet
Validated: 1
EndChar

StartChar: parenright
Encoding: 11 41 85
Width: 618
GlyphClass: 2
Flags: W
LayerCount: 2
Fore
SplineSet
170 -326 m 1,0,-1
 24 -326 l 1,1,2
 336 48 336 48 336 549 c 0,3,4
 336 1054 336 1054 22 1434 c 1,5,-1
 170 1434 l 1,6,7
 482 1068 482 1068 482 547 c 0,8,9
 482 28 482 28 170 -326 c 1,0,-1
EndSplineSet
Validated: 1
EndChar

StartChar: exclam
Encoding: 3 33 86
Width: 582
GlyphClass: 2
Flags: W
LayerCount: 2
Fore
SplineSet
375 1434 m 1,0,-1
 356 404 l 1,1,-1
 221 404 l 1,2,-1
 203 1434 l 1,3,-1
 375 1434 l 1,0,-1
291 -18 m 0,4,5
 245 -18 245 -18 212.5 14 c 128,-1,6
 180 46 180 46 180 92 c 256,7,8
 180 138 180 138 212.5 170.5 c 128,-1,9
 245 203 245 203 291 203 c 0,10,11
 336 203 336 203 369 170.5 c 128,-1,12
 402 138 402 138 402 92 c 256,13,14
 402 46 402 46 369 14 c 128,-1,15
 336 -18 336 -18 291 -18 c 0,4,5
EndSplineSet
Validated: 1
EndChar

StartChar: yen
Encoding: 101 165 87
Width: 1104
GlyphClass: 2
Flags: W
LayerCount: 2
Fore
SplineSet
1042 1434 m 1,0,-1
 686 778 l 1,1,-1
 971 778 l 1,2,-1
 971 639 l 1,3,-1
 637 639 l 1,4,-1
 637 432 l 1,5,-1
 971 432 l 1,6,-1
 971 293 l 1,7,-1
 637 293 l 1,8,-1
 637 0 l 1,9,-1
 473 0 l 1,10,-1
 473 293 l 1,11,-1
 129 293 l 1,12,-1
 129 432 l 1,13,-1
 473 432 l 1,14,-1
 473 639 l 1,15,-1
 129 639 l 1,16,-1
 129 778 l 1,17,-1
 420 778 l 1,18,-1
 68 1434 l 1,19,-1
 260 1434 l 1,20,-1
 510 920 l 2,21,22
 538 862 538 862 557 809 c 1,23,-1
 561 809 l 1,24,25
 574 851 574 851 610 926 c 2,26,-1
 862 1434 l 1,27,-1
 1042 1434 l 1,0,-1
EndSplineSet
Validated: 1
EndChar

StartChar: sterling
Encoding: 99 163 88
Width: 1104
GlyphClass: 2
Flags: W
LayerCount: 2
Fore
SplineSet
1006 0 m 1,0,-1
 106 0 l 1,1,-1
 106 135 l 1,2,3
 324 204 324 204 324 448 c 2,4,-1
 324 635 l 1,5,-1
 127 635 l 1,6,-1
 127 776 l 1,7,-1
 324 776 l 1,8,-1
 324 1030 l 2,9,10
 324 1218 324 1218 433 1338 c 128,-1,11
 542 1458 542 1458 715 1458 c 0,12,13
 832 1458 832 1458 928 1417 c 1,14,-1
 928 1262 l 1,15,16
 828 1319 828 1319 717 1319 c 0,17,18
 488 1319 488 1319 488 1012 c 2,19,-1
 488 776 l 1,20,-1
 784 776 l 1,21,-1
 784 635 l 1,22,-1
 488 635 l 1,23,-1
 488 479 l 2,24,25
 488 237 488 237 295 140 c 1,26,-1
 1006 140 l 1,27,-1
 1006 0 l 1,0,-1
EndSplineSet
Validated: 1
EndChar

StartChar: currency
Encoding: 100 164 89
Width: 1138
GlyphClass: 2
Flags: W
LayerCount: 2
Fore
SplineSet
1038 354 m 1,0,-1
 946 258 l 1,1,-1
 809 396 l 1,2,3
 704 320 704 320 570 320 c 0,4,5
 434 320 434 320 330 396 c 1,6,-1
 192 258 l 1,7,-1
 100 354 l 1,8,-1
 238 488 l 1,9,10
 162 601 162 601 162 725 c 0,11,12
 162 854 162 854 238 962 c 1,13,-1
 100 1098 l 1,14,-1
 192 1194 l 1,15,-1
 330 1057 l 1,16,17
 440 1134 440 1134 570 1134 c 0,18,19
 699 1134 699 1134 807 1057 c 1,20,-1
 946 1194 l 1,21,-1
 1038 1098 l 1,22,-1
 901 962 l 1,23,24
 979 850 979 850 979 725 c 0,25,26
 979 604 979 604 901 488 c 1,27,-1
 1038 354 l 1,0,-1
570 1002 m 0,28,29
 454 1002 454 1002 374.5 921 c 128,-1,30
 295 840 295 840 295 727 c 256,31,32
 295 614 295 614 375.5 533 c 128,-1,33
 456 452 456 452 570 452 c 0,34,35
 683 452 683 452 764.5 533 c 128,-1,36
 846 614 846 614 846 727 c 256,37,38
 846 840 846 840 763 921 c 128,-1,39
 680 1002 680 1002 570 1002 c 0,28,29
EndSplineSet
Validated: 1
EndChar

StartChar: cent
Encoding: 98 162 90
Width: 1104
GlyphClass: 2
Flags: W
LayerCount: 2
Fore
SplineSet
952 209 m 1,0,1
 856 150 856 150 731 140 c 1,2,-1
 731 -49 l 1,3,-1
 606 -49 l 1,4,-1
 606 142 l 1,5,6
 413 164 413 164 298.5 303 c 128,-1,7
 184 442 184 442 184 649 c 0,8,9
 184 868 184 868 298.5 1015.5 c 128,-1,10
 413 1163 413 1163 606 1200 c 1,11,-1
 606 1413 l 1,12,-1
 731 1413 l 1,13,-1
 731 1210 l 1,14,15
 854 1208 854 1208 952 1159 c 1,16,-1
 952 987 l 1,17,18
 851 1058 851 1058 731 1065 c 1,19,-1
 731 280 l 1,20,21
 853 292 853 292 952 366 c 1,22,-1
 952 209 l 1,0,1
606 291 m 1,23,-1
 606 1052 l 1,24,25
 487 1021 487 1021 419.5 918.5 c 128,-1,26
 352 816 352 816 352 666 c 256,27,28
 352 516 352 516 420 417 c 128,-1,29
 488 318 488 318 606 291 c 1,23,-1
EndSplineSet
Validated: 1
EndChar

StartChar: section
Encoding: 103 167 91
Width: 918
GlyphClass: 2
Flags: W
LayerCount: 2
Fore
SplineSet
658 416 m 1,0,1
 748 342 748 342 748 230 c 0,2,3
 748 98 748 98 648 16 c 128,-1,4
 548 -66 548 -66 393 -66 c 0,5,6
 262 -66 262 -66 154 -10 c 1,7,-1
 154 148 l 1,8,9
 284 74 284 74 404 74 c 0,10,11
 488 74 488 74 534 113.5 c 128,-1,12
 580 153 580 153 580 213 c 0,13,14
 580 266 580 266 544.5 302.5 c 128,-1,15
 509 339 509 339 364 416 c 0,16,17
 131 538 131 538 131 733 c 0,18,19
 131 896 131 896 278 977 c 1,20,21
 172 1060 172 1060 172 1200 c 0,22,23
 172 1327 172 1327 265.5 1409 c 128,-1,24
 359 1491 359 1491 512 1491 c 0,25,26
 642 1491 642 1491 731 1448 c 1,27,-1
 731 1290 l 1,28,29
 630 1352 630 1352 508 1352 c 0,30,31
 340 1352 340 1352 340 1208 c 0,32,33
 340 1153 340 1153 380.5 1108 c 128,-1,34
 421 1063 421 1063 584 985 c 0,35,36
 807 878 807 878 807 692 c 0,37,38
 807 522 807 522 658 416 c 1,0,1
398 905 m 1,39,40
 297 854 297 854 297 746 c 0,41,42
 297 674 297 674 353.5 619.5 c 128,-1,43
 410 565 410 565 551 502 c 1,44,45
 639 570 639 570 639 674 c 0,46,47
 639 746 639 746 586.5 796.5 c 128,-1,48
 534 847 534 847 398 905 c 1,39,40
EndSplineSet
Validated: 1
EndChar

StartChar: registered
Encoding: 109 174 92
Width: 1823
GlyphClass: 2
Flags: W
LayerCount: 2
Fore
SplineSet
912 255 m 0,0,1
 663 255 663 255 487.5 430 c 128,-1,2
 312 605 312 605 312 854 c 256,3,4
 312 1103 312 1103 487.5 1278.5 c 128,-1,5
 663 1454 663 1454 912 1454 c 0,6,7
 1160 1454 1160 1454 1335.5 1278.5 c 128,-1,8
 1511 1103 1511 1103 1511 854 c 256,9,10
 1511 605 1511 605 1335.5 430 c 128,-1,11
 1160 255 1160 255 912 255 c 0,0,1
913 1360 m 0,12,13
 703 1360 703 1360 554.5 1212 c 128,-1,14
 406 1064 406 1064 406 854 c 0,15,16
 406 645 406 645 554.5 497 c 128,-1,17
 703 349 703 349 913 349 c 0,18,19
 1122 349 1122 349 1269.5 497 c 128,-1,20
 1417 645 1417 645 1417 854 c 0,21,22
 1417 1064 1417 1064 1269.5 1212 c 128,-1,23
 1122 1360 1122 1360 913 1360 c 0,12,13
1203 479 m 1,24,-1
 1065 479 l 1,25,-1
 982 662 l 2,26,27
 919 800 919 800 846 800 c 2,28,-1
 794 800 l 1,29,-1
 794 479 l 1,30,-1
 677 479 l 1,31,-1
 677 1242 l 1,32,-1
 892 1242 l 2,33,34
 1025 1242 1025 1242 1097.5 1186 c 128,-1,35
 1170 1130 1170 1130 1170 1034 c 0,36,37
 1170 956 1170 956 1119 900.5 c 128,-1,38
 1068 845 1068 845 977 826 c 1,39,-1
 977 823 l 1,40,41
 1040 809 1040 809 1103 682 c 2,42,-1
 1203 479 l 1,24,-1
794 1143 m 1,43,-1
 794 898 l 1,44,-1
 888 898 l 2,45,46
 1046 898 1046 898 1046 1021 c 0,47,48
 1046 1092 1046 1092 1003.5 1117.5 c 128,-1,49
 961 1143 961 1143 869 1143 c 2,50,-1
 794 1143 l 1,43,-1
EndSplineSet
Validated: 1
EndChar

StartChar: onehalf
Encoding: 123 189 93
Width: 1906
GlyphClass: 2
Flags: W
LayerCount: 2
Fore
SplineSet
639 584 m 1,0,-1
 135 584 l 1,1,-1
 135 696 l 1,2,-1
 320 696 l 1,3,-1
 320 1290 l 1,4,-1
 127 1235 l 1,5,-1
 127 1360 l 1,6,-1
 450 1456 l 1,7,-1
 450 696 l 1,8,-1
 639 696 l 1,9,-1
 639 584 l 1,0,-1
1748 1 m 1,10,-1
 1194 1 l 1,11,-1
 1194 115 l 1,12,-1
 1434 351 l 2,13,14
 1538 453 1538 453 1566 507.5 c 128,-1,15
 1594 562 1594 562 1594 617 c 0,16,17
 1594 675 1594 675 1556 711.5 c 128,-1,18
 1518 748 1518 748 1456 748 c 0,19,20
 1338 748 1338 748 1240 646 c 1,21,-1
 1240 795 l 1,22,23
 1324 871 1324 871 1475 871 c 0,24,25
 1593 871 1593 871 1662 805 c 128,-1,26
 1731 739 1731 739 1731 631 c 0,27,28
 1731 478 1731 478 1526 283 c 2,29,-1
 1362 127 l 1,30,-1
 1362 123 l 1,31,-1
 1748 123 l 1,32,-1
 1748 1 l 1,10,-1
1393 1434 m 1,33,-1
 535 0 l 1,34,-1
 391 0 l 1,35,-1
 1250 1434 l 1,36,-1
 1393 1434 l 1,33,-1
EndSplineSet
Validated: 1
EndChar

StartChar: threequarters
Encoding: 124 190 94
Width: 1950
GlyphClass: 2
Flags: W
LayerCount: 2
Fore
SplineSet
129 616 m 1,0,-1
 129 758 l 1,1,2
 232 682 232 682 346 682 c 0,3,4
 426 682 426 682 472 719.5 c 128,-1,5
 518 757 518 757 518 821 c 0,6,7
 518 962 518 962 299 962 c 2,8,-1
 215 962 l 1,9,-1
 215 1080 l 1,10,-1
 295 1080 l 2,11,12
 492 1080 492 1080 492 1214 c 0,13,14
 492 1333 492 1333 348 1333 c 0,15,16
 254 1333 254 1333 162 1264 c 1,17,-1
 162 1403 l 1,18,19
 249 1454 249 1454 375 1454 c 0,20,21
 488 1454 488 1454 555 1394.5 c 128,-1,22
 622 1335 622 1335 622 1239 c 0,23,24
 622 1088 622 1088 477 1034 c 1,25,-1
 477 1030 l 1,26,27
 654 988 654 988 654 828 c 0,28,29
 654 711 654 711 569 637 c 128,-1,30
 484 563 484 563 342 563 c 0,31,32
 205 563 205 563 129 616 c 1,0,-1
1771 204 m 1,33,-1
 1661 204 l 1,34,-1
 1661 0 l 1,35,-1
 1529 0 l 1,36,-1
 1529 204 l 1,37,-1
 1136 204 l 1,38,-1
 1136 296 l 1,39,-1
 1505 850 l 1,40,-1
 1661 850 l 1,41,-1
 1661 313 l 1,42,-1
 1771 313 l 1,43,-1
 1771 204 l 1,33,-1
1533 724 m 1,44,-1
 1529 724 l 1,45,46
 1517 693 1517 693 1491 651 c 2,47,-1
 1273 313 l 1,48,-1
 1529 313 l 1,49,-1
 1529 636 l 2,50,51
 1529 668 1529 668 1533 724 c 1,44,-1
1464 1434 m 1,52,-1
 606 0 l 1,53,-1
 462 0 l 1,54,-1
 1321 1434 l 1,55,-1
 1464 1434 l 1,52,-1
EndSplineSet
Validated: 1
EndChar

StartChar: onequarter
Encoding: 122 188 95
Width: 1856
GlyphClass: 2
Flags: W
LayerCount: 2
Fore
SplineSet
639 584 m 1,0,-1
 135 584 l 1,1,-1
 135 696 l 1,2,-1
 320 696 l 1,3,-1
 320 1290 l 1,4,-1
 127 1235 l 1,5,-1
 127 1360 l 1,6,-1
 450 1456 l 1,7,-1
 450 696 l 1,8,-1
 639 696 l 1,9,-1
 639 584 l 1,0,-1
1706 204 m 1,10,-1
 1596 204 l 1,11,-1
 1596 0 l 1,12,-1
 1464 0 l 1,13,-1
 1464 204 l 1,14,-1
 1071 204 l 1,15,-1
 1071 296 l 1,16,-1
 1440 850 l 1,17,-1
 1596 850 l 1,18,-1
 1596 313 l 1,19,-1
 1706 313 l 1,20,-1
 1706 204 l 1,10,-1
1468 724 m 1,21,-1
 1464 724 l 1,22,23
 1452 693 1452 693 1426 651 c 2,24,-1
 1208 313 l 1,25,-1
 1464 313 l 1,26,-1
 1464 636 l 2,27,28
 1464 668 1464 668 1468 724 c 1,21,-1
1393 1434 m 1,29,-1
 535 0 l 1,30,-1
 391 0 l 1,31,-1
 1250 1434 l 1,32,-1
 1393 1434 l 1,29,-1
EndSplineSet
Validated: 1
EndChar

StartChar: guillemotright
Encoding: 121 187 96
Width: 1036
GlyphClass: 4
Flags: W
LayerCount: 2
Fore
SplineSet
948 538 m 1,0,-1
 647 200 l 1,1,-1
 482 200 l 1,2,-1
 784 538 l 1,3,-1
 482 880 l 1,4,-1
 647 880 l 1,5,-1
 948 538 l 1,0,-1
559 538 m 1,6,-1
 260 200 l 1,7,-1
 90 200 l 1,8,-1
 398 538 l 1,9,-1
 90 880 l 1,10,-1
 260 880 l 1,11,-1
 559 538 l 1,6,-1
EndSplineSet
Validated: 1
EndChar

StartChar: guillemotleft
Encoding: 107 171 97
Width: 1036
GlyphClass: 2
Flags: W
LayerCount: 2
Fore
SplineSet
946 200 m 1,0,-1
 778 200 l 1,1,-1
 479 536 l 1,2,-1
 778 880 l 1,3,-1
 948 880 l 1,4,-1
 641 536 l 1,5,-1
 946 200 l 1,0,-1
557 200 m 1,6,-1
 391 200 l 1,7,-1
 92 536 l 1,8,-1
 391 880 l 1,9,-1
 557 880 l 1,10,-1
 254 536 l 1,11,-1
 557 200 l 1,6,-1
EndSplineSet
Validated: 1
EndChar

StartChar: copyright
Encoding: 105 169 98
Width: 1823
GlyphClass: 2
Flags: W
LayerCount: 2
Fore
SplineSet
912 -33 m 0,0,1
 601 -33 601 -33 381.5 186.5 c 128,-1,2
 162 406 162 406 162 717 c 256,3,4
 162 1028 162 1028 381.5 1247.5 c 128,-1,5
 601 1467 601 1467 912 1467 c 0,6,7
 1222 1467 1222 1467 1441.5 1247.5 c 128,-1,8
 1661 1028 1661 1028 1661 717 c 256,9,10
 1661 406 1661 406 1441.5 186.5 c 128,-1,11
 1222 -33 1222 -33 912 -33 c 0,0,1
912 1379 m 256,12,13
 638 1379 638 1379 444 1185 c 128,-1,14
 250 991 250 991 250 717 c 256,15,16
 250 443 250 443 444 249.5 c 128,-1,17
 638 56 638 56 912 56 c 256,18,19
 1186 56 1186 56 1379.5 249.5 c 128,-1,20
 1573 443 1573 443 1573 717 c 256,21,22
 1573 991 1573 991 1379.5 1185 c 128,-1,23
 1186 1379 1186 1379 912 1379 c 256,12,13
1213 266 m 1,24,25
 1099 197 1099 197 944 197 c 0,26,27
 735 197 735 197 594 338.5 c 128,-1,28
 453 480 453 480 453 692 c 0,29,30
 453 939 453 939 597.5 1086 c 128,-1,31
 742 1233 742 1233 973 1233 c 0,32,33
 1105 1233 1105 1233 1209 1180 c 1,34,-1
 1209 1030 l 1,35,36
 1114 1102 1114 1102 955 1102 c 0,37,38
 799 1102 799 1102 697.5 995.5 c 128,-1,39
 596 889 596 889 596 709 c 0,40,41
 596 535 596 535 699.5 429.5 c 128,-1,42
 803 324 803 324 963 324 c 0,43,44
 1109 324 1109 324 1213 402 c 1,45,-1
 1213 266 l 1,24,25
EndSplineSet
Validated: 1
EndChar

StartChar: paragraph
Encoding: 117 182 99
Width: 938
GlyphClass: 2
Flags: W
LayerCount: 2
Fore
SplineSet
834 1331 m 1,0,-1
 706 1331 l 1,1,-1
 706 0 l 1,2,-1
 600 0 l 1,3,-1
 600 1331 l 1,4,-1
 442 1331 l 1,5,-1
 442 0 l 1,6,-1
 334 0 l 1,7,-1
 334 903 l 1,8,9
 226 903 226 903 155 979 c 128,-1,10
 84 1055 84 1055 84 1170 c 0,11,12
 84 1287 84 1287 158.5 1360.5 c 128,-1,13
 233 1434 233 1434 340 1434 c 2,14,-1
 834 1434 l 1,15,-1
 834 1331 l 1,0,-1
EndSplineSet
Validated: 1
EndChar

StartChar: exclamdown
Encoding: 97 161 100
Width: 582
GlyphClass: 2
Flags: W
LayerCount: 2
Fore
SplineSet
291 826 m 0,0,1
 245 826 245 826 212.5 858 c 128,-1,2
 180 890 180 890 180 936 c 256,3,4
 180 982 180 982 212.5 1014 c 128,-1,5
 245 1046 245 1046 291 1046 c 0,6,7
 336 1046 336 1046 369 1014 c 128,-1,8
 402 982 402 982 402 936 c 256,9,10
 402 890 402 890 369 858 c 128,-1,11
 336 826 336 826 291 826 c 0,0,1
379 -406 m 1,12,-1
 207 -406 l 1,13,-1
 226 624 l 1,14,-1
 360 624 l 1,15,-1
 379 -406 l 1,12,-1
EndSplineSet
Validated: 1
EndChar

StartChar: questiondown
Encoding: 125 191 101
Width: 918
GlyphClass: 2
Flags: W
LayerCount: 2
Fore
SplineSet
625 630 m 1,0,1
 634 604 634 604 641 562.5 c 128,-1,2
 648 521 648 521 648 480 c 0,3,4
 648 416 648 416 622.5 364.5 c 128,-1,5
 597 313 597 313 559 268 c 128,-1,6
 521 223 521 223 476 181.5 c 128,-1,7
 431 140 431 140 393 97.5 c 128,-1,8
 355 55 355 55 329.5 8.5 c 128,-1,9
 304 -38 304 -38 304 -94 c 0,10,11
 304 -142 304 -142 322.5 -179 c 128,-1,12
 341 -216 341 -216 373 -241 c 128,-1,13
 405 -266 405 -266 447 -278.5 c 128,-1,14
 489 -291 489 -291 536 -291 c 0,15,16
 705 -291 705 -291 829 -158 c 1,17,-1
 829 -334 l 1,18,19
 676 -430 676 -430 512 -430 c 0,20,21
 436 -430 436 -430 369 -410 c 128,-1,22
 302 -390 302 -390 252 -350.5 c 128,-1,23
 202 -311 202 -311 172.5 -252 c 128,-1,24
 143 -193 143 -193 143 -115 c 0,25,26
 143 -41 143 -41 169 17 c 128,-1,27
 195 75 195 75 234.5 123.5 c 128,-1,28
 274 172 274 172 320 214 c 128,-1,29
 366 256 366 256 405.5 297.5 c 128,-1,30
 445 339 445 339 471 384 c 128,-1,31
 497 429 497 429 497 483 c 0,32,33
 497 529 497 529 486 566.5 c 128,-1,34
 475 604 475 604 464 630 c 1,35,-1
 625 630 l 1,0,1
535 1046 m 256,36,37
 579 1046 579 1046 613 1014 c 0,38,39
 646 983 646 983 646 936 c 0,40,41
 646 890 646 890 613 858 c 0,42,43
 580 825 580 825 535 825 c 256,44,45
 490 825 490 825 457 858 c 0,46,47
 424 890 424 890 424 936 c 0,48,49
 424 983 424 983 457 1014 c 0,50,51
 491 1046 491 1046 535 1046 c 256,36,37
EndSplineSet
Validated: 1
EndChar

StartChar: ampersand
Encoding: 8 38 102
Width: 1639
GlyphClass: 2
Flags: W
LayerCount: 2
Fore
SplineSet
1445 -23 m 0,0,1
 1388 -23 1388 -23 1344.5 -7.5 c 128,-1,2
 1301 8 1301 8 1264 36.5 c 128,-1,3
 1227 65 1227 65 1192.5 106 c 128,-1,4
 1158 147 1158 147 1120 199 c 1,5,6
 1080 156 1080 156 1027.5 116 c 128,-1,7
 975 76 975 76 911 45 c 128,-1,8
 847 14 847 14 771 -4.5 c 128,-1,9
 695 -23 695 -23 606 -23 c 0,10,11
 498 -23 498 -23 408 4 c 128,-1,12
 318 31 318 31 254 83.5 c 128,-1,13
 190 136 190 136 154.5 213 c 128,-1,14
 119 290 119 290 119 390 c 0,15,16
 119 543 119 543 206 651.5 c 128,-1,17
 293 760 293 760 452 829 c 1,18,19
 422 851 422 851 392 880.5 c 128,-1,20
 362 910 362 910 338.5 947.5 c 128,-1,21
 315 985 315 985 300.5 1030.5 c 128,-1,22
 286 1076 286 1076 286 1130 c 0,23,24
 286 1209 286 1209 314.5 1270 c 128,-1,25
 343 1331 343 1331 393 1373 c 128,-1,26
 443 1415 443 1415 511 1436.5 c 128,-1,27
 579 1458 579 1458 658 1458 c 0,28,29
 736 1458 736 1458 800.5 1436.5 c 128,-1,30
 865 1415 865 1415 911.5 1375 c 128,-1,31
 958 1335 958 1335 984 1279 c 128,-1,32
 1010 1223 1010 1223 1010 1154 c 0,33,34
 1010 1034 1010 1034 941.5 954.5 c 128,-1,35
 873 875 873 875 736 819 c 1,36,37
 805 792 805 792 861 753 c 128,-1,38
 917 714 917 714 964.5 666 c 128,-1,39
 1012 618 1012 618 1053 563 c 128,-1,40
 1094 508 1094 508 1134 449 c 1,41,42
 1215 562 1215 562 1256 698 c 128,-1,43
 1297 834 1297 834 1297 983 c 0,44,45
 1297 1021 1297 1021 1292.5 1054.5 c 128,-1,46
 1288 1088 1288 1088 1280 1121 c 1,47,-1
 1439 1121 l 1,48,49
 1447 1088 1447 1088 1448.5 1058.5 c 128,-1,50
 1450 1029 1450 1029 1452 988 c 0,51,52
 1452 897 1452 897 1433 805 c 128,-1,53
 1414 713 1414 713 1382 626.5 c 128,-1,54
 1350 540 1350 540 1307.5 462 c 128,-1,55
 1265 384 1265 384 1218 319 c 1,56,57
 1253 271 1253 271 1282 235.5 c 128,-1,58
 1311 200 1311 200 1340.5 176 c 128,-1,59
 1370 152 1370 152 1401.5 140.5 c 128,-1,60
 1433 129 1433 129 1473 129 c 0,61,62
 1503 129 1503 129 1534 137 c 128,-1,63
 1565 145 1565 145 1598 157 c 1,64,-1
 1598 5 l 1,65,66
 1562 -9 1562 -9 1522.5 -16 c 128,-1,67
 1483 -23 1483 -23 1445 -23 c 0,0,1
606 119 m 0,68,69
 682 119 682 119 746 135.5 c 128,-1,70
 810 152 810 152 864 179.5 c 128,-1,71
 918 207 918 207 962 243.5 c 128,-1,72
 1006 280 1006 280 1042 320 c 1,73,74
 981 415 981 415 929.5 482.5 c 128,-1,75
 878 550 878 550 825.5 599 c 128,-1,76
 773 648 773 648 713.5 683 c 128,-1,77
 654 718 654 718 576 748 c 1,78,79
 513 723 513 723 460 692.5 c 128,-1,80
 407 662 407 662 368.5 620.5 c 128,-1,81
 330 579 330 579 308 524 c 128,-1,82
 286 469 286 469 286 395 c 0,83,84
 286 327 286 327 311 275 c 128,-1,85
 336 223 336 223 379.5 188.5 c 128,-1,86
 423 154 423 154 481 136.5 c 128,-1,87
 539 119 539 119 606 119 c 0,68,69
856 1140 m 0,88,89
 856 1190 856 1190 837.5 1225 c 128,-1,90
 819 1260 819 1260 790.5 1283 c 128,-1,91
 762 1306 762 1306 727 1316.5 c 128,-1,92
 692 1327 692 1327 658 1327 c 0,93,94
 560 1327 560 1327 501.5 1274 c 128,-1,95
 443 1221 443 1221 442 1130 c 0,96,97
 442 1089 442 1089 454.5 1053 c 128,-1,98
 467 1017 467 1017 489.5 986 c 128,-1,99
 512 955 512 955 542 931 c 128,-1,100
 572 907 572 907 606 890 c 1,101,102
 732 934 732 934 794 992.5 c 128,-1,103
 856 1051 856 1051 856 1140 c 0,88,89
EndSplineSet
Validated: 1
EndChar

StartChar: logicalnot
Encoding: 108 172 103
Width: 1401
GlyphClass: 4
Flags: W
LayerCount: 2
Fore
SplineSet
1172 254 m 1,0,-1
 1040 254 l 1,1,-1
 1040 684 l 1,2,-1
 232 684 l 1,3,-1
 232 817 l 1,4,-1
 1172 817 l 1,5,-1
 1172 254 l 1,0,-1
EndSplineSet
Validated: 1
EndChar

StartChar: plusminus
Encoding: 112 177 104
Width: 1401
GlyphClass: 2
Flags: W
LayerCount: 2
Fore
SplineSet
1172 652 m 1,0,-1
 768 652 l 1,1,-1
 768 248 l 1,2,-1
 637 248 l 1,3,-1
 637 652 l 1,4,-1
 232 652 l 1,5,-1
 232 784 l 1,6,-1
 637 784 l 1,7,-1
 637 1188 l 1,8,-1
 768 1188 l 1,9,-1
 768 784 l 1,10,-1
 1172 784 l 1,11,-1
 1172 652 l 1,0,-1
1172 0 m 1,12,-1
 232 0 l 1,13,-1
 232 133 l 1,14,-1
 1172 133 l 1,15,-1
 1172 0 l 1,12,-1
EndSplineSet
Validated: 1
EndChar

StartChar: asciitilde
Encoding: 95 126 105
Width: 690
GlyphClass: 4
Flags: W
LayerCount: 2
Fore
SplineSet
676 1458 m 1,0,1
 676 1353 676 1353 628 1286.5 c 128,-1,2
 580 1220 580 1220 498 1220 c 0,3,4
 427 1220 427 1220 336 1272 c 0,5,6
 259 1315 259 1315 217 1315 c 0,7,8
 129 1315 129 1315 129 1202 c 1,9,-1
 35 1202 l 1,10,11
 35 1309 35 1309 83 1373.5 c 128,-1,12
 131 1438 131 1438 217 1438 c 0,13,14
 282 1438 282 1438 366 1386 c 0,15,16
 440 1342 440 1342 494 1342 c 0,17,18
 578 1342 578 1342 578 1458 c 1,19,-1
 676 1458 l 1,0,1
EndSplineSet
Validated: 1
EndChar

StartChar: comma
Encoding: 14 44 106
Width: 444
GlyphClass: 2
Flags: W
LayerCount: 2
Fore
SplineSet
316 228 m 1,0,-1
 156 -264 l 1,1,-1
 39 -264 l 1,2,-1
 156 228 l 1,3,-1
 316 228 l 1,0,-1
EndSplineSet
Validated: 1
EndChar

StartChar: quotedbl
Encoding: 4 34 107
Width: 803
GlyphClass: 2
Flags: W
LayerCount: 2
Fore
SplineSet
323 1434 m 1,0,-1
 293 987 l 1,1,-1
 178 987 l 1,2,-1
 148 1434 l 1,3,-1
 323 1434 l 1,0,-1
655 1434 m 1,4,-1
 625 987 l 1,5,-1
 510 987 l 1,6,-1
 480 1434 l 1,7,-1
 655 1434 l 1,4,-1
EndSplineSet
Validated: 1
EndChar

StartChar: period
Encoding: 15 46 108
Width: 444
GlyphClass: 2
Flags: W
LayerCount: 2
Fore
SplineSet
223 -22 m 0,0,1
 177 -22 177 -22 144.5 11 c 128,-1,2
 112 44 112 44 112 90 c 256,3,4
 112 136 112 136 144.5 169.5 c 128,-1,5
 177 203 177 203 223 203 c 0,6,7
 270 203 270 203 303 169.5 c 128,-1,8
 336 136 336 136 336 90 c 256,9,10
 336 44 336 44 303 11 c 128,-1,11
 270 -22 270 -22 223 -22 c 0,0,1
EndSplineSet
Validated: 1
EndChar

StartChar: ordmasculine
Encoding: 120 186 109
Width: 772
GlyphClass: 4
Flags: W
LayerCount: 2
Fore
SplineSet
385 897 m 256,0,1
 270 897 270 897 189 978.5 c 128,-1,2
 108 1060 108 1060 108 1176 c 0,3,4
 108 1291 108 1291 188 1370.5 c 128,-1,5
 268 1450 268 1450 383 1450 c 0,6,7
 499 1450 499 1450 580.5 1370 c 128,-1,8
 662 1290 662 1290 662 1176 c 0,9,10
 662 1060 662 1060 581 978.5 c 128,-1,11
 500 897 500 897 385 897 c 256,0,1
385 1333 m 256,12,13
 320 1333 320 1333 274 1287 c 128,-1,14
 228 1241 228 1241 228 1176 c 0,15,16
 228 1109 228 1109 273 1061.5 c 128,-1,17
 318 1014 318 1014 383 1014 c 256,18,19
 448 1014 448 1014 495 1062 c 128,-1,20
 542 1110 542 1110 542 1176 c 256,21,22
 542 1242 542 1242 496 1287.5 c 128,-1,23
 450 1333 450 1333 385 1333 c 256,12,13
EndSplineSet
Validated: 1
EndChar

StartChar: underscore
Encoding: 64 95 110
Width: 850
GlyphClass: 2
Flags: W
LayerCount: 2
Fore
SplineSet
850 -297 m 1,0,-1
 0 -297 l 1,1,-1
 0 -178 l 1,2,-1
 850 -178 l 1,3,-1
 850 -297 l 1,0,-1
EndSplineSet
Validated: 1
EndChar

StartChar: grave
Encoding: 65 96 111
Width: 549
GlyphClass: 4
Flags: W
LayerCount: 2
Fore
SplineSet
471 1218 m 1,0,-1
 344 1218 l 1,1,-1
 82 1546 l 1,2,-1
 250 1546 l 1,3,-1
 471 1218 l 1,0,-1
EndSplineSet
Validated: 1
EndChar

StartChar: degree
Encoding: 111 176 112
Width: 772
GlyphClass: 4
Flags: W
LayerCount: 2
Fore
SplineSet
385 897 m 256,0,1
 270 897 270 897 189 978.5 c 128,-1,2
 108 1060 108 1060 108 1176 c 0,3,4
 108 1291 108 1291 188 1370.5 c 128,-1,5
 268 1450 268 1450 383 1450 c 0,6,7
 499 1450 499 1450 580.5 1370 c 128,-1,8
 662 1290 662 1290 662 1176 c 0,9,10
 662 1060 662 1060 581 978.5 c 128,-1,11
 500 897 500 897 385 897 c 256,0,1
385 1333 m 256,12,13
 320 1333 320 1333 274 1287 c 128,-1,14
 228 1241 228 1241 228 1176 c 0,15,16
 228 1109 228 1109 273 1061.5 c 128,-1,17
 318 1014 318 1014 383 1014 c 256,18,19
 448 1014 448 1014 495 1062 c 128,-1,20
 542 1110 542 1110 542 1176 c 256,21,22
 542 1242 542 1242 496 1287.5 c 128,-1,23
 450 1333 450 1333 385 1333 c 256,12,13
EndSplineSet
Validated: 1
EndChar

StartChar: macron
Encoding: 110 175 113
Width: 635
GlyphClass: 4
Flags: W
LayerCount: 2
Fore
SplineSet
570 1218 m 1,0,-1
 62 1218 l 1,1,-1
 62 1327 l 1,2,-1
 570 1327 l 1,3,-1
 570 1218 l 1,0,-1
EndSplineSet
Validated: 1
EndChar

StartChar: brokenbar
Encoding: 102 166 114
Width: 490
GlyphClass: 2
Flags: W
LayerCount: 2
Fore
SplineSet
320 715 m 1,0,-1
 172 715 l 1,1,-1
 172 1566 l 1,2,-1
 320 1566 l 1,3,-1
 320 715 l 1,0,-1
320 -482 m 1,4,-1
 172 -482 l 1,5,-1
 172 370 l 1,6,-1
 320 370 l 1,7,-1
 320 -482 l 1,4,-1
EndSplineSet
Validated: 1
EndChar

StartChar: dieresis
Encoding: 104 168 115
Width: 848
GlyphClass: 4
Flags: W
LayerCount: 2
Fore
SplineSet
610 1218 m 0,0,1
 570 1218 570 1218 541 1246 c 128,-1,2
 512 1274 512 1274 512 1317 c 0,3,4
 512 1359 512 1359 540 1387 c 128,-1,5
 568 1415 568 1415 608 1415 c 0,6,7
 650 1415 650 1415 679 1386.5 c 128,-1,8
 708 1358 708 1358 708 1317 c 256,9,10
 708 1276 708 1276 680 1247 c 128,-1,11
 652 1218 652 1218 610 1218 c 0,0,1
226 1218 m 0,12,13
 184 1218 184 1218 154.5 1247.5 c 128,-1,14
 125 1277 125 1277 125 1317 c 0,15,16
 125 1359 125 1359 153.5 1387 c 128,-1,17
 182 1415 182 1415 223 1415 c 256,18,19
 264 1415 264 1415 294 1386.5 c 128,-1,20
 324 1358 324 1358 324 1317 c 256,21,22
 324 1276 324 1276 295 1247 c 128,-1,23
 266 1218 266 1218 226 1218 c 0,12,13
EndSplineSet
Validated: 1
EndChar

StartChar: cedilla
Encoding: 118 184 116
Width: 420
GlyphClass: 4
Flags: W
LayerCount: 2
Fore
SplineSet
391 -256 m 0,0,1
 391 -432 391 -432 116 -432 c 0,2,3
 78 -432 78 -432 51 -430 c 1,4,-1
 51 -340 l 1,5,6
 94 -346 94 -346 121 -346 c 0,7,8
 262 -346 262 -346 262 -256 c 0,9,10
 262 -178 262 -178 133 -178 c 0,11,12
 123 -178 123 -178 92 -182 c 1,13,-1
 92 0 l 1,14,-1
 200 0 l 1,15,-1
 200 -104 l 1,16,17
 288 -104 288 -104 339.5 -144 c 128,-1,18
 391 -184 391 -184 391 -256 c 0,0,1
EndSplineSet
Validated: 1
EndChar

StartChar: ordfeminine
Encoding: 106 170 117
Width: 803
GlyphClass: 4
Flags: W
LayerCount: 2
Fore
SplineSet
688 717 m 1,0,-1
 559 717 l 1,1,-1
 559 817 l 1,2,-1
 555 817 l 1,3,4
 476 698 476 698 324 698 c 0,5,6
 215 698 215 698 148.5 757.5 c 128,-1,7
 82 817 82 817 82 910 c 0,8,9
 82 1112 82 1112 330 1145 c 2,10,-1
 559 1176 l 1,11,12
 559 1344 559 1344 408 1344 c 0,13,14
 272 1344 272 1344 154 1258 c 1,15,-1
 154 1386 l 1,16,17
 265 1456 265 1456 420 1456 c 0,18,19
 546 1456 546 1456 617 1384 c 128,-1,20
 688 1312 688 1312 688 1182 c 2,21,-1
 688 717 l 1,0,-1
559 1075 m 1,22,-1
 379 1050 l 2,23,24
 211 1027 211 1027 211 916 c 0,25,26
 211 865 211 865 249.5 833 c 128,-1,27
 288 801 288 801 352 801 c 0,28,29
 434 801 434 801 496.5 862 c 128,-1,30
 559 923 559 923 559 1008 c 2,31,-1
 559 1075 l 1,22,-1
EndSplineSet
Validated: 1
EndChar

StartChar: uni00B2
Encoding: 113 178 118
Width: 750
GlyphClass: 4
Flags: W
LayerCount: 2
Fore
SplineSet
658 884 m 1,0,-1
 104 884 l 1,1,-1
 104 998 l 1,2,-1
 344 1234 l 2,3,4
 448 1336 448 1336 476 1390.5 c 128,-1,5
 504 1445 504 1445 504 1500 c 0,6,7
 504 1558 504 1558 466 1594.5 c 128,-1,8
 428 1631 428 1631 366 1631 c 0,9,10
 248 1631 248 1631 150 1529 c 1,11,-1
 150 1678 l 1,12,13
 234 1754 234 1754 385 1754 c 0,14,15
 503 1754 503 1754 572 1688 c 128,-1,16
 641 1622 641 1622 641 1514 c 0,17,18
 641 1361 641 1361 436 1166 c 2,19,-1
 272 1010 l 1,20,-1
 272 1006 l 1,21,-1
 658 1006 l 1,22,-1
 658 884 l 1,0,-1
EndSplineSet
Validated: 1
EndChar

StartChar: uni00B3
Encoding: 114 179 119
Width: 750
GlyphClass: 2
Flags: W
LayerCount: 2
Fore
SplineSet
129 916 m 1,0,-1
 129 1058 l 1,1,2
 232 982 232 982 346 982 c 0,3,4
 426 982 426 982 472 1019.5 c 128,-1,5
 518 1057 518 1057 518 1121 c 0,6,7
 518 1262 518 1262 299 1262 c 2,8,-1
 215 1262 l 1,9,-1
 215 1380 l 1,10,-1
 295 1380 l 2,11,12
 492 1380 492 1380 492 1514 c 0,13,14
 492 1633 492 1633 348 1633 c 0,15,16
 254 1633 254 1633 162 1564 c 1,17,-1
 162 1703 l 1,18,19
 249 1754 249 1754 375 1754 c 0,20,21
 488 1754 488 1754 555 1694.5 c 128,-1,22
 622 1635 622 1635 622 1539 c 0,23,24
 622 1388 622 1388 477 1334 c 1,25,-1
 477 1330 l 1,26,27
 654 1288 654 1288 654 1128 c 0,28,29
 654 1011 654 1011 569 937 c 128,-1,30
 484 863 484 863 342 863 c 0,31,32
 205 863 205 863 129 916 c 1,0,-1
EndSplineSet
Validated: 1
EndChar

StartChar: acute
Encoding: 115 180 120
Width: 578
GlyphClass: 4
Flags: W
LayerCount: 2
Fore
SplineSet
524 1546 m 1,0,-1
 262 1218 l 1,1,-1
 135 1218 l 1,2,-1
 358 1546 l 1,3,-1
 524 1546 l 1,0,-1
EndSplineSet
Validated: 1
EndChar

StartChar: uni00B9
Encoding: 119 185 121
Width: 719
GlyphClass: 4
Flags: W
LayerCount: 2
Fore
SplineSet
639 884 m 1,0,-1
 135 884 l 1,1,-1
 135 996 l 1,2,-1
 320 996 l 1,3,-1
 320 1590 l 1,4,-1
 127 1535 l 1,5,-1
 127 1660 l 1,6,-1
 450 1756 l 1,7,-1
 450 996 l 1,8,-1
 639 996 l 1,9,-1
 639 884 l 1,0,-1
EndSplineSet
Validated: 1
EndChar

StartChar: quotesingle
Encoding: 9 39 122
Width: 471
GlyphClass: 4
Flags: W
LayerCount: 2
Fore
SplineSet
323 1434 m 1,0,-1
 293 987 l 1,1,-1
 178 987 l 1,2,-1
 148 1434 l 1,3,-1
 323 1434 l 1,0,-1
EndSplineSet
Validated: 1
EndChar

StartChar: Atilde
Encoding: 129 195 126
Width: 1321
GlyphClass: 2
Flags: W
LayerCount: 2
Fore
SplineSet
977 1803 m 5,0,1
 977 1698 977 1698 929 1631.5 c 4,2,3
 881 1565 881 1565 799 1565 c 4,4,5
 728 1565 728 1565 637 1617 c 4,6,7
 560 1660 560 1660 518 1660 c 4,8,9
 430 1660 430 1660 430 1547 c 5,10,-1
 336 1547 l 5,11,12
 336 1654 336 1654 384 1718.5 c 4,13,14
 432 1783 432 1783 518 1783 c 4,15,16
 583 1783 583 1783 667 1731 c 4,17,18
 741 1687 741 1687 795 1687 c 4,19,20
 879 1687 879 1687 879 1803 c 5,21,-1
 977 1803 l 5,0,1
EndSplineSet
Refer: 2 65 N 1 0 0 1 0 0 3
Validated: 1
EndChar

StartChar: Aring
Encoding: 131 197 128
Width: 1321
GlyphClass: 2
Flags: W
LayerCount: 2
Fore
SplineSet
1298 0 m 1,0,-1
 1112 0 l 1,1,-1
 960 402 l 1,2,-1
 352 402 l 1,3,-1
 209 0 l 1,4,-1
 22 0 l 1,5,-1
 551 1378 l 1,6,7
 450 1430 450 1430 450 1542 c 0,8,9
 450 1631 450 1631 510 1686 c 128,-1,10
 570 1741 570 1741 662 1741 c 0,11,12
 750 1741 750 1741 806 1686.5 c 128,-1,13
 862 1632 862 1632 862 1548 c 0,14,15
 862 1436 862 1436 766 1382 c 1,16,-1
 1298 0 l 1,0,-1
656 1659 m 0,17,18
 606 1659 606 1659 574 1627.5 c 128,-1,19
 542 1596 542 1596 542 1548 c 0,20,21
 542 1434 542 1434 656 1434 c 0,22,23
 704 1434 704 1434 737 1467 c 128,-1,24
 770 1500 770 1500 770 1548 c 0,25,26
 770 1597 770 1597 737 1628 c 128,-1,27
 704 1659 704 1659 656 1659 c 0,17,18
905 553 m 1,28,-1
 680 1164 l 2,29,30
 669 1194 669 1194 658 1260 c 1,31,-1
 654 1260 l 1,32,33
 644 1199 644 1199 631 1164 c 2,34,-1
 408 553 l 1,35,-1
 905 553 l 1,28,-1
EndSplineSet
Validated: 1
EndChar

StartChar: AE
Encoding: 132 198 129
Width: 1762
GlyphClass: 2
Flags: W
LayerCount: 2
Fore
SplineSet
1667 0 m 1,0,-1
 908 0 l 1,1,-1
 908 402 l 1,2,-1
 398 402 l 1,3,-1
 205 0 l 1,4,-1
 10 0 l 1,5,-1
 710 1434 l 1,6,-1
 1634 1434 l 1,7,-1
 1634 1282 l 1,8,-1
 1075 1282 l 1,9,-1
 1075 805 l 1,10,-1
 1594 805 l 1,11,-1
 1594 654 l 1,12,-1
 1075 654 l 1,13,-1
 1075 152 l 1,14,-1
 1667 152 l 1,15,-1
 1667 0 l 1,0,-1
908 553 m 1,16,-1
 908 1282 l 1,17,-1
 813 1282 l 1,18,-1
 467 553 l 1,19,-1
 908 553 l 1,16,-1
EndSplineSet
Validated: 1
EndChar

StartChar: Ecircumflex
Encoding: 136 202 133
Width: 1036
GlyphClass: 2
Flags: W
LayerCount: 2
Fore
SplineSet
827 1567 m 5,0,-1
 705 1567 l 5,1,-1
 541 1797 l 5,2,-1
 376 1567 l 5,3,-1
 263 1567 l 5,4,-1
 478 1899 l 5,5,-1
 611 1899 l 5,6,-1
 827 1567 l 5,0,-1
EndSplineSet
Refer: 6 69 N 1 0 0 1 0 0 3
Validated: 1
EndChar

StartChar: Icircumflex
Encoding: 140 206 137
Width: 545
GlyphClass: 2
Flags: W
LayerCount: 2
Fore
SplineSet
562 1567 m 5,0,-1
 440 1567 l 5,1,-1
 276 1797 l 5,2,-1
 111 1567 l 5,3,-1
 -2 1567 l 5,4,-1
 213 1899 l 5,5,-1
 346 1899 l 5,6,-1
 562 1567 l 5,0,-1
EndSplineSet
Refer: 10 73 N 1 0 0 1 0 0 3
Validated: 1
EndChar

StartChar: Ntilde
Encoding: 143 209 139
Width: 1532
GlyphClass: 2
Flags: W
LayerCount: 2
Fore
SplineSet
1113 1803 m 5,0,1
 1113 1698 1113 1698 1065 1631.5 c 4,2,3
 1017 1565 1017 1565 935 1565 c 4,4,5
 864 1565 864 1565 773 1617 c 4,6,7
 696 1660 696 1660 654 1660 c 4,8,9
 566 1660 566 1660 566 1547 c 5,10,-1
 472 1547 l 5,11,12
 472 1654 472 1654 520 1718.5 c 4,13,14
 568 1783 568 1783 654 1783 c 4,15,16
 719 1783 719 1783 803 1731 c 4,17,18
 877 1687 877 1687 931 1687 c 4,19,20
 1015 1687 1015 1687 1015 1803 c 5,21,-1
 1113 1803 l 5,0,1
EndSplineSet
Refer: 15 78 N 1 0 0 1 0 0 3
Validated: 1
EndChar

StartChar: Eth
Encoding: 142 208 140
Width: 1436
GlyphClass: 2
Flags: W
LayerCount: 2
Fore
SplineSet
188 0 m 1,0,-1
 188 641 l 1,1,-1
 28 641 l 1,2,-1
 28 796 l 1,3,-1
 188 796 l 1,4,-1
 188 1434 l 1,5,-1
 584 1434 l 2,6,7
 1342 1434 1342 1434 1342 735 c 0,8,9
 1342 401 1342 401 1131.5 200.5 c 128,-1,10
 921 0 921 0 568 0 c 2,11,-1
 188 0 l 1,0,-1
356 1282 m 1,12,-1
 356 796 l 1,13,-1
 692 796 l 1,14,-1
 692 641 l 1,15,-1
 356 641 l 1,16,-1
 356 152 l 1,17,-1
 570 152 l 2,18,19
 852 152 852 152 1009 303 c 128,-1,20
 1166 454 1166 454 1166 731 c 0,21,22
 1166 1282 1166 1282 580 1282 c 2,23,-1
 356 1282 l 1,12,-1
EndSplineSet
Validated: 1
EndChar

StartChar: Ocircumflex
Encoding: 146 212 143
Width: 1544
GlyphClass: 2
Flags: W
LayerCount: 2
Fore
SplineSet
1063 1566 m 5,0,-1
 941 1566 l 5,1,-1
 777 1796 l 5,2,-1
 612 1566 l 5,3,-1
 499 1566 l 5,4,-1
 714 1898 l 5,5,-1
 847 1898 l 5,6,-1
 1063 1566 l 5,0,-1
EndSplineSet
Refer: 16 79 N 1 0 0 1 0 0 3
Validated: 1
EndChar

StartChar: Otilde
Encoding: 147 213 144
Width: 1544
GlyphClass: 2
Flags: W
LayerCount: 2
Fore
SplineSet
1103 1802 m 5,0,1
 1103 1697 1103 1697 1055 1630.5 c 4,2,3
 1007 1564 1007 1564 925 1564 c 4,4,5
 854 1564 854 1564 763 1616 c 4,6,7
 686 1659 686 1659 644 1659 c 4,8,9
 556 1659 556 1659 556 1546 c 5,10,-1
 462 1546 l 5,11,12
 462 1653 462 1653 510 1717.5 c 4,13,14
 558 1782 558 1782 644 1782 c 4,15,16
 709 1782 709 1782 793 1730 c 4,17,18
 867 1686 867 1686 921 1686 c 4,19,20
 1005 1686 1005 1686 1005 1802 c 5,21,-1
 1103 1802 l 5,0,1
EndSplineSet
Refer: 16 79 N 1 0 0 1 0 0 3
Validated: 1
EndChar

StartChar: multiply
Encoding: 149 215 146
Width: 1401
GlyphClass: 2
Flags: W
LayerCount: 2
Fore
SplineSet
1134 258 m 1,0,-1
 1040 164 l 1,1,-1
 700 504 l 1,2,-1
 362 164 l 1,3,-1
 268 258 l 1,4,-1
 608 596 l 1,5,-1
 268 936 l 1,6,-1
 362 1030 l 1,7,-1
 700 690 l 1,8,-1
 1040 1030 l 1,9,-1
 1134 936 l 1,10,-1
 794 596 l 1,11,-1
 1134 258 l 1,0,-1
EndSplineSet
Validated: 1
EndChar

StartChar: Ucircumflex
Encoding: 153 219 149
Width: 1407
GlyphClass: 2
Flags: W
LayerCount: 2
Fore
SplineSet
987 1567 m 5,0,-1
 865 1567 l 5,1,-1
 701 1797 l 5,2,-1
 536 1567 l 5,3,-1
 423 1567 l 5,4,-1
 638 1899 l 5,5,-1
 771 1899 l 5,6,-1
 987 1567 l 5,0,-1
EndSplineSet
Refer: 22 85 N 1 0 0 1 0 0 3
Validated: 1
EndChar

StartChar: acircumflex
Encoding: 158 226 153
Width: 1042
GlyphClass: 2
Flags: W
LayerCount: 2
Fore
SplineSet
806 1218 m 5,0,-1
 684 1218 l 5,1,-1
 520 1448 l 5,2,-1
 355 1218 l 5,3,-1
 242 1218 l 5,4,-1
 457 1550 l 5,5,-1
 590 1550 l 5,6,-1
 806 1218 l 5,0,-1
EndSplineSet
Refer: 38 97 N 1 0 0 1 0 0 3
Validated: 1
EndChar

StartChar: atilde
Encoding: 159 227 154
Width: 1042
GlyphClass: 2
Flags: W
LayerCount: 2
Fore
SplineSet
844 1458 m 5,0,1
 844 1353 844 1353 796 1286.5 c 4,2,3
 748 1220 748 1220 666 1220 c 4,4,5
 595 1220 595 1220 504 1272 c 4,6,7
 427 1315 427 1315 385 1315 c 4,8,9
 297 1315 297 1315 297 1202 c 5,10,-1
 203 1202 l 5,11,12
 203 1309 203 1309 251 1373.5 c 4,13,14
 299 1438 299 1438 385 1438 c 4,15,16
 450 1438 450 1438 534 1386 c 4,17,18
 608 1342 608 1342 662 1342 c 4,19,20
 746 1342 746 1342 746 1458 c 5,21,-1
 844 1458 l 5,0,1
EndSplineSet
Refer: 38 97 N 1 0 0 1 0 0 3
Validated: 1
EndChar

StartChar: aring
Encoding: 161 229 156
Width: 1042
GlyphClass: 2
Flags: W
LayerCount: 2
Fore
SplineSet
517 1176 m 4,0,1
 430 1176 430 1176 372.5 1228.5 c 4,2,3
 315 1281 315 1281 315 1366 c 4,4,5
 315 1456 315 1456 374 1510 c 4,6,7
 433 1564 433 1564 524 1564 c 4,8,9
 613 1564 613 1564 670 1510 c 4,10,11
 727 1456 727 1456 727 1372 c 260,12,13
 727 1288 727 1288 666 1232 c 4,14,15
 605 1176 605 1176 517 1176 c 4,0,1
517 1483 m 4,16,17
 469 1483 469 1483 437 1450.5 c 4,18,19
 405 1418 405 1418 405 1370 c 4,20,21
 405 1258 405 1258 517 1258 c 4,22,23
 567 1258 567 1258 600 1290 c 4,24,25
 633 1322 633 1322 633 1370 c 4,26,27
 633 1419 633 1419 600 1451 c 4,28,29
 567 1483 567 1483 517 1483 c 4,16,17
EndSplineSet
Refer: 38 97 N 1 0 0 1 0 0 3
Validated: 1
EndChar

StartChar: ae
Encoding: 162 230 157
Width: 1704
GlyphClass: 2
Flags: W
LayerCount: 2
Fore
SplineSet
1622 471 m 1,0,-1
 897 471 l 1,1,2
 900 300 900 300 988 207 c 128,-1,3
 1076 114 1076 114 1229 114 c 0,4,5
 1406 114 1406 114 1550 228 c 1,6,-1
 1550 74 l 1,7,8
 1418 -24 1418 -24 1192 -24 c 0,9,10
 922 -24 922 -24 809 205 c 1,11,-1
 805 205 l 1,12,13
 660 -24 660 -24 418 -24 c 0,14,15
 265 -24 265 -24 177.5 56.5 c 128,-1,16
 90 137 90 137 90 272 c 0,17,18
 90 572 90 572 473 596 c 2,19,-1
 735 612 l 1,20,21
 735 910 735 910 520 910 c 0,22,23
 345 910 345 910 190 788 c 1,24,-1
 190 952 l 1,25,26
 338 1048 338 1048 538 1048 c 0,27,28
 770 1048 770 1048 838 848 c 1,29,-1
 842 848 l 1,30,31
 958 1048 958 1048 1198 1048 c 0,32,33
 1400 1048 1400 1048 1511 917.5 c 128,-1,34
 1622 787 1622 787 1622 555 c 2,35,-1
 1622 471 l 1,0,-1
1454 610 m 1,36,37
 1452 754 1452 754 1385.5 832 c 128,-1,38
 1319 910 1319 910 1200 910 c 0,39,40
 1084 910 1084 910 1001 828 c 128,-1,41
 918 746 918 746 899 610 c 1,42,-1
 1454 610 l 1,36,37
735 410 m 2,43,-1
 735 473 l 1,44,-1
 532 461 l 2,45,46
 393 453 393 453 324.5 412 c 128,-1,47
 256 371 256 371 256 276 c 0,48,49
 256 203 256 203 309 158.5 c 128,-1,50
 362 114 362 114 452 114 c 0,51,52
 571 114 571 114 653 198.5 c 128,-1,53
 735 283 735 283 735 410 c 2,43,-1
EndSplineSet
Validated: 1
EndChar

StartChar: ecircumflex
Encoding: 166 234 161
Width: 1071
GlyphClass: 2
Flags: W
LayerCount: 2
Fore
SplineSet
840 1218 m 5,0,-1
 718 1218 l 5,1,-1
 554 1448 l 5,2,-1
 389 1218 l 5,3,-1
 276 1218 l 5,4,-1
 491 1550 l 5,5,-1
 624 1550 l 5,6,-1
 840 1218 l 5,0,-1
EndSplineSet
Refer: 42 101 N 1 0 0 1 0 0 3
Validated: 1
EndChar

StartChar: igrave
Encoding: 168 236 163
Width: 496
GlyphClass: 2
Flags: W
LayerCount: 2
Fore
SplineSet
330 0 m 5,0,-1
 166 0 l 5,1,-1
 166 1024 l 5,2,-1
 330 1024 l 5,3,-1
 330 0 l 5,0,-1
EndSplineSet
Refer: 111 96 N 1 0 0 1 -101 0 2
Validated: 1
EndChar

StartChar: iacute
Encoding: 169 237 164
Width: 496
GlyphClass: 2
Flags: W
LayerCount: 2
Fore
SplineSet
330 0 m 5,0,-1
 166 0 l 5,1,-1
 166 1024 l 5,2,-1
 330 1024 l 5,3,-1
 330 0 l 5,0,-1
EndSplineSet
Refer: 120 180 N 1 0 0 1 -46 0 2
Validated: 1
EndChar

StartChar: icircumflex
Encoding: 170 238 165
Width: 496
GlyphClass: 2
Flags: W
LayerCount: 2
Fore
SplineSet
520 1218 m 5,0,-1
 398 1218 l 5,1,-1
 234 1448 l 5,2,-1
 69 1218 l 5,3,-1
 -44 1218 l 5,4,-1
 171 1550 l 5,5,-1
 304 1550 l 5,6,-1
 520 1218 l 5,0,-1
330 0 m 5,7,-1
 166 0 l 5,8,-1
 166 1024 l 5,9,-1
 330 1024 l 5,10,-1
 330 0 l 5,7,-1
EndSplineSet
Validated: 1
EndChar

StartChar: idieresis
Encoding: 171 239 166
Width: 496
GlyphClass: 2
Flags: W
LayerCount: 2
Fore
SplineSet
330 0 m 5,0,-1
 166 0 l 5,1,-1
 166 1024 l 5,2,-1
 330 1024 l 5,3,-1
 330 0 l 5,0,-1
EndSplineSet
Refer: 115 168 N 1 0 0 1 -179 0 2
Validated: 1
EndChar

StartChar: ntilde
Encoding: 173 241 167
Width: 1159
GlyphClass: 2
Flags: W
LayerCount: 2
Fore
SplineSet
908 1458 m 5,0,1
 908 1353 908 1353 860 1286.5 c 4,2,3
 812 1220 812 1220 730 1220 c 4,4,5
 659 1220 659 1220 568 1272 c 4,6,7
 491 1315 491 1315 449 1315 c 4,8,9
 361 1315 361 1315 361 1202 c 5,10,-1
 267 1202 l 5,11,12
 267 1309 267 1309 315 1373.5 c 4,13,14
 363 1438 363 1438 449 1438 c 4,15,16
 514 1438 514 1438 598 1386 c 4,17,18
 672 1342 672 1342 726 1342 c 4,19,20
 810 1342 810 1342 810 1458 c 5,21,-1
 908 1458 l 5,0,1
EndSplineSet
Refer: 51 110 N 1 0 0 1 0 0 3
Validated: 1
EndChar

StartChar: ocircumflex
Encoding: 176 244 170
Width: 1200
GlyphClass: 2
Flags: W
LayerCount: 2
Fore
SplineSet
885 1218 m 5,0,-1
 763 1218 l 5,1,-1
 599 1448 l 5,2,-1
 434 1218 l 5,3,-1
 321 1218 l 5,4,-1
 536 1550 l 5,5,-1
 669 1550 l 5,6,-1
 885 1218 l 5,0,-1
EndSplineSet
Refer: 52 111 N 1 0 0 1 0 0 3
Validated: 1
EndChar

StartChar: otilde
Encoding: 177 245 171
Width: 1200
GlyphClass: 2
Flags: W
LayerCount: 2
Fore
SplineSet
931 1458 m 5,0,1
 931 1353 931 1353 883 1286.5 c 4,2,3
 835 1220 835 1220 753 1220 c 4,4,5
 682 1220 682 1220 591 1272 c 4,6,7
 514 1315 514 1315 472 1315 c 4,8,9
 384 1315 384 1315 384 1202 c 5,10,-1
 290 1202 l 5,11,12
 290 1309 290 1309 338 1373.5 c 4,13,14
 386 1438 386 1438 472 1438 c 4,15,16
 537 1438 537 1438 621 1386 c 4,17,18
 695 1342 695 1342 749 1342 c 4,19,20
 833 1342 833 1342 833 1458 c 5,21,-1
 931 1458 l 5,0,1
EndSplineSet
Refer: 52 111 N 1 0 0 1 0 0 3
Validated: 1
EndChar

StartChar: divide
Encoding: 179 247 173
Width: 1401
GlyphClass: 2
Flags: W
LayerCount: 2
Fore
SplineSet
708 868 m 0,0,1
 664 868 664 868 634 898.5 c 128,-1,2
 604 929 604 929 604 973 c 0,3,4
 604 1018 604 1018 633 1050 c 128,-1,5
 662 1082 662 1082 708 1082 c 0,6,7
 811 1082 811 1082 811 975 c 0,8,9
 811 928 811 928 780.5 898 c 128,-1,10
 750 868 750 868 708 868 c 0,0,1
1172 530 m 1,11,-1
 232 530 l 1,12,-1
 232 664 l 1,13,-1
 1172 664 l 1,14,-1
 1172 530 l 1,11,-1
704 112 m 0,15,16
 660 112 660 112 629 142 c 128,-1,17
 598 172 598 172 598 215 c 0,18,19
 598 260 598 260 628 293 c 128,-1,20
 658 326 658 326 704 326 c 0,21,22
 805 326 805 326 805 217 c 0,23,24
 805 172 805 172 776 142 c 128,-1,25
 747 112 747 112 704 112 c 0,15,16
EndSplineSet
Validated: 1
EndChar

StartChar: ucircumflex
Encoding: 183 251 176
Width: 1159
GlyphClass: 2
Flags: W
LayerCount: 2
Fore
SplineSet
854 1218 m 5,0,-1
 732 1218 l 5,1,-1
 568 1448 l 5,2,-1
 403 1218 l 5,3,-1
 290 1218 l 5,4,-1
 505 1550 l 5,5,-1
 638 1550 l 5,6,-1
 854 1218 l 5,0,-1
EndSplineSet
Refer: 58 117 N 1 0 0 1 0 0 3
Validated: 1
EndChar

StartChar: eth
Encoding: 172 240 180
Width: 1145
GlyphClass: 2
Flags: W
LayerCount: 2
Fore
SplineSet
786 968 m 1,0,-1
 790 971 l 1,1,2
 700 1133 700 1133 592 1237 c 1,3,-1
 293 1086 l 1,4,-1
 242 1184 l 1,5,-1
 512 1315 l 1,6,7
 394 1420 394 1420 248 1516 c 1,8,-1
 469 1516 l 1,9,10
 544 1464 544 1464 641 1380 c 1,11,-1
 930 1524 l 1,12,-1
 985 1430 l 1,13,-1
 721 1300 l 1,14,15
 1048 993 1048 993 1048 526 c 0,16,17
 1048 286 1048 286 919 132 c 128,-1,18
 790 -22 790 -22 568 -22 c 256,19,20
 346 -22 346 -22 221 118 c 128,-1,21
 96 258 96 258 96 500 c 0,22,23
 96 743 96 743 226 894.5 c 128,-1,24
 356 1046 356 1046 576 1046 c 0,25,26
 699 1046 699 1046 786 968 c 1,0,-1
582 910 m 0,27,28
 434 910 434 910 349 801.5 c 128,-1,29
 264 693 264 693 264 506 c 0,30,31
 264 325 264 325 347 219.5 c 128,-1,32
 430 114 430 114 578 114 c 0,33,34
 717 114 717 114 798.5 222 c 128,-1,35
 880 330 880 330 880 510 c 0,36,37
 880 910 880 910 582 910 c 0,27,28
EndSplineSet
Validated: 1
EndChar

StartChar: thorn
Encoding: 186 254 181
Width: 1204
GlyphClass: 2
Flags: W
LayerCount: 2
Fore
SplineSet
334 148 m 1,0,-1
 330 148 l 1,1,-1
 330 -471 l 1,2,-1
 166 -471 l 1,3,-1
 166 1516 l 1,4,-1
 330 1516 l 1,5,-1
 330 844 l 1,6,-1
 334 844 l 1,7,8
 455 1048 455 1048 688 1048 c 0,9,10
 886 1048 886 1048 997 910.5 c 128,-1,11
 1108 773 1108 773 1108 542 c 0,12,13
 1108 285 1108 285 983 130.5 c 128,-1,14
 858 -24 858 -24 641 -24 c 0,15,16
 442 -24 442 -24 334 148 c 1,0,-1
330 561 m 2,17,-1
 330 418 l 2,18,19
 330 291 330 291 412.5 202.5 c 128,-1,20
 495 114 495 114 622 114 c 0,21,22
 771 114 771 114 855.5 228 c 128,-1,23
 940 342 940 342 940 545 c 0,24,25
 940 716 940 716 861 813 c 128,-1,26
 782 910 782 910 647 910 c 0,27,28
 504 910 504 910 417 810.5 c 128,-1,29
 330 711 330 711 330 561 c 2,17,-1
EndSplineSet
Validated: 1
EndChar

StartChar: germandbls
Encoding: 155 223 182
Width: 1114
GlyphClass: 2
Flags: W
LayerCount: 2
Fore
SplineSet
461 2 m 1,0,-1
 461 162 l 1,1,2
 536 114 536 114 631 114 c 0,3,4
 740 114 740 114 808 187.5 c 128,-1,5
 876 261 876 261 876 385 c 0,6,7
 876 535 876 535 776 628.5 c 128,-1,8
 676 722 676 722 498 742 c 1,9,-1
 498 872 l 1,10,11
 616 892 616 892 692 975 c 128,-1,12
 768 1058 768 1058 768 1172 c 0,13,14
 768 1280 768 1280 713 1339.5 c 128,-1,15
 658 1399 658 1399 561 1399 c 0,16,17
 330 1399 330 1399 330 1090 c 2,18,-1
 330 0 l 1,19,-1
 166 0 l 1,20,-1
 166 1114 l 2,21,22
 166 1306 166 1306 276 1422 c 128,-1,23
 386 1538 386 1538 572 1538 c 0,24,25
 738 1538 738 1538 837 1443 c 128,-1,26
 936 1348 936 1348 936 1192 c 0,27,28
 936 1065 936 1065 861 964 c 128,-1,29
 786 863 786 863 666 824 c 1,30,-1
 666 819 l 1,31,32
 1044 744 1044 744 1044 393 c 0,33,34
 1044 216 1044 216 933 96 c 128,-1,35
 822 -24 822 -24 639 -24 c 0,36,37
 538 -24 538 -24 461 2 c 1,0,-1
EndSplineSet
Validated: 1
EndChar

StartChar: oslash
Encoding: 180 248 183
Width: 1200
GlyphClass: 2
Flags: W
LayerCount: 2
Fore
SplineSet
1174 1048 m 1,0,-1
 1006 868 l 1,1,2
 1104 730 1104 730 1104 522 c 0,3,4
 1104 270 1104 270 965 123 c 128,-1,5
 826 -24 826 -24 594 -24 c 0,6,7
 402 -24 402 -24 276 78 c 1,8,-1
 131 -82 l 1,9,-1
 49 -4 l 1,10,-1
 198 160 l 1,11,12
 96 297 96 297 96 500 c 0,13,14
 96 758 96 758 238 903 c 128,-1,15
 380 1048 380 1048 620 1048 c 0,16,17
 804 1048 804 1048 928 950 c 1,18,-1
 1090 1126 l 1,19,-1
 1174 1048 l 1,0,-1
821 836 m 1,20,21
 742 910 742 910 606 910 c 0,22,23
 447 910 447 910 355.5 802.5 c 128,-1,24
 264 695 264 695 264 506 c 0,25,26
 264 374 264 374 314 282 c 1,27,-1
 821 836 l 1,20,21
891 742 m 1,28,-1
 383 190 l 1,29,30
 470 114 470 114 604 114 c 0,31,32
 767 114 767 114 852.5 218 c 128,-1,33
 938 322 938 322 938 512 c 0,34,35
 938 646 938 646 891 742 c 1,28,-1
EndSplineSet
Validated: 1
EndChar

StartChar: Oslash
Encoding: 150 216 184
Width: 1544
GlyphClass: 2
Flags: W
LayerCount: 2
Fore
SplineSet
324 131 m 1,0,-1
 172 -51 l 1,1,-1
 94 14 l 1,2,-1
 252 205 l 1,3,4
 94 400 94 400 94 700 c 0,5,6
 94 1043 94 1043 280.5 1250.5 c 128,-1,7
 467 1458 467 1458 790 1458 c 0,8,9
 1024 1458 1024 1458 1192 1329 c 1,10,-1
 1327 1491 l 1,11,-1
 1405 1428 l 1,12,-1
 1266 1262 l 1,13,14
 1450 1062 1450 1062 1450 735 c 0,15,16
 1450 384 1450 384 1264 180 c 128,-1,17
 1078 -24 1078 -24 766 -24 c 0,18,19
 500 -24 500 -24 324 131 c 1,0,-1
1090 1204 m 1,20,21
 964 1306 964 1306 778 1306 c 0,22,23
 551 1306 551 1306 410.5 1142 c 128,-1,24
 270 978 270 978 270 715 c 0,25,26
 270 492 270 492 368 342 c 1,27,-1
 1090 1204 l 1,20,21
1157 1130 m 1,28,-1
 432 264 l 1,29,30
 563 127 563 127 766 127 c 0,31,32
 1002 127 1002 127 1138 281.5 c 128,-1,33
 1274 436 1274 436 1274 712 c 0,34,35
 1274 972 1274 972 1157 1130 c 1,28,-1
EndSplineSet
Validated: 1
EndChar

StartChar: mu
Encoding: 116 181 185
Width: 1182
GlyphClass: 2
Flags: W
LayerCount: 2
Fore
SplineSet
1048 0 m 1,0,-1
 878 0 l 1,1,2
 855 72 855 72 855 168 c 1,3,-1
 850 168 l 1,4,5
 766 -23 766 -23 571 -23 c 0,6,7
 404 -23 404 -23 333 100 c 1,8,-1
 329 100 l 1,9,-1
 329 -396 l 1,10,-1
 166 -396 l 1,11,-1
 166 1024 l 1,12,-1
 329 1024 l 1,13,-1
 329 398 l 2,14,15
 329 271 329 271 398 196 c 128,-1,16
 467 121 467 121 578 121 c 0,17,18
 699 121 699 121 774.5 207 c 128,-1,19
 850 293 850 293 850 438 c 2,20,-1
 850 1024 l 1,21,-1
 1016 1024 l 1,22,-1
 1016 265 l 2,23,24
 1016 77 1016 77 1048 0 c 1,0,-1
EndSplineSet
Validated: 1
EndChar

StartChar: u11100
Encoding: 191 69888 186
Width: 0
GlyphClass: 4
Flags: W
AnchorPoint: "Anchor-5 Base" 5 2022 basemark 0
AnchorPoint: "Anchor-5 Base" -14 1434 mark 0
AnchorPoint: "Anchor-0" -4 1387 mark 0
LayerCount: 2
Fore
SplineSet
4 1727 m 256,0,1
 -23 1727 -23 1727 -46.5 1737 c 128,-1,2
 -70 1747 -70 1747 -87.5 1764.5 c 128,-1,3
 -105 1782 -105 1782 -115 1805 c 128,-1,4
 -125 1828 -125 1828 -125 1855 c 256,5,6
 -125 1882 -125 1882 -115 1905.5 c 128,-1,7
 -105 1929 -105 1929 -87.5 1946.5 c 128,-1,8
 -70 1964 -70 1964 -46.5 1974 c 128,-1,9
 -23 1984 -23 1984 4 1984 c 256,10,11
 31 1984 31 1984 54.5 1974 c 128,-1,12
 78 1964 78 1964 95.5 1946.5 c 128,-1,13
 113 1929 113 1929 123.5 1905.5 c 128,-1,14
 134 1882 134 1882 134 1855 c 256,15,16
 134 1828 134 1828 123.5 1805 c 128,-1,17
 113 1782 113 1782 95.5 1764.5 c 128,-1,18
 78 1747 78 1747 54.5 1737 c 128,-1,19
 31 1727 31 1727 4 1727 c 256,0,1
3 1492 m 0,20,21
 -114 1492 -114 1492 -197.5 1531.5 c 128,-1,22
 -281 1571 -281 1571 -338 1631.5 c 128,-1,23
 -395 1692 -395 1692 -428.5 1764.5 c 128,-1,24
 -462 1837 -462 1837 -478 1904 c 1,25,-1
 -341 1937 l 1,26,27
 -328 1886 -328 1886 -303 1830.5 c 128,-1,28
 -278 1775 -278 1775 -237.5 1728.5 c 128,-1,29
 -197 1682 -197 1682 -138 1652 c 128,-1,30
 -79 1622 -79 1622 4 1622 c 0,31,32
 84 1622 84 1622 142 1652 c 128,-1,33
 200 1682 200 1682 240.5 1728.5 c 128,-1,34
 281 1775 281 1775 306 1830.5 c 128,-1,35
 331 1886 331 1886 345 1937 c 1,36,-1
 478 1904 l 1,37,38
 467 1861 467 1861 449 1813.5 c 128,-1,39
 431 1766 431 1766 404 1720.5 c 128,-1,40
 377 1675 377 1675 340 1633.5 c 128,-1,41
 303 1592 303 1592 254 1560.5 c 128,-1,42
 205 1529 205 1529 142.5 1510.5 c 128,-1,43
 80 1492 80 1492 3 1492 c 0,20,21
EndSplineSet
Validated: 1
EndChar

StartChar: u11101
Encoding: 192 69889 187
Width: 0
GlyphClass: 4
Flags: W
AnchorPoint: "Anchor-5 Base" -8 1833 basemark 0
AnchorPoint: "Anchor-0" -4 1481 mark 0
AnchorPoint: "Anchor-5 Base" 0 1475 mark 0
LayerCount: 2
Fore
SplineSet
-1 1530 m 4,0,1
 -31 1530 -31 1530 -58.5 1542 c 132,-1,2
 -86 1554 -86 1554 -106 1574 c 132,-1,3
 -126 1594 -126 1594 -138 1621.5 c 132,-1,4
 -150 1649 -150 1649 -150 1679 c 4,5,6
 -150 1711 -150 1711 -138 1738.5 c 132,-1,7
 -126 1766 -126 1766 -106 1786 c 132,-1,8
 -86 1806 -86 1806 -58 1819.5 c 132,-1,9
 -30 1833 -30 1833 0 1833 c 4,10,11
 31 1833 31 1833 58 1819.5 c 132,-1,12
 85 1806 85 1806 105.5 1786 c 132,-1,13
 126 1766 126 1766 138 1738.5 c 132,-1,14
 150 1711 150 1711 150 1679 c 4,15,16
 150 1649 150 1649 138 1621.5 c 132,-1,17
 126 1594 126 1594 105.5 1574 c 132,-1,18
 85 1554 85 1554 57.5 1542 c 132,-1,19
 30 1530 30 1530 -1 1530 c 4,0,1
EndSplineSet
Validated: 1
EndChar

StartChar: u11102
Encoding: 193 69890 188
Width: 0
GlyphClass: 4
Flags: W
AnchorPoint: "Anchor-5 Base" 4 1825 basemark 0
AnchorPoint: "Anchor-5 Base" -27 1516 mark 0
AnchorPoint: "Anchor-0" 4 1493 mark 0
LayerCount: 2
Fore
SplineSet
233 1535 m 260,0,1
 203 1535 203 1535 176.5 1546.5 c 132,-1,2
 150 1558 150 1558 130 1578 c 132,-1,3
 110 1598 110 1598 98.5 1624 c 132,-1,4
 87 1650 87 1650 87 1680 c 260,5,6
 87 1710 87 1710 98.5 1737 c 132,-1,7
 110 1764 110 1764 130 1783.5 c 132,-1,8
 150 1803 150 1803 176.5 1814.5 c 132,-1,9
 203 1826 203 1826 233 1826 c 260,10,11
 263 1826 263 1826 289.5 1814.5 c 132,-1,12
 316 1803 316 1803 336 1783.5 c 132,-1,13
 356 1764 356 1764 367.5 1737 c 132,-1,14
 379 1710 379 1710 379 1680 c 260,15,16
 379 1650 379 1650 367.5 1624 c 132,-1,17
 356 1598 356 1598 336 1578 c 132,-1,18
 316 1558 316 1558 289.5 1546.5 c 132,-1,19
 263 1535 263 1535 233 1535 c 260,0,1
-233 1535 m 4,20,21
 -263 1535 -263 1535 -289.5 1546.5 c 132,-1,22
 -316 1558 -316 1558 -335.5 1578 c 132,-1,23
 -355 1598 -355 1598 -366.5 1624 c 132,-1,24
 -378 1650 -378 1650 -378 1680 c 260,25,26
 -378 1710 -378 1710 -366.5 1737 c 132,-1,27
 -355 1764 -355 1764 -335.5 1783.5 c 132,-1,28
 -316 1803 -316 1803 -289.5 1814.5 c 132,-1,29
 -263 1826 -263 1826 -233 1826 c 260,30,31
 -203 1826 -203 1826 -176.5 1814.5 c 132,-1,32
 -150 1803 -150 1803 -130 1783.5 c 132,-1,33
 -110 1764 -110 1764 -98.5 1737 c 132,-1,34
 -87 1710 -87 1710 -87 1680 c 4,35,36
 -87 1651 -87 1651 -98 1624.5 c 132,-1,37
 -109 1598 -109 1598 -128.5 1578 c 132,-1,38
 -148 1558 -148 1558 -175 1546.5 c 132,-1,39
 -202 1535 -202 1535 -233 1535 c 4,20,21
EndSplineSet
Validated: 1
EndChar

StartChar: u11103
Encoding: 194 69891 189
Width: 2571
GlyphClass: 2
Flags: W
AnchorPoint: "Anchor-10" 2389 1256 basechar 0
AnchorPoint: "Anchor-4" 1656 55 basechar 0
AnchorPoint: "Anchor-3" 1297 0 basechar 0
AnchorPoint: "Anchor-2" 1872 55 basechar 0
AnchorPoint: "Anchor-1" 1980 1502 basechar 0
AnchorPoint: "Anchor-0" 1379 1475 basechar 0
LayerCount: 2
Fore
SplineSet
729 -22 m 0,0,1
 520 -24 520 -24 328 37.5 c 128,-1,2
 136 99 136 99 48 307 c 1,3,-1
 272 335 l 1,4,5
 272 308 272 308 330 264 c 128,-1,6
 388 220 388 220 450 192 c 128,-1,7
 512 164 512 164 574.5 145 c 128,-1,8
 637 126 637 126 732 126 c 0,9,10
 845 126 845 126 942.5 170 c 128,-1,11
 1040 214 1040 214 1112 294.5 c 128,-1,12
 1184 375 1184 375 1224.5 487 c 128,-1,13
 1265 599 1265 599 1265 734 c 0,14,15
 1265 868 1265 868 1226 979.5 c 128,-1,16
 1187 1091 1187 1091 1117.5 1170.5 c 128,-1,17
 1048 1250 1048 1250 925 1290.5 c 128,-1,18
 802 1331 802 1331 688 1331 c 1,19,20
 359 1283 359 1283 276 1059 c 1,21,-1
 64 1079 l 1,22,23
 103 1198 103 1198 188 1295 c 0,24,25
 389 1523 389 1523 739 1487 c 0,26,27
 945 1466 945 1466 1028 1428.5 c 0,28,29
 1170 1365 1170 1365 1260 1264 c 2,30,-1
 1325 1191 l 1,31,32
 1478 1528 1478 1528 1800 1511 c 0,33,34
 2005 1500 2005 1500 2104 1455 c 0,35,36
 2238 1394 2238 1394 2331 1273.5 c 128,-1,37
 2424 1153 2424 1153 2470 1034.5 c 128,-1,38
 2516 916 2516 916 2516 752 c 1,39,40
 2499 461 2499 461 2337 230.5 c 128,-1,41
 2175 0 2175 0 1724 0 c 1,42,-1
 1784 211 l 1,43,44
 2090 195 2090 195 2189 321.5 c 128,-1,45
 2288 448 2288 448 2334 697 c 1,46,47
 2334 842 2334 842 2294 960 c 128,-1,48
 2254 1078 2254 1078 2182.5 1161.5 c 128,-1,49
 2111 1245 2111 1245 2011.5 1292 c 128,-1,50
 1912 1339 1912 1339 1793 1340 c 1,51,52
 1699 1350 1699 1350 1566 1256.5 c 0,53,54
 1411 1148 1411 1148 1411 1008 c 0,55,56
 1411 1004 1411 1004 1434 927 c 128,-1,57
 1457 850 1457 850 1457 736 c 0,58,59
 1457 569 1457 569 1401.5 429 c 128,-1,60
 1346 289 1346 289 1248.5 189 c 128,-1,61
 1151 89 1151 89 1018 33.5 c 0,62,63
 888.264321201 -20.6378208521 888.264321201 -20.6378208521 729 -22 c 0,0,1
EndSplineSet
Validated: 33
Substitution2: "Single Substitution lookup 5-1" u11103.half
EndChar

StartChar: u11104
Encoding: 195 69892 190
Width: 1653
GlyphClass: 2
Flags: W
AnchorPoint: "Anchor-10" 1488 1324 basechar 0
AnchorPoint: "Anchor-4" 1024 0 basechar 0
AnchorPoint: "Anchor-3" 765 55 basechar 0
AnchorPoint: "Anchor-2" 1446 46 basechar 0
AnchorPoint: "Anchor-1" 1434 1461 basechar 0
AnchorPoint: "Anchor-0" 915 1434 basechar 0
LayerCount: 2
Fore
SplineSet
1294 0 m 1,0,1
 1287 142 1287 142 1258.5 261 c 128,-1,2
 1230 380 1230 380 1184 475 c 128,-1,3
 1138 570 1138 570 1075 640.5 c 128,-1,4
 1012 711 1012 711 935 755 c 1,5,6
 928 631 928 631 893.5 528 c 128,-1,7
 859 425 859 425 800 351 c 128,-1,8
 741 277 741 277 660 236 c 128,-1,9
 579 195 579 195 478 195 c 0,10,11
 388 195 388 195 319.5 225.5 c 128,-1,12
 251 256 251 256 205.5 305.5 c 128,-1,13
 160 355 160 355 137 418.5 c 128,-1,14
 114 482 114 482 114 549 c 0,15,16
 114 635 114 635 151 712 c 128,-1,17
 188 789 188 789 257.5 847 c 128,-1,18
 327 905 327 905 425.5 938.5 c 128,-1,19
 524 972 524 972 647 972 c 0,20,21
 676 972 676 972 703.5 970 c 128,-1,22
 731 968 731 968 757 965 c 1,23,24
 741 1052 741 1052 706.5 1117.5 c 128,-1,25
 672 1183 672 1183 624 1227 c 128,-1,26
 576 1271 576 1271 516.5 1293 c 128,-1,27
 457 1315 457 1315 391 1315 c 0,28,29
 88 1316 88 1316 232 968 c 1,30,-1
 78 906 l 1,31,32
 8 1172 8 1172 84 1313.5 c 128,-1,33
 160 1455 160 1455 397 1460 c 0,34,35
 503 1460 503 1460 594.5 1421 c 128,-1,36
 686 1382 686 1382 756.5 1311 c 128,-1,37
 827 1240 827 1240 872.5 1140 c 128,-1,38
 918 1040 918 1040 931 918 c 1,39,40
 1054 866 1054 866 1163 751 c 128,-1,41
 1272 636 1272 636 1308 540 c 1,42,43
 1300 586 1300 586 1305.5 644.5 c 128,-1,44
 1311 703 1311 703 1323 768.5 c 128,-1,45
 1335 834 1335 834 1350 903 c 128,-1,46
 1365 972 1365 972 1377.5 1040 c 128,-1,47
 1390 1108 1390 1108 1396.5 1171.5 c 128,-1,48
 1403 1235 1403 1235 1396.5 1288 c 128,-1,49
 1390 1341 1390 1341 1367.5 1382 c 128,-1,50
 1345 1423 1345 1423 1300 1445 c 1,51,-1
 1595 1445 l 1,52,53
 1577 1355 1577 1355 1557.5 1274.5 c 128,-1,54
 1538 1194 1538 1194 1520.5 1117 c 128,-1,55
 1503 1040 1503 1040 1487.5 963.5 c 128,-1,56
 1472 887 1472 887 1462 805 c 128,-1,57
 1452 723 1452 723 1448.5 633 c 128,-1,58
 1445 543 1445 543 1451 438 c 1,59,-1
 1563 8 l 1,60,-1
 1294 0 l 1,0,1
771 817 m 1,61,62
 708 829 708 829 641 829 c 0,63,64
 549 828 549 828 482 804.5 c 128,-1,65
 415 781 415 781 371 742.5 c 128,-1,66
 327 704 327 704 305.5 653.5 c 128,-1,67
 284 603 284 603 284 548 c 0,68,69
 284 502 284 502 297 464 c 128,-1,70
 310 426 310 426 335.5 398.5 c 128,-1,71
 361 371 361 371 398 355.5 c 128,-1,72
 435 340 435 340 483 340 c 0,73,74
 551 340 551 340 604.5 373 c 128,-1,75
 658 406 658 406 695 467 c 128,-1,76
 732 528 732 528 751.5 615 c 128,-1,77
 771 702 771 702 771 810 c 2,78,-1
 771 817 l 1,61,62
EndSplineSet
Validated: 33
Substitution2: "Single Substitution lookup 5-1" u11104.half
EndChar

StartChar: u11105
Encoding: 196 69893 191
Width: 1252
GlyphClass: 2
Flags: W
AnchorPoint: "Anchor-10" 1106 1270 basechar 0
AnchorPoint: "Anchor-4" 505 82 basechar 0
AnchorPoint: "Anchor-3" 614 -68 basechar 0
AnchorPoint: "Anchor-2" 916 63 basechar 0
AnchorPoint: "Anchor-1" 988 1371 basechar 0
AnchorPoint: "Anchor-0" 642 1475 basechar 0
LayerCount: 2
Fore
SplineSet
597 -28 m 0,0,1
 489 -28 489 -28 390 -3.5 c 128,-1,2
 291 21 291 21 216 71.5 c 128,-1,3
 141 122 141 122 96 198 c 128,-1,4
 51 274 51 274 51 376 c 0,5,6
 51 443 51 443 73 495 c 128,-1,7
 95 547 95 547 133.5 587 c 128,-1,8
 172 627 172 627 224.5 657.5 c 128,-1,9
 277 688 277 688 337 712 c 128,-1,10
 397 736 397 736 462 755.5 c 128,-1,11
 527 775 527 775 591 794 c 0,12,13
 667 815 667 815 739 837.5 c 128,-1,14
 811 860 811 860 867.5 890.5 c 128,-1,15
 924 921 924 921 958 963.5 c 128,-1,16
 992 1006 992 1006 992 1069 c 0,17,18
 992 1128 992 1128 962.5 1174.5 c 128,-1,19
 933 1221 933 1221 883 1252.5 c 128,-1,20
 833 1284 833 1284 767.5 1300.5 c 128,-1,21
 702 1317 702 1317 631 1315 c 0,22,23
 460 1314 460 1314 322 1231 c 128,-1,24
 184 1148 184 1148 224 948 c 1,25,-1
 70 870 l 1,26,27
 46 1069 46 1069 94 1194.5 c 128,-1,28
 142 1320 142 1320 283 1395.5 c 128,-1,29
 424 1471 424 1471 634 1460 c 1,30,31
 731 1460 731 1460 825.5 1435.5 c 128,-1,32
 920 1411 920 1411 995 1362.5 c 128,-1,33
 1070 1314 1070 1314 1116 1240.5 c 128,-1,34
 1162 1167 1162 1167 1162 1069 c 0,35,36
 1162 1001 1162 1001 1140 948 c 128,-1,37
 1118 895 1118 895 1080 854 c 128,-1,38
 1042 813 1042 813 990 782 c 128,-1,39
 938 751 938 751 878.5 726.5 c 128,-1,40
 819 702 819 702 754.5 683 c 128,-1,41
 690 664 690 664 626 647 c 0,42,43
 539 623 539 623 464.5 599.5 c 128,-1,44
 390 576 390 576 336 545 c 128,-1,45
 282 514 282 514 251.5 472 c 128,-1,46
 221 430 221 430 221 368 c 0,47,48
 221 308 221 308 249 261.5 c 128,-1,49
 277 215 277 215 328 183 c 128,-1,50
 379 151 379 151 450 134.5 c 128,-1,51
 521 118 521 118 606 118 c 1,52,53
 808 128 808 128 908 250 c 128,-1,54
 1008 372 1008 372 1016 544 c 1,55,-1
 1186 594 l 1,56,57
 1172 372 1172 372 1076 220 c 128,-1,58
 980 68 980 68 846.5 20 c 128,-1,59
 713 -28 713 -28 597 -28 c 0,0,1
EndSplineSet
Validated: 33
Substitution2: "Single Substitution lookup 5-1" u11105.half
EndChar

StartChar: u11106
Encoding: 197 69894 192
Width: 1523
GlyphClass: 2
Flags: W
AnchorPoint: "Anchor-10" 1297 1161 basechar 0
AnchorPoint: "Anchor-4" 915 0 basechar 0
AnchorPoint: "Anchor-3" 724 14 basechar 0
AnchorPoint: "Anchor-2" 1215 0 basechar 0
AnchorPoint: "Anchor-1" 1132 1350 basechar 0
AnchorPoint: "Anchor-0" 778 1475 basechar 0
LayerCount: 2
Fore
SplineSet
981 1 m 1,0,1
 1048 60 1048 60 1051 186 c 128,-1,2
 1054 312 1054 312 1006.5 421 c 128,-1,3
 959 530 959 530 903.5 588.5 c 128,-1,4
 848 647 848 647 760.5 679.5 c 128,-1,5
 673 712 673 712 526 702 c 1,6,7
 688 676 688 676 742 596 c 128,-1,8
 796 516 796 516 810 410 c 1,9,10
 810 341 810 341 786 280.5 c 128,-1,11
 762 220 762 220 718 175 c 128,-1,12
 674 130 674 130 610.5 103.5 c 128,-1,13
 547 77 547 77 467 77 c 0,14,15
 383 77 383 77 317 105.5 c 128,-1,16
 251 134 251 134 205 182.5 c 128,-1,17
 159 231 159 231 134.5 294 c 128,-1,18
 110 357 110 357 110 426 c 0,19,20
 110 500 110 500 139.5 573 c 128,-1,21
 169 646 169 646 229 704.5 c 128,-1,22
 289 763 289 763 381 799.5 c 128,-1,23
 473 836 473 836 598 836 c 0,24,25
 718 836 718 836 821 800.5 c 128,-1,26
 924 765 924 765 999.5 696 c 128,-1,27
 1075 627 1075 627 1118 524 c 128,-1,28
 1161 421 1161 421 1161 286 c 1,29,-1
 1147 140 l 1,30,-1
 1152 140 l 1,31,32
 1238 305 1238 305 1258 373 c 128,-1,33
 1278 441 1278 441 1289 516 c 128,-1,34
 1300 591 1300 591 1300 671 c 0,35,36
 1300 827 1300 827 1254 947 c 128,-1,37
 1208 1067 1208 1067 1128 1148.5 c 128,-1,38
 1048 1230 1048 1230 940.5 1272 c 128,-1,39
 833 1314 833 1314 710 1314 c 1,40,41
 220 1284 220 1284 252 857 c 1,42,-1
 104 792 l 1,43,44
 56 1116 56 1116 228 1293.5 c 128,-1,45
 400 1471 400 1471 713 1459 c 1,46,47
 872 1459 872 1459 1010.5 1405 c 128,-1,48
 1149 1351 1149 1351 1251.5 1249.5 c 128,-1,49
 1354 1148 1354 1148 1412.5 1002.5 c 128,-1,50
 1471 857 1471 857 1471 673 c 0,51,52
 1471 588 1471 588 1456 499.5 c 128,-1,53
 1441 411 1441 411 1411.5 324.5 c 128,-1,54
 1382 238 1382 238 1331 169 c 128,-1,55
 1280 100 1280 100 1412 -4 c 1,56,-1
 981 1 l 1,0,1
470 202 m 256,57,58
 515 202 515 202 552.5 218 c 128,-1,59
 590 234 590 234 616.5 262 c 128,-1,60
 643 290 643 290 658 329 c 128,-1,61
 673 368 673 368 673 414 c 0,62,63
 673 464 673 464 656 503.5 c 128,-1,64
 639 543 639 543 610.5 571.5 c 128,-1,65
 582 600 582 600 543.5 615 c 128,-1,66
 505 630 505 630 462 630 c 0,67,68
 416 630 416 630 378.5 613.5 c 128,-1,69
 341 597 341 597 314 568.5 c 128,-1,70
 287 540 287 540 272 501 c 128,-1,71
 257 462 257 462 257 417 c 0,72,73
 257 369 257 369 273.5 329.5 c 128,-1,74
 290 290 290 290 318.5 261.5 c 128,-1,75
 347 233 347 233 386 217.5 c 128,-1,76
 425 202 425 202 470 202 c 256,57,58
EndSplineSet
Validated: 33
Substitution2: "Single Substitution lookup 5-1" u11106.half
EndChar

StartChar: u11107
Encoding: 198 69895 193
Width: 1855
GlyphClass: 2
Flags: W
AnchorPoint: "Anchor-10" 1652 1242 basechar 0
AnchorPoint: "Anchor-4" 1062 80 basechar 0
AnchorPoint: "Anchor-3" 887 55 basechar 0
AnchorPoint: "Anchor-2" 1488 106 basechar 0
AnchorPoint: "Anchor-1" 1324 1420 basechar 0
AnchorPoint: "Anchor-0" 901 1447 basechar 0
LayerCount: 2
Fore
SplineSet
815 1111 m 1,0,1
 788 1220 788 1220 717 1267 c 128,-1,2
 646 1314 646 1314 573 1314 c 0,3,4
 497 1314 497 1314 432.5 1274 c 128,-1,5
 368 1234 368 1234 320.5 1162 c 128,-1,6
 273 1090 273 1090 246 989.5 c 128,-1,7
 219 889 219 889 219 767 c 0,8,9
 219 653 219 653 242.5 551 c 128,-1,10
 266 449 266 449 331 352.5 c 128,-1,11
 396 256 396 256 500 156 c 1,12,-1
 412 0 l 1,13,14
 324 68 324 68 236 178 c 128,-1,15
 148 288 148 288 96 442 c 0,16,17
 46 590 46 590 49 782 c 0,18,19
 51 929 51 929 84.5 1044.5 c 0,20,21
 120 1168 120 1168 187.5 1261 c 128,-1,22
 255 1354 255 1354 351.5 1408.5 c 128,-1,23
 448 1463 448 1463 571 1463 c 0,24,25
 644 1463 644 1463 702 1442 c 128,-1,26
 760 1421 760 1421 818 1378.5 c 128,-1,27
 876 1336 876 1336 929 1193 c 1,28,-1
 932 1193 l 1,29,30
 992 1314 992 1314 1046 1367.5 c 128,-1,31
 1100 1421 1100 1421 1157.5 1442 c 128,-1,32
 1215 1463 1215 1463 1288 1463 c 0,33,34
 1411 1463 1411 1463 1508 1408.5 c 128,-1,35
 1605 1354 1605 1354 1672.5 1261 c 128,-1,36
 1740 1168 1740 1168 1775.5 1044.5 c 128,-1,37
 1811 921 1811 921 1811 782 c 0,38,39
 1811 476 1811 476 1717.5 284 c 128,-1,40
 1624 92 1624 92 1500 0 c 1,41,-1
 1384 132 l 1,42,43
 1504 228 1504 228 1551.5 320 c 128,-1,44
 1599 412 1599 412 1620 532.5 c 128,-1,45
 1641 653 1641 653 1641 767 c 0,46,47
 1641 889 1641 889 1614 989.5 c 128,-1,48
 1587 1090 1587 1090 1539.5 1162 c 128,-1,49
 1492 1234 1492 1234 1427.5 1274 c 128,-1,50
 1363 1314 1363 1314 1287 1314 c 1,51,52
 1204 1296 1204 1296 1150.5 1244.5 c 0,53,54
 1107 1203 1107 1203 1060 1120 c 0,55,56
 1052 1106 1052 1106 1046.5 1071.5 c 128,-1,57
 1041 1037 1041 1037 1046.5 997 c 128,-1,58
 1052 957 1052 957 1074 919 c 128,-1,59
 1096 881 1096 881 1144 860 c 1,60,-1
 716 864 l 1,61,62
 828 928 828 928 815 1111 c 1,0,1
EndSplineSet
Validated: 33
Substitution2: "Single Substitution lookup 5-1" u11107.half
EndChar

StartChar: u11108
Encoding: 199 69896 194
Width: 1647
GlyphClass: 2
Flags: W
AnchorPoint: "Anchor-10" 1434 1201 basechar 0
AnchorPoint: "Anchor-4" 818 30 basechar 0
AnchorPoint: "Anchor-3" 696 0 basechar 0
AnchorPoint: "Anchor-2" 1215 27 basechar 0
AnchorPoint: "Anchor-1" 1154 1394 basechar 0
AnchorPoint: "Anchor-0" 806 1461 basechar 0
LayerCount: 2
Fore
SplineSet
270 0 m 1,0,1
 203 56 203 56 119.5 245.5 c 128,-1,2
 36 435 36 435 36 702 c 1,3,4
 48 865 48 865 101.5 1007 c 128,-1,5
 155 1149 155 1149 253.5 1249.5 c 128,-1,6
 352 1350 352 1350 490.5 1404.5 c 128,-1,7
 629 1459 629 1459 799 1459 c 0,8,9
 962 1459 962 1459 1105.5 1405 c 128,-1,10
 1249 1351 1249 1351 1356 1248.5 c 128,-1,11
 1463 1146 1463 1146 1525 996.5 c 128,-1,12
 1587 847 1587 847 1587 655 c 0,13,14
 1587 514 1587 514 1555 390 c 128,-1,15
 1523 266 1523 266 1461 173.5 c 128,-1,16
 1399 81 1399 81 1307 27.5 c 128,-1,17
 1215 -26 1215 -26 1095 -26 c 0,18,19
 1008 -26 1008 -26 933.5 3.5 c 128,-1,20
 859 33 859 33 804.5 87 c 128,-1,21
 750 141 750 141 719 216 c 128,-1,22
 688 291 688 291 688 382 c 0,23,24
 688 471 688 471 717 543.5 c 128,-1,25
 746 616 746 616 797.5 667.5 c 128,-1,26
 849 719 849 719 920 747 c 128,-1,27
 991 775 991 775 1076 775 c 1,28,29
 1140 792 1140 792 1268 734 c 128,-1,30
 1396 676 1396 676 1410 577 c 1,31,-1
 1416 577 l 1,32,33
 1420 822 1420 822 1373 940.5 c 128,-1,34
 1326 1059 1326 1059 1243.5 1142.5 c 128,-1,35
 1161 1226 1161 1226 1047.5 1270.5 c 128,-1,36
 934 1315 934 1315 800 1315 c 0,37,38
 670 1315 670 1315 562.5 1271 c 128,-1,39
 455 1227 455 1227 378.5 1144.5 c 128,-1,40
 302 1062 302 1062 260 945.5 c 128,-1,41
 218 829 218 829 204 690 c 1,42,43
 247 271 247 271 382 112 c 1,44,-1
 270 0 l 1,0,1
1102 118 m 0,45,46
 1152 118 1152 118 1198.5 136 c 128,-1,47
 1245 154 1245 154 1281.5 188.5 c 128,-1,48
 1318 223 1318 223 1340 272 c 128,-1,49
 1362 321 1362 321 1362 383 c 0,50,51
 1362 440 1362 440 1342.5 486 c 128,-1,52
 1323 532 1323 532 1288.5 565 c 128,-1,53
 1254 598 1254 598 1206 616 c 128,-1,54
 1158 634 1158 634 1102 634 c 0,55,56
 1048 634 1048 634 1002.5 616 c 128,-1,57
 957 598 957 598 924 564.5 c 128,-1,58
 891 531 891 531 872.5 484 c 128,-1,59
 854 437 854 437 854 379 c 0,60,61
 854 319 854 319 873 270.5 c 128,-1,62
 892 222 892 222 925.5 188.5 c 128,-1,63
 959 155 959 155 1004.5 136.5 c 128,-1,64
 1050 118 1050 118 1102 118 c 0,45,46
EndSplineSet
Validated: 33
Substitution2: "Single Substitution lookup 5-1" u11108.half
EndChar

StartChar: u11109
Encoding: 200 69897 195
Width: 1619
GlyphClass: 2
Flags: W
AnchorPoint: "Anchor-10" 1434 1242 basechar 0
AnchorPoint: "Anchor-4" 838 45 basechar 0
AnchorPoint: "Anchor-3" 778 41 basechar 0
AnchorPoint: "Anchor-2" 1270 141 basechar 0
AnchorPoint: "Anchor-1" 1161 1406 basechar 0
AnchorPoint: "Anchor-0" 806 1475 basechar 0
LayerCount: 2
Fore
SplineSet
450 0 m 1,0,1
 256 144 256 144 154 310 c 128,-1,2
 52 476 52 476 52 678 c 0,3,4
 52 863 52 863 108.5 1009.5 c 128,-1,5
 165 1156 165 1156 265.5 1257.5 c 128,-1,6
 366 1359 366 1359 504 1413 c 128,-1,7
 642 1467 642 1467 806 1467 c 256,8,9
 970 1467 970 1467 1109 1413 c 128,-1,10
 1248 1359 1248 1359 1349 1257.5 c 128,-1,11
 1450 1156 1450 1156 1506.5 1009.5 c 128,-1,12
 1563 863 1563 863 1563 678 c 1,13,14
 1539 404 1539 404 1458.5 252 c 128,-1,15
 1378 100 1378 100 1160 -8 c 1,16,-1
 1124 136 l 1,17,18
 1218 210 1218 210 1290 304 c 0,19,20
 1395 441 1395 441 1393 672 c 0,21,22
 1392 828 1392 828 1350 944.5 c 0,23,24
 1307 1065 1307 1065 1229 1149 c 128,-1,25
 1151 1233 1151 1233 1043 1277.5 c 128,-1,26
 935 1322 935 1322 806 1322 c 0,27,28
 678 1322 678 1322 571 1277.5 c 128,-1,29
 464 1233 464 1233 386.5 1149 c 128,-1,30
 309 1065 309 1065 266 944.5 c 128,-1,31
 223 824 223 824 223 672 c 1,32,33
 264 267 264 267 506 172 c 1,34,-1
 450 0 l 1,0,1
EndSplineSet
Validated: 33
Substitution2: "Single Substitution lookup 5-1" u11109.half
EndChar

StartChar: u1110A
Encoding: 201 69898 196
Width: 2513
GlyphClass: 2
Flags: W
AnchorPoint: "Anchor-10" 2321 1393 basechar 0
AnchorPoint: "Anchor-4" 1584 -27 basechar 0
AnchorPoint: "Anchor-3" 1379 0 basechar 0
AnchorPoint: "Anchor-2" 2034 41 basechar 0
AnchorPoint: "Anchor-1" 1939 1488 basechar 0
AnchorPoint: "Anchor-0" 1279 1495 basechar 0
LayerCount: 2
Fore
SplineSet
1887 -20 m 1,0,1
 1604 -27 1604 -27 1424 264 c 1,2,3
 1340 148 1340 148 1151.5 42 c 128,-1,4
 963 -64 963 -64 684.5 -48 c 128,-1,5
 406 -32 406 -32 223 72 c 0,6,7
 31.0492750638 181.086750783 31.0492750638 181.086750783 31 408 c 2,8,-1
 31 408 l 1,9,10
 100 612 100 612 257.5 632 c 128,-1,11
 415 652 415 652 538.5 795 c 128,-1,12
 662 938 662 938 634 1078 c 128,-1,13
 606 1218 606 1218 485 1279 c 128,-1,14
 364 1340 364 1340 228.5 1265 c 128,-1,15
 93 1190 93 1190 108 1148 c 1,16,-1
 31 1256 l 1,17,18
 29 1306 29 1306 124.5 1389 c 128,-1,19
 220 1472 220 1472 401.5 1467 c 128,-1,20
 583 1462 583 1462 688 1322 c 128,-1,21
 793 1182 793 1182 770.5 969 c 128,-1,22
 748 756 748 756 542 612 c 128,-1,23
 336 468 336 468 200 420 c 1,24,-1
 200 420 l 1,25,26
 242 248 242 248 412 168 c 0,27,28
 495 129 495 129 732 108 c 0,29,30
 865 96 865 96 1034.5 175 c 0,31,32
 1170 238 1170 238 1313.5 416 c 128,-1,33
 1457 594 1457 594 1472.5 896 c 128,-1,34
 1488 1198 1488 1198 1316.5 1304.5 c 128,-1,35
 1145 1411 1145 1411 1048 1288 c 1,36,-1
 983 1432 l 1,37,38
 1163 1532 1163 1532 1307.5 1494.5 c 128,-1,39
 1452 1457 1452 1457 1544 1288 c 128,-1,40
 1636 1119 1636 1119 1620 851.5 c 128,-1,41
 1604 584 1604 584 1520 416 c 1,42,43
 1564 254 1564 254 1731 186 c 128,-1,44
 1898 118 1898 118 2055 193.5 c 128,-1,45
 2212 269 2212 269 2280 473.5 c 128,-1,46
 2348 678 2348 678 2304 988 c 128,-1,47
 2260 1298 2260 1298 2116 1351 c 128,-1,48
 1972 1404 1972 1404 1880 1312 c 1,49,-1
 1783 1448 l 1,50,51
 1895 1552 1895 1552 2093 1519.5 c 128,-1,52
 2291 1487 2291 1487 2387 1299.5 c 128,-1,53
 2483 1112 2483 1112 2477.5 774 c 128,-1,54
 2472 436 2472 436 2319.5 200 c 128,-1,55
 2167 -36 2167 -36 1887 -20 c 1,0,1
EndSplineSet
Validated: 37
Substitution2: "Single Substitution lookup 5-1" u1110A.half
EndChar

StartChar: u1110B
Encoding: 202 69899 197
Width: 1567
GlyphClass: 2
Flags: W
AnchorPoint: "Anchor-10" 1393 1161 basechar 0
AnchorPoint: "Anchor-4" 872 18 basechar 0
AnchorPoint: "Anchor-3" 737 -68 basechar 0
AnchorPoint: "Anchor-2" 1168 110 basechar 0
AnchorPoint: "Anchor-1" 1161 1406 basechar 0
AnchorPoint: "Anchor-0" 751 1461 basechar 0
LayerCount: 2
Fore
SplineSet
724 -18 m 0,0,1
 576 -18 576 -18 453.5 12.5 c 128,-1,2
 331 43 331 43 243 97.5 c 128,-1,3
 155 152 155 152 106.5 227 c 128,-1,4
 58 302 58 302 58 391 c 0,5,6
 58 466 58 466 84 522.5 c 128,-1,7
 110 579 110 579 152 619.5 c 128,-1,8
 194 660 194 660 245.5 686 c 128,-1,9
 297 712 297 712 348 725 c 1,10,-1
 348 732 l 1,11,12
 297 746 297 746 245.5 771 c 128,-1,13
 194 796 194 796 152.5 835.5 c 128,-1,14
 111 875 111 875 84.5 930 c 128,-1,15
 58 985 58 985 58 1058 c 0,16,17
 58 1144 58 1144 106 1218.5 c 128,-1,18
 154 1293 154 1293 243 1348 c 128,-1,19
 332 1403 332 1403 457.5 1435 c 128,-1,20
 583 1467 583 1467 739 1467 c 0,21,22
 882 1467 882 1467 1031 1433.5 c 128,-1,23
 1180 1400 1180 1400 1295.5 1300 c 128,-1,24
 1411 1200 1411 1200 1492 1056 c 1,25,-1
 1345 1002 l 1,26,27
 1292 1088 1292 1088 1174 1202 c 128,-1,28
 1056 1316 1056 1316 730 1322 c 1,29,30
 611 1322 611 1322 517.5 1302.5 c 128,-1,31
 424 1283 424 1283 360 1248 c 128,-1,32
 296 1213 296 1213 262.5 1165 c 128,-1,33
 229 1117 229 1117 229 1060 c 0,34,35
 229 1001 229 1001 259.5 953.5 c 128,-1,36
 290 906 290 906 347.5 872.5 c 128,-1,37
 405 839 405 839 488 821 c 128,-1,38
 571 803 571 803 675 803 c 1,39,-1
 768 888 l 1,40,-1
 772 572 l 1,41,-1
 675 651 l 1,42,43
 562 651 562 651 478.5 632 c 128,-1,44
 395 613 395 613 339.5 578.5 c 128,-1,45
 284 544 284 544 256.5 496 c 128,-1,46
 229 448 229 448 229 389 c 0,47,48
 229 329 229 329 263.5 280.5 c 128,-1,49
 298 232 298 232 361 198 c 128,-1,50
 424 164 424 164 514 145.5 c 128,-1,51
 604 127 604 127 715 127 c 0,52,53
 841 127 841 127 962.5 145.5 c 128,-1,54
 1084 164 1084 164 1173.5 223 c 128,-1,55
 1263 282 1263 282 1360 436 c 1,56,-1
 1492 380 l 1,57,58
 1412 176 1412 176 1244.5 79 c 128,-1,59
 1077 -18 1077 -18 724 -18 c 0,0,1
EndSplineSet
Validated: 1
Substitution2: "Single Substitution lookup 5-1" u1110B.half
EndChar

StartChar: u1110C
Encoding: 203 69900 198
Width: 1745
GlyphClass: 2
Flags: W
AnchorPoint: "Anchor-10" 1488 1283 basechar 0
AnchorPoint: "Anchor-4" 901 68 basechar 0
AnchorPoint: "Anchor-3" 833 -82 basechar 0
AnchorPoint: "Anchor-2" 1283 137 basechar 0
AnchorPoint: "Anchor-1" 1283 1406 basechar 0
AnchorPoint: "Anchor-0" 826 1418 basechar 0
LayerCount: 2
Fore
SplineSet
742 -30 m 0,0,1
 668 -30 668 -30 591.5 -24 c 128,-1,2
 515 -18 515 -18 419.5 -9 c 128,-1,3
 324 0 324 0 228 62 c 128,-1,4
 132 124 132 124 116 188 c 1,5,-1
 180 340 l 1,6,7
 304 312 304 312 389 356 c 128,-1,8
 474 400 474 400 539.5 495 c 128,-1,9
 605 590 605 590 641.5 695.5 c 128,-1,10
 678 801 678 801 678 913 c 1,11,12
 640 1300 640 1300 320 1316 c 1,13,14
 136 1224 136 1224 212 1040 c 1,15,-1
 40 1112 l 1,16,17
 32 1332 32 1332 114 1399.5 c 128,-1,18
 196 1467 196 1467 340 1463 c 1,19,20
 465 1455 465 1455 559 1411.5 c 128,-1,21
 653 1368 653 1368 717.5 1294 c 128,-1,22
 782 1220 782 1220 815.5 1122 c 128,-1,23
 849 1024 849 1024 849 915 c 1,24,25
 800 256 800 256 324 168 c 1,26,-1
 324 164 l 1,27,28
 504 116 504 116 770 122 c 128,-1,29
 1036 128 1036 128 1265.5 294 c 128,-1,30
 1495 460 1495 460 1499 768 c 1,31,32
 1491 1220 1491 1220 1148 1332 c 1,33,-1
 1164 1487 l 1,34,35
 1671 1352 1671 1352 1665 764 c 0,36,37
 1665 579 1665 579 1599.5 431.5 c 128,-1,38
 1534 284 1534 284 1413.5 181.5 c 128,-1,39
 1293 79 1293 79 1122.5 24.5 c 128,-1,40
 952 -30 952 -30 742 -30 c 0,0,1
EndSplineSet
Validated: 33
Substitution2: "Single Substitution lookup 5-1" u1110C.half
EndChar

StartChar: u1110D
Encoding: 204 69901 199
Width: 2074
GlyphClass: 2
Flags: W
AnchorPoint: "Anchor-10" 1830 1311 basechar 0
AnchorPoint: "Anchor-4" 1242 -14 basechar 0
AnchorPoint: "Anchor-3" 1092 -41 basechar 0
AnchorPoint: "Anchor-2" 1584 68 basechar 0
AnchorPoint: "Anchor-1" 1519 1465 basechar 0
AnchorPoint: "Anchor-0" 847 1516 basechar 0
LayerCount: 2
Fore
SplineSet
524 -22 m 0,0,1
 431 -22 431 -22 361.5 7.5 c 128,-1,2
 292 37 292 37 245.5 86.5 c 128,-1,3
 199 136 199 136 175.5 200.5 c 128,-1,4
 152 265 152 265 152 334 c 0,5,6
 152 418 152 418 182.5 485 c 128,-1,7
 213 552 213 552 265.5 598 c 128,-1,8
 318 644 318 644 387.5 668.5 c 128,-1,9
 457 693 457 693 535 693 c 0,10,11
 598 693 598 693 650.5 678.5 c 128,-1,12
 703 664 703 664 749 639 c 128,-1,13
 795 614 795 614 834 580.5 c 128,-1,14
 873 547 873 547 909 509 c 1,15,16
 924 566 924 566 932 627.5 c 128,-1,17
 940 689 940 689 940 754 c 0,18,19
 940 876 940 876 911 979 c 128,-1,20
 882 1082 882 1082 826 1157.5 c 128,-1,21
 770 1233 770 1233 687.5 1275.5 c 128,-1,22
 605 1318 605 1318 497 1318 c 1,23,24
 332 1308 332 1308 249.5 1138.5 c 128,-1,25
 167 969 167 969 211 789 c 1,26,-1
 51 765 l 1,27,28
 0 1041 0 1041 62 1172.5 c 128,-1,29
 124 1304 124 1304 214 1371.5 c 128,-1,30
 304 1439 304 1439 384.5 1451 c 128,-1,31
 465 1463 465 1463 515 1463 c 0,32,33
 658 1463 658 1463 769 1409.5 c 128,-1,34
 880 1356 880 1356 956.5 1262.5 c 128,-1,35
 1033 1169 1033 1169 1072.5 1043 c 128,-1,36
 1112 917 1112 917 1112 773 c 0,37,38
 1112 670 1112 670 1092 565.5 c 128,-1,39
 1072 461 1072 461 1031 365 c 1,40,41
 1070 318 1070 318 1110 274.5 c 128,-1,42
 1150 231 1150 231 1195.5 197.5 c 128,-1,43
 1241 164 1241 164 1293 144 c 128,-1,44
 1345 124 1345 124 1408 124 c 0,45,46
 1501 124 1501 124 1574.5 168 c 128,-1,47
 1648 212 1648 212 1699.5 290 c 128,-1,48
 1751 368 1751 368 1785 534 c 128,-1,49
 1819 700 1819 700 1797 862 c 128,-1,50
 1775 1024 1775 1024 1689 1162.5 c 128,-1,51
 1603 1301 1603 1301 1423 1323 c 128,-1,52
 1243 1345 1243 1345 1243 1345 c 1,53,-1
 1223 1517 l 1,54,55
 1415 1537 1415 1537 1568 1485.5 c 128,-1,56
 1721 1434 1721 1434 1807 1321 c 128,-1,57
 1893 1208 1893 1208 1934.5 1025 c 128,-1,58
 1976 842 1976 842 1976 708 c 0,59,60
 1976 538 1976 538 1934.5 402.5 c 128,-1,61
 1893 267 1893 267 1818 172.5 c 128,-1,62
 1743 78 1743 78 1638 28 c 128,-1,63
 1533 -22 1533 -22 1406 -22 c 0,64,65
 1325 -22 1325 -22 1259 -2 c 128,-1,66
 1193 18 1193 18 1138 52 c 128,-1,67
 1083 86 1083 86 1038 129.5 c 128,-1,68
 993 173 993 173 953 221 c 1,69,70
 916 167 916 167 870.5 122.5 c 128,-1,71
 825 78 825 78 771 45.5 c 128,-1,72
 717 13 717 13 655.5 -4.5 c 128,-1,73
 594 -22 594 -22 524 -22 c 0,0,1
849 351 m 1,74,75
 817 392 817 392 784 427.5 c 128,-1,76
 751 463 751 463 714.5 490 c 128,-1,77
 678 517 678 517 637 532.5 c 128,-1,78
 596 548 596 548 548 548 c 0,79,80
 505 548 505 548 464 534.5 c 128,-1,81
 423 521 423 521 391.5 493.5 c 128,-1,82
 360 466 360 466 341 425 c 128,-1,83
 322 384 322 384 322 329 c 0,84,85
 322 285 322 285 337 247 c 128,-1,86
 352 209 352 209 380 181.5 c 128,-1,87
 408 154 408 154 448 138.5 c 128,-1,88
 488 123 488 123 539 123 c 0,89,90
 588 123 588 123 632.5 139 c 128,-1,91
 677 155 677 155 716 185 c 128,-1,92
 755 215 755 215 788.5 257 c 128,-1,93
 822 299 822 299 849 351 c 1,74,75
EndSplineSet
Validated: 33
Substitution2: "Single Substitution lookup 5-1" u1110D.half
EndChar

StartChar: u1110E
Encoding: 205 69902 200
Width: 1795
GlyphClass: 2
Flags: W
AnchorPoint: "Anchor-10" 1570 1270 basechar 0
AnchorPoint: "Anchor-4" 964 6 basechar 0
AnchorPoint: "Anchor-3" 887 -82 basechar 0
AnchorPoint: "Anchor-2" 1364 86 basechar 0
AnchorPoint: "Anchor-1" 1216 1430 basechar 0
AnchorPoint: "Anchor-0" 928 1475 basechar 0
LayerCount: 2
Fore
SplineSet
921 -21 m 0,0,1
 732 -21 732 -21 589.5 15.5 c 128,-1,2
 447 52 447 52 347 110.5 c 128,-1,3
 247 169 247 169 186.5 242.5 c 128,-1,4
 126 316 126 316 92 528 c 1,5,-1
 256 488 l 1,6,7
 244 364 244 364 328 296 c 128,-1,8
 412 228 412 228 504 190 c 128,-1,9
 596 152 596 152 698 140 c 128,-1,10
 800 128 800 128 924 128 c 0,11,12
 1070 128 1070 128 1188.5 158.5 c 128,-1,13
 1307 189 1307 189 1391 240.5 c 128,-1,14
 1475 292 1475 292 1521 360.5 c 128,-1,15
 1567 429 1567 429 1567 504 c 0,16,17
 1567 528 1567 528 1563 552 c 128,-1,18
 1559 576 1559 576 1551 599 c 1,19,20
 1517 559 1517 559 1471 525.5 c 128,-1,21
 1425 492 1425 492 1371.5 467 c 128,-1,22
 1318 442 1318 442 1258.5 428 c 128,-1,23
 1199 414 1199 414 1136 414 c 0,24,25
 1057 414 1057 414 989 435 c 128,-1,26
 921 456 921 456 870.5 494.5 c 128,-1,27
 820 533 820 533 791 586.5 c 128,-1,28
 762 640 762 640 762 705 c 0,29,30
 762 762 762 762 788.5 814 c 128,-1,31
 815 866 815 866 864 905.5 c 128,-1,32
 913 945 913 945 983.5 968 c 128,-1,33
 1054 991 1054 991 1141 991 c 0,34,35
 1259 991 1259 991 1360 954 c 128,-1,36
 1461 917 1461 917 1539 854 c 1,37,38
 1548 887 1548 887 1548 923 c 0,39,40
 1548 1018 1548 1018 1497 1091.5 c 128,-1,41
 1446 1165 1446 1165 1358 1215.5 c 128,-1,42
 1270 1266 1270 1266 1153 1292.5 c 128,-1,43
 1036 1319 1036 1319 904 1319 c 0,44,45
 792 1319 792 1319 695 1300.5 c 128,-1,46
 598 1282 598 1282 519.5 1251.5 c 128,-1,47
 441 1221 441 1221 382.5 1182.5 c 128,-1,48
 324 1144 324 1144 288 1103 c 1,49,-1
 289 1100 l 1,50,51
 313 1110 313 1110 343.5 1115 c 128,-1,52
 374 1120 374 1120 405 1120 c 0,53,54
 461 1120 461 1120 508.5 1100.5 c 128,-1,55
 556 1081 556 1081 590 1046.5 c 128,-1,56
 624 1012 624 1012 643 965.5 c 128,-1,57
 662 919 662 919 662 864 c 0,58,59
 662 804 662 804 640 753 c 128,-1,60
 618 702 618 702 578.5 665 c 128,-1,61
 539 628 539 628 484 607.5 c 128,-1,62
 429 587 429 587 363 587 c 0,63,64
 291 587 291 587 234 611.5 c 128,-1,65
 177 636 177 636 137.5 678 c 128,-1,66
 98 720 98 720 77 776.5 c 128,-1,67
 56 833 56 833 56 897 c 0,68,69
 56 974 56 974 84.5 1046 c 128,-1,70
 113 1118 113 1118 165.5 1181 c 128,-1,71
 218 1244 218 1244 293.5 1296 c 128,-1,72
 369 1348 369 1348 463.5 1385.5 c 128,-1,73
 558 1423 558 1423 668.5 1443.5 c 128,-1,74
 779 1464 779 1464 903 1464 c 0,75,76
 1016 1464 1016 1464 1119 1446.5 c 128,-1,77
 1222 1429 1222 1429 1312 1396 c 128,-1,78
 1402 1363 1402 1363 1475 1316.5 c 128,-1,79
 1548 1270 1548 1270 1600 1211 c 128,-1,80
 1652 1152 1652 1152 1680.5 1082.5 c 128,-1,81
 1709 1013 1709 1013 1709 935 c 0,82,83
 1709 826 1709 826 1655 727 c 1,84,85
 1688 675 1688 675 1706 619 c 128,-1,86
 1724 563 1724 563 1724 506 c 0,87,88
 1724 395 1724 395 1662.5 298.5 c 128,-1,89
 1601 202 1601 202 1493 131 c 128,-1,90
 1385 60 1385 60 1238.5 19.5 c 128,-1,91
 1092 -21 1092 -21 921 -21 c 0,0,1
367 710 m 0,92,93
 440 710 440 710 485 752.5 c 128,-1,94
 530 795 530 795 530 866 c 0,95,96
 530 933 530 933 486.5 976 c 128,-1,97
 443 1019 443 1019 367 1019 c 0,98,99
 328 1019 328 1019 298 1007.5 c 128,-1,100
 268 996 268 996 247 975.5 c 128,-1,101
 226 955 226 955 215 927 c 128,-1,102
 204 899 204 899 204 867 c 0,103,104
 204 837 204 837 214 809 c 128,-1,105
 224 781 224 781 244.5 759 c 128,-1,106
 265 737 265 737 295.5 723.5 c 128,-1,107
 326 710 326 710 367 710 c 0,92,93
1479 720 m 1,108,109
 1424 782 1424 782 1342 821.5 c 128,-1,110
 1260 861 1260 861 1159 861 c 0,111,112
 1101 861 1101 861 1056.5 849 c 128,-1,113
 1012 837 1012 837 982 816 c 128,-1,114
 952 795 952 795 936.5 767 c 128,-1,115
 921 739 921 739 921 707 c 0,116,117
 921 674 921 674 936 644.5 c 128,-1,118
 951 615 951 615 980 593 c 128,-1,119
 1009 571 1009 571 1051 558.5 c 128,-1,120
 1093 546 1093 546 1146 546 c 0,121,122
 1196 546 1196 546 1245 558 c 128,-1,123
 1294 570 1294 570 1337.5 592.5 c 128,-1,124
 1381 615 1381 615 1417.5 647.5 c 128,-1,125
 1454 680 1454 680 1479 720 c 1,108,109
EndSplineSet
Validated: 33
Substitution2: "Single Substitution lookup 5-1" u1110E.half
EndChar

StartChar: u1110F
Encoding: 206 69903 201
Width: 1959
GlyphClass: 2
Flags: W
AnchorPoint: "Anchor-10" 1720 1434 basechar 0
AnchorPoint: "Anchor-4" 915 18 basechar 0
AnchorPoint: "Anchor-3" 833 -82 basechar 0
AnchorPoint: "Anchor-2" 1331 130 basechar 0
AnchorPoint: "Anchor-1" 1584 1488 basechar 0
AnchorPoint: "Anchor-0" 831 1474 basechar 0
LayerCount: 2
Fore
SplineSet
745 -25 m 0,0,1
 685 -25 685 -25 609.5 -19 c 128,-1,2
 534 -13 534 -13 457.5 -3.5 c 128,-1,3
 381 6 381 6 270.5 49 c 128,-1,4
 160 92 160 92 128 176 c 1,5,-1
 156 332 l 1,6,7
 280 252 280 252 377 327.5 c 128,-1,8
 474 403 474 403 539.5 498.5 c 128,-1,9
 605 594 605 594 641.5 699.5 c 128,-1,10
 678 805 678 805 678 919 c 0,11,12
 678 1008 678 1008 652.5 1080.5 c 128,-1,13
 627 1153 627 1153 581 1205 c 128,-1,14
 535 1257 535 1257 469.5 1294.5 c 128,-1,15
 404 1332 404 1332 300 1320 c 1,16,17
 196 1276 196 1276 176 1174 c 128,-1,18
 156 1072 156 1072 184 1027 c 1,19,-1
 60 1140 l 1,20,21
 56 1308 56 1308 148 1387.5 c 128,-1,22
 240 1467 240 1467 340 1459 c 1,23,24
 463 1459 463 1459 558 1415.5 c 128,-1,25
 653 1372 653 1372 717.5 1298 c 128,-1,26
 782 1224 782 1224 815.5 1125.5 c 128,-1,27
 849 1027 849 1027 849 917 c 0,28,29
 849 804 849 804 816.5 699 c 128,-1,30
 784 594 784 594 728 499 c 128,-1,31
 672 404 672 404 576 298 c 128,-1,32
 480 192 480 192 360 180 c 1,33,-1
 356 180 l 1,34,35
 476 128 476 128 579.5 124 c 128,-1,36
 683 120 683 120 768 120 c 0,37,38
 922 120 922 120 1055 161.5 c 128,-1,39
 1188 203 1188 203 1285.5 286 c 128,-1,40
 1383 369 1383 369 1438.5 492.5 c 128,-1,41
 1494 616 1494 616 1494 780 c 0,42,43
 1494 816 1494 816 1491 852 c 1,44,-1
 1478 852 l 2,45,46
 1366 852 1366 852 1283.5 890 c 128,-1,47
 1201 928 1201 928 1147 989.5 c 128,-1,48
 1093 1051 1093 1051 1066.5 1128.5 c 128,-1,49
 1040 1206 1040 1206 1040 1284 c 1,50,51
 1060 1420 1060 1420 1144 1483.5 c 128,-1,52
 1228 1547 1228 1547 1332 1531 c 1,53,-1
 1340 1424 l 1,54,55
 1244 1404 1244 1404 1226 1358 c 128,-1,56
 1208 1312 1208 1312 1203 1298 c 1,57,58
 1203 1238 1203 1238 1219 1182 c 128,-1,59
 1235 1126 1235 1126 1269 1083.5 c 128,-1,60
 1303 1041 1303 1041 1355 1015.5 c 128,-1,61
 1407 990 1407 990 1479 990 c 0,62,63
 1547 990 1547 990 1598.5 1013 c 128,-1,64
 1650 1036 1650 1036 1684.5 1077.5 c 128,-1,65
 1719 1119 1719 1119 1736.5 1175.5 c 128,-1,66
 1754 1232 1754 1232 1754 1298 c 0,67,68
 1754 1339 1754 1339 1716.5 1383.5 c 128,-1,69
 1679 1428 1679 1428 1547 1428 c 1,70,-1
 1535 1535 l 1,71,72
 1667 1575 1667 1575 1779 1503.5 c 128,-1,73
 1891 1432 1891 1432 1899 1296 c 1,74,75
 1907 1240 1907 1240 1895 1178 c 128,-1,76
 1883 1116 1883 1116 1852.5 1056 c 128,-1,77
 1822 996 1822 996 1773 953 c 128,-1,78
 1724 910 1724 910 1657 884 c 1,79,80
 1661 855 1661 855 1663 827.5 c 128,-1,81
 1665 800 1665 800 1665 773 c 0,82,83
 1665 578 1665 578 1598 429 c 128,-1,84
 1531 280 1531 280 1409.5 179 c 128,-1,85
 1288 78 1288 78 1118.5 26.5 c 128,-1,86
 949 -25 949 -25 745 -25 c 0,0,1
EndSplineSet
Validated: 33
Substitution2: "Single Substitution lookup 5-1" u1110F.half
EndChar

StartChar: u11110
Encoding: 207 69904 202
Width: 1747
GlyphClass: 2
Flags: W
AnchorPoint: "Anchor-10" 1570 1365 basechar 0
AnchorPoint: "Anchor-4" 867 31 basechar 0
AnchorPoint: "Anchor-3" 847 -82 basechar 0
AnchorPoint: "Anchor-2" 1297 109 basechar 0
AnchorPoint: "Anchor-1" 1391 1451 basechar 0
AnchorPoint: "Anchor-0" 847 1434 basechar 0
LayerCount: 2
Fore
SplineSet
829 -26 m 0,0,1
 657 -26 657 -26 531.5 13 c 128,-1,2
 406 52 406 52 325 117.5 c 128,-1,3
 244 183 244 183 205 267.5 c 128,-1,4
 166 352 166 352 166 442 c 0,5,6
 166 530 166 530 199 591.5 c 128,-1,7
 232 653 232 653 284.5 696.5 c 128,-1,8
 337 740 337 740 403 770.5 c 128,-1,9
 469 801 469 801 536 827 c 0,10,11
 595 851 595 851 650.5 874.5 c 128,-1,12
 706 898 706 898 748.5 929 c 128,-1,13
 791 960 791 960 817 1000.5 c 128,-1,14
 843 1041 843 1041 843 1099 c 0,15,16
 843 1141 843 1141 827 1179.5 c 128,-1,17
 811 1218 811 1218 778 1248 c 128,-1,18
 745 1278 745 1278 694.5 1296 c 128,-1,19
 644 1314 644 1314 575 1314 c 0,20,21
 507 1314 507 1314 453 1293 c 128,-1,22
 399 1272 399 1272 337.5 1230 c 128,-1,23
 276 1188 276 1188 218 1068 c 128,-1,24
 160 948 160 948 280 884 c 1,25,-1
 88 880 l 1,26,27
 68 1068 68 1068 122 1175 c 128,-1,28
 176 1282 176 1282 253 1343 c 128,-1,29
 330 1404 330 1404 410.5 1431.5 c 128,-1,30
 491 1459 491 1459 582 1459 c 0,31,32
 688 1459 688 1459 768.5 1428.5 c 128,-1,33
 849 1398 849 1398 903.5 1347 c 128,-1,34
 958 1296 958 1296 986 1229 c 128,-1,35
 1014 1162 1014 1162 1014 1089 c 0,36,37
 1014 1040 1014 1040 1003.5 1000 c 128,-1,38
 993 960 993 960 975 927 c 1,39,40
 1021 880 1021 880 1085.5 849 c 128,-1,41
 1150 818 1150 818 1237 818 c 0,42,43
 1300 818 1300 818 1351.5 834.5 c 128,-1,44
 1403 851 1403 851 1440 883 c 128,-1,45
 1477 915 1477 915 1497 962.5 c 128,-1,46
 1517 1010 1517 1010 1517 1072 c 0,47,48
 1517 1131 1517 1131 1499 1174.5 c 128,-1,49
 1481 1218 1481 1218 1452.5 1271 c 128,-1,50
 1424 1324 1424 1324 1326 1350 c 128,-1,51
 1228 1376 1228 1376 1216 1282 c 1,52,-1
 1092 1424 l 1,53,54
 1276 1511 1276 1511 1403.5 1469.5 c 128,-1,55
 1531 1428 1531 1428 1586 1355 c 128,-1,56
 1641 1282 1641 1282 1664 1218.5 c 128,-1,57
 1687 1155 1687 1155 1687 1075 c 0,58,59
 1687 987 1687 987 1656.5 913 c 128,-1,60
 1626 839 1626 839 1567.5 785.5 c 128,-1,61
 1509 732 1509 732 1424.5 702.5 c 128,-1,62
 1340 673 1340 673 1233 673 c 0,63,64
 1172 673 1172 673 1119.5 684.5 c 128,-1,65
 1067 696 1067 696 1022.5 715.5 c 128,-1,66
 978 735 978 735 941 762 c 128,-1,67
 904 789 904 789 872 819 c 1,68,69
 813 777 813 777 742.5 749 c 128,-1,70
 672 721 672 721 603 695 c 0,71,72
 550 675 550 675 502 652 c 128,-1,73
 454 629 454 629 417.5 599 c 128,-1,74
 381 569 381 569 359.5 529 c 128,-1,75
 338 489 338 489 338 434 c 0,76,77
 338 367 338 367 371 309.5 c 128,-1,78
 404 252 404 252 467.5 209.5 c 128,-1,79
 531 167 531 167 624 143 c 128,-1,80
 717 119 717 119 837 119 c 0,81,82
 975 119 975 119 1079.5 139.5 c 128,-1,83
 1184 160 1184 160 1296 218 c 128,-1,84
 1408 276 1408 276 1469.5 404 c 128,-1,85
 1531 532 1531 532 1412 568 c 1,86,-1
 1603 604 l 1,87,88
 1647 396 1647 396 1563 289.5 c 128,-1,89
 1479 183 1479 183 1374 117.5 c 128,-1,90
 1269 52 1269 52 1132 13 c 128,-1,91
 995 -26 995 -26 829 -26 c 0,0,1
EndSplineSet
Validated: 33
Substitution2: "Single Substitution lookup 5-1" u11110.half
EndChar

StartChar: u11111
Encoding: 208 69905 203
Width: 2159
GlyphClass: 2
Flags: W
AnchorPoint: "Anchor-10" 2038 1214 basechar 0
AnchorPoint: "Anchor-4" 1447 -55 basechar 0
AnchorPoint: "Anchor-3" 1133 -41 basechar 0
AnchorPoint: "Anchor-2" 1816 27 basechar 0
AnchorPoint: "Anchor-1" 1666 1406 basechar 0
AnchorPoint: "Anchor-0" 1106 1475 basechar 0
LayerCount: 2
Fore
SplineSet
1211 8 m 1,0,-1
 1285 184 l 1,1,-1
 1827 675 l 1,2,-1
 1827 682 l 1,3,-1
 1181 682 l 1,4,5
 1187 639 1187 639 1187 593 c 0,6,7
 1187 514 1187 514 1170 438 c 128,-1,8
 1153 362 1153 362 1120 294 c 128,-1,9
 1087 226 1087 226 1038 168.5 c 128,-1,10
 989 111 989 111 925.5 69.5 c 128,-1,11
 862 28 862 28 784 5 c 128,-1,12
 706 -18 706 -18 615 -18 c 0,13,14
 487 -18 487 -18 380.5 28 c 128,-1,15
 274 74 274 74 197.5 156 c 128,-1,16
 121 238 121 238 79 349.5 c 128,-1,17
 37 461 37 461 37 591 c 0,18,19
 37 719 37 719 77 833.5 c 128,-1,20
 117 948 117 948 192.5 1045.5 c 128,-1,21
 268 1143 268 1143 377 1220.5 c 128,-1,22
 486 1298 486 1298 623 1352.5 c 128,-1,23
 760 1407 760 1407 923.5 1436 c 128,-1,24
 1087 1465 1087 1465 1272 1465 c 0,25,26
 1411 1465 1411 1465 1545.5 1450.5 c 128,-1,27
 1680 1436 1680 1436 1800 1404 c 128,-1,28
 1920 1372 1920 1372 1996 1322 c 128,-1,29
 2072 1272 2072 1272 2108 1217 c 1,30,-1
 2060 1044 l 1,31,32
 2024 1156 2024 1156 1924 1210 c 128,-1,33
 1824 1264 1824 1264 1744 1276.5 c 128,-1,34
 1664 1289 1664 1289 1530.5 1304.5 c 128,-1,35
 1397 1320 1397 1320 1264 1320 c 0,36,37
 1094 1320 1094 1320 946 1294 c 128,-1,38
 798 1268 798 1268 674 1217 c 1,39,40
 841 1169 841 1169 963.5 1068 c 128,-1,41
 1086 967 1086 967 1144 824 c 1,42,-1
 1944 824 l 1,43,-1
 2077 703 l 1,44,-1
 1460 158 l 1,45,-1
 1460 150 l 1,46,-1
 1956 148 l 1,47,-1
 2080 8 l 1,48,-1
 1211 8 l 1,0,-1
501 1120 m 1,49,50
 377 1051 377 1051 292 913.5 c 128,-1,51
 207 776 207 776 207 598 c 0,52,53
 207 496 207 496 236 410 c 128,-1,54
 265 324 265 324 318 261 c 128,-1,55
 371 198 371 198 447.5 162.5 c 128,-1,56
 524 127 524 127 618 127 c 0,57,58
 710 127 710 127 784.5 161.5 c 128,-1,59
 859 196 859 196 911.5 257.5 c 128,-1,60
 964 319 964 319 992.5 403 c 128,-1,61
 1021 487 1021 487 1021 587 c 0,62,63
 1021 685 1021 685 989.5 772.5 c 128,-1,64
 958 860 958 860 895.5 932 c 128,-1,65
 833 1004 833 1004 727 1068 c 128,-1,66
 621 1132 621 1132 501 1120 c 1,49,50
EndSplineSet
Validated: 33
Substitution2: "Single Substitution lookup 5-1" u11111.half
EndChar

StartChar: u11112
Encoding: 209 69906 204
Width: 2255
GlyphClass: 2
Flags: W
AnchorPoint: "Anchor-10" 2089 1188 basechar 0
AnchorPoint: "Anchor-4" 1447 -27 basechar 0
AnchorPoint: "Anchor-3" 1242 -41 basechar 0
AnchorPoint: "Anchor-2" 1857 41 basechar 0
AnchorPoint: "Anchor-1" 1679 1420 basechar 0
AnchorPoint: "Anchor-0" 1133 1475 basechar 0
LayerCount: 2
Fore
SplineSet
630 -34 m 0,0,1
 502 -34 502 -34 395.5 12 c 128,-1,2
 289 58 289 58 212.5 140 c 128,-1,3
 136 222 136 222 94 333.5 c 128,-1,4
 52 445 52 445 52 575 c 0,5,6
 52 703 52 703 92 817.5 c 128,-1,7
 132 932 132 932 207.5 1029.5 c 128,-1,8
 283 1127 283 1127 392 1204.5 c 128,-1,9
 501 1282 501 1282 638 1336.5 c 128,-1,10
 775 1391 775 1391 938.5 1420 c 128,-1,11
 1102 1449 1102 1449 1287 1449 c 0,12,13
 1426 1449 1426 1449 1560.5 1434.5 c 128,-1,14
 1695 1420 1695 1420 1815 1396.5 c 128,-1,15
 1935 1373 1935 1373 2051 1316.5 c 128,-1,16
 2167 1260 2167 1260 2196 1172 c 1,17,-1
 2115 1028 l 1,18,19
 2079 1152 2079 1152 1959 1194 c 128,-1,20
 1839 1236 1839 1236 1759 1254.5 c 128,-1,21
 1679 1273 1679 1273 1545.5 1288.5 c 128,-1,22
 1412 1304 1412 1304 1279 1304 c 0,23,24
 1109 1304 1109 1304 961 1278 c 128,-1,25
 813 1252 813 1252 656 1196 c 1,26,27
 884 1192 884 1192 1018 1072 c 128,-1,28
 1152 952 1152 952 1161 803 c 1,29,30
 1249 823 1249 823 1342.5 835.5 c 128,-1,31
 1436 848 1436 848 1542 848 c 0,32,33
 1685 848 1685 848 1805 816.5 c 128,-1,34
 1925 785 1925 785 2012 724.5 c 128,-1,35
 2099 664 2099 664 2147.5 576.5 c 128,-1,36
 2196 489 2196 489 2196 378 c 0,37,38
 2196 289 2196 289 2162.5 213.5 c 128,-1,39
 2129 138 2129 138 2071 83 c 128,-1,40
 2013 28 2013 28 1934 -3 c 128,-1,41
 1855 -34 1855 -34 1764 -34 c 0,42,43
 1663 -34 1663 -34 1585 -2.5 c 128,-1,44
 1507 29 1507 29 1454 82.5 c 128,-1,45
 1401 136 1401 136 1373.5 205.5 c 128,-1,46
 1346 275 1346 275 1346 350 c 0,47,48
 1346 415 1346 415 1364.5 472 c 128,-1,49
 1383 529 1383 529 1418.5 575.5 c 128,-1,50
 1454 622 1454 622 1505.5 655 c 128,-1,51
 1557 688 1557 688 1623 705 c 1,52,-1
 1623 708 l 1,53,54
 1606 710 1606 710 1588 712 c 128,-1,55
 1570 714 1570 714 1552 714 c 0,56,57
 1463 714 1463 714 1370 701.5 c 128,-1,58
 1277 689 1277 689 1196 668 c 1,59,60
 1202 623 1202 623 1202 577 c 0,61,62
 1202 498 1202 498 1185 422 c 128,-1,63
 1168 346 1168 346 1135 278 c 128,-1,64
 1102 210 1102 210 1053 152.5 c 128,-1,65
 1004 95 1004 95 940.5 53.5 c 128,-1,66
 877 12 877 12 799 -11 c 128,-1,67
 721 -34 721 -34 630 -34 c 0,0,1
500 1080 m 1,68,69
 360 1000 360 1000 291 880 c 128,-1,70
 222 760 222 760 222 582 c 0,71,72
 222 480 222 480 251 394 c 128,-1,73
 280 308 280 308 333 245 c 128,-1,74
 386 182 386 182 462.5 146.5 c 128,-1,75
 539 111 539 111 633 111 c 0,76,77
 725 111 725 111 799.5 145.5 c 128,-1,78
 874 180 874 180 926.5 241.5 c 128,-1,79
 979 303 979 303 1007.5 387 c 128,-1,80
 1036 471 1036 471 1036 571 c 0,81,82
 1036 669 1036 669 1026 768.5 c 128,-1,83
 1016 868 1016 868 946 932 c 128,-1,84
 876 996 876 996 770 1042 c 128,-1,85
 664 1088 664 1088 500 1080 c 1,68,69
1765 105 m 0,86,87
 1826 105 1826 105 1875 124.5 c 128,-1,88
 1924 144 1924 144 1959 180 c 128,-1,89
 1994 216 1994 216 2013 266 c 128,-1,90
 2032 316 2032 316 2032 377 c 0,91,92
 2032 433 2032 433 2014.5 482 c 128,-1,93
 1997 531 1997 531 1963 567 c 128,-1,94
 1929 603 1929 603 1880 624 c 128,-1,95
 1831 645 1831 645 1769 645 c 0,96,97
 1713 645 1713 645 1664.5 624.5 c 128,-1,98
 1616 604 1616 604 1580 567 c 128,-1,99
 1544 530 1544 530 1523 478 c 128,-1,100
 1502 426 1502 426 1502 363 c 0,101,102
 1502 304 1502 304 1522 256.5 c 128,-1,103
 1542 209 1542 209 1577 175 c 128,-1,104
 1612 141 1612 141 1660 123 c 128,-1,105
 1708 105 1708 105 1765 105 c 0,86,87
EndSplineSet
Validated: 33
Substitution2: "Single Substitution lookup 5-1" u11112.half
EndChar

StartChar: u11113
Encoding: 210 69907 205
Width: 1292
GlyphClass: 2
Flags: W
AnchorPoint: "Anchor-10" 1120 1256 basechar 0
AnchorPoint: "Anchor-4" 727 -1 basechar 0
AnchorPoint: "Anchor-3" 587 -96 basechar 0
AnchorPoint: "Anchor-2" 956 27 basechar 0
AnchorPoint: "Anchor-1" 895 1427 basechar 0
AnchorPoint: "Anchor-0" 601 1475 basechar 0
LayerCount: 2
Fore
SplineSet
1260 216 m 1,0,1
 1233 147 1233 147 1192 103.5 c 128,-1,2
 1151 60 1151 60 1103.5 34 c 128,-1,3
 1056 8 1056 8 1005 -3 c 128,-1,4
 954 -14 954 -14 907.5 -18 c 128,-1,5
 861 -22 861 -22 822.5 -22.5 c 128,-1,6
 784 -23 784 -23 760 -28 c 1,7,-1
 216 0 l 1,8,9
 116 20 116 20 102 36 c 128,-1,10
 88 52 88 52 88 75 c 0,11,12
 88 148 88 148 113 206.5 c 128,-1,13
 138 265 138 265 180.5 312 c 128,-1,14
 223 359 223 359 280 397 c 128,-1,15
 337 435 337 435 401 467 c 128,-1,16
 465 499 465 499 533 526.5 c 128,-1,17
 601 554 601 554 665 580 c 0,18,19
 746 613 746 613 819.5 649 c 128,-1,20
 893 685 893 685 949 731.5 c 128,-1,21
 1005 778 1005 778 1038.5 839.5 c 128,-1,22
 1072 901 1072 901 1072 984 c 0,23,24
 1072 1052 1072 1052 1045.5 1112 c 128,-1,25
 1019 1172 1019 1172 968 1217 c 128,-1,26
 917 1262 917 1262 843.5 1288 c 128,-1,27
 770 1314 770 1314 677 1314 c 0,28,29
 585 1314 585 1314 504.5 1301 c 128,-1,30
 424 1288 424 1288 332 1198 c 128,-1,31
 240 1108 240 1108 264 986 c 128,-1,32
 288 864 288 864 468 804 c 1,33,-1
 172 736 l 1,34,35
 68 840 68 840 70 1016 c 128,-1,36
 72 1192 72 1192 174 1294 c 128,-1,37
 276 1396 276 1396 410 1431.5 c 128,-1,38
 544 1467 544 1467 694 1459 c 1,39,40
 830 1459 830 1459 932.5 1420.5 c 128,-1,41
 1035 1382 1035 1382 1104 1316.5 c 128,-1,42
 1173 1251 1173 1251 1207.5 1165.5 c 128,-1,43
 1242 1080 1242 1080 1242 987 c 0,44,45
 1242 873 1242 873 1200 790 c 128,-1,46
 1158 707 1158 707 1089.5 645.5 c 128,-1,47
 1021 584 1021 584 933.5 539.5 c 128,-1,48
 846 495 846 495 755 459 c 0,49,50
 656 420 656 420 572.5 387 c 128,-1,51
 489 354 489 354 425.5 319 c 128,-1,52
 362 284 362 284 322 242 c 128,-1,53
 282 200 282 200 270 142 c 1,54,55
 337 143 337 143 417 136 c 128,-1,56
 497 129 497 129 579.5 123 c 128,-1,57
 662 117 662 117 741.5 118 c 128,-1,58
 821 119 821 119 887 136 c 128,-1,59
 953 153 953 153 1000 191.5 c 128,-1,60
 1047 230 1047 230 1064 300 c 1,61,-1
 1260 216 l 1,0,1
EndSplineSet
Validated: 33
Substitution2: "Single Substitution lookup 5-1" u11113.half
EndChar

StartChar: u11114
Encoding: 211 69908 206
Width: 1919
GlyphClass: 2
Flags: W
AnchorPoint: "Anchor-10" 1638 1352 basechar 0
AnchorPoint: "Anchor-4" 988 22 basechar 0
AnchorPoint: "Anchor-3" 969 -68 basechar 0
AnchorPoint: "Anchor-2" 1338 109 basechar 0
AnchorPoint: "Anchor-1" 1512 1430 basechar 0
AnchorPoint: "Anchor-0" 901 1447 basechar 0
LayerCount: 2
Fore
SplineSet
797 -26 m 0,0,1
 714 -26 714 -26 627.5 -20 c 128,-1,2
 541 -14 541 -14 408.5 13 c 128,-1,3
 276 40 276 40 194 114 c 128,-1,4
 112 188 112 188 52 304 c 1,5,-1
 156 408 l 1,6,7
 252 272 252 272 363.5 337.5 c 128,-1,8
 475 403 475 403 540 498 c 128,-1,9
 605 593 605 593 642 698 c 128,-1,10
 679 803 679 803 679 917 c 0,11,12
 679 1006 679 1006 653.5 1079 c 128,-1,13
 628 1152 628 1152 581.5 1204 c 128,-1,14
 535 1256 535 1256 471 1285 c 128,-1,15
 407 1314 407 1314 329 1314 c 0,16,17
 279 1314 279 1314 231.5 1257 c 128,-1,18
 184 1200 184 1200 176 1040 c 1,19,-1
 64 1108 l 1,20,21
 64 1284 64 1284 140 1367.5 c 128,-1,22
 216 1451 216 1451 343 1459 c 1,23,24
 465 1459 465 1459 559 1415.5 c 128,-1,25
 653 1372 653 1372 717.5 1298 c 128,-1,26
 782 1224 782 1224 815.5 1126 c 128,-1,27
 849 1028 849 1028 849 919 c 0,28,29
 849 807 849 807 814.5 699.5 c 128,-1,30
 780 592 780 592 722 495 c 128,-1,31
 664 398 664 398 562 305 c 128,-1,32
 460 212 460 212 264 212 c 2,33,-1
 256 212 l 1,34,35
 420 152 420 152 468 142 c 128,-1,36
 516 132 516 132 568 128 c 128,-1,37
 620 124 620 124 683.5 122 c 128,-1,38
 747 120 747 120 795 120 c 0,39,40
 1012 120 1012 120 1181 170 c 128,-1,41
 1350 220 1350 220 1466.5 310 c 128,-1,42
 1583 400 1583 400 1643.5 525.5 c 128,-1,43
 1704 651 1704 651 1704 802 c 0,44,45
 1704 822 1704 822 1702 839.5 c 128,-1,46
 1700 857 1700 857 1697 874 c 1,47,-1
 1690 874 l 1,48,49
 1675 828 1675 828 1644.5 787.5 c 128,-1,50
 1614 747 1614 747 1570.5 717 c 128,-1,51
 1527 687 1527 687 1472 670 c 128,-1,52
 1417 653 1417 653 1353 653 c 0,53,54
 1271 653 1271 653 1199 681 c 128,-1,55
 1127 709 1127 709 1074 760.5 c 128,-1,56
 1021 812 1021 812 990 886 c 128,-1,57
 959 960 959 960 959 1053 c 0,58,59
 958 1141 958 1141 988 1215.5 c 128,-1,60
 1018 1290 1018 1290 1072.5 1344 c 128,-1,61
 1127 1398 1127 1398 1203 1428.5 c 128,-1,62
 1279 1459 1279 1459 1372 1459 c 0,63,64
 1493 1459 1493 1459 1586 1412.5 c 128,-1,65
 1679 1366 1679 1366 1742.5 1283 c 128,-1,66
 1806 1200 1806 1200 1838.5 1084 c 128,-1,67
 1871 968 1871 968 1871 830 c 0,68,69
 1871 646 1871 646 1802.5 489.5 c 128,-1,70
 1734 333 1734 333 1598.5 218.5 c 128,-1,71
 1463 104 1463 104 1262 39 c 128,-1,72
 1061 -26 1061 -26 797 -26 c 0,0,1
1379 797 m 256,73,74
 1434 797 1434 797 1481.5 816 c 128,-1,75
 1529 835 1529 835 1563.5 869 c 128,-1,76
 1598 903 1598 903 1618 949.5 c 128,-1,77
 1638 996 1638 996 1637 1051 c 0,78,79
 1636 1110 1636 1110 1616.5 1159 c 128,-1,80
 1597 1208 1597 1208 1562.5 1243 c 128,-1,81
 1528 1278 1528 1278 1480.5 1298 c 128,-1,82
 1433 1318 1433 1318 1377 1318 c 0,83,84
 1320 1318 1320 1318 1274 1297.5 c 128,-1,85
 1228 1277 1228 1277 1195 1241.5 c 128,-1,86
 1162 1206 1162 1206 1144 1158.5 c 128,-1,87
 1126 1111 1126 1111 1126 1056 c 0,88,89
 1126 994 1126 994 1145 945.5 c 128,-1,90
 1164 897 1164 897 1198 864 c 128,-1,91
 1232 831 1232 831 1278 814 c 128,-1,92
 1324 797 1324 797 1379 797 c 256,73,74
EndSplineSet
Validated: 33
Substitution2: "Single Substitution lookup 5-1" u11114.half
EndChar

StartChar: u11115
Encoding: 212 69909 207
Width: 2107
GlyphClass: 2
Flags: W
AnchorPoint: "Anchor-10" 1911 1242 basechar 0
AnchorPoint: "Anchor-4" 1420 0 basechar 0
AnchorPoint: "Anchor-3" 1065 -82 basechar 0
AnchorPoint: "Anchor-2" 1808 78 basechar 0
AnchorPoint: "Anchor-1" 1475 1447 basechar 0
AnchorPoint: "Anchor-0" 1051 1434 basechar 0
LayerCount: 2
Fore
SplineSet
288 0 m 1,0,1
 278 3 278 3 231.945229682 55.2314487633 c 0,2,3
 159 137 159 137 100 292 c 0,4,5
 80 345 80 345 68 456 c 0,6,7
 59 538 59 538 59 709 c 0,8,9
 59 868 59 868 95 981 c 0,10,11
 146 1142 146 1142 220.5 1242 c 128,-1,12
 295 1342 295 1342 394.5 1398.5 c 128,-1,13
 494 1455 494 1455 606 1455 c 0,14,15
 693 1455 693 1455 760 1426 c 128,-1,16
 827 1397 827 1397 872 1343.5 c 128,-1,17
 917 1290 917 1290 940 1214 c 128,-1,18
 963 1138 963 1138 963 1045 c 256,19,20
 963 952 963 952 936 865.5 c 128,-1,21
 909 779 909 779 876.5 697.5 c 128,-1,22
 844 616 844 616 817 539 c 128,-1,23
 790 462 790 462 790 388 c 0,24,25
 790 322 790 322 811.5 271.5 c 128,-1,26
 833 221 833 221 869.5 187.5 c 128,-1,27
 906 154 906 154 954.5 136.5 c 128,-1,28
 1003 119 1003 119 1056 119 c 256,29,30
 1109 119 1109 119 1156.5 136.5 c 128,-1,31
 1204 154 1204 154 1240 187.5 c 128,-1,32
 1276 221 1276 221 1297 271.5 c 128,-1,33
 1318 322 1318 322 1318 388 c 0,34,35
 1318 462 1318 462 1291 538.5 c 128,-1,36
 1264 615 1264 615 1231.5 695.5 c 128,-1,37
 1199 776 1199 776 1172 862.5 c 128,-1,38
 1145 949 1145 949 1145 1044 c 0,39,40
 1145 1136 1145 1136 1168 1211.5 c 128,-1,41
 1191 1287 1191 1287 1236 1341 c 128,-1,42
 1281 1395 1281 1395 1348 1425 c 128,-1,43
 1415 1455 1415 1455 1504 1455 c 0,44,45
 1615 1455 1615 1455 1714 1399.5 c 128,-1,46
 1813 1344 1813 1344 1887.5 1245 c 128,-1,47
 1962 1146 1962 1146 2005.5 1009 c 128,-1,48
 2049 872 2049 872 2049 709 c 0,49,50
 2049 611 2049 611 2031 511 c 128,-1,51
 2013 411 2013 411 1992.5 345.5 c 128,-1,52
 1972 280 1972 280 1940 184 c 128,-1,53
 1908 88 1908 88 1860 0 c 1,54,-1
 1708 92 l 1,55,56
 1788 224 1788 224 1833.5 367.5 c 128,-1,57
 1879 511 1879 511 1879 710 c 0,58,59
 1879 829 1879 829 1852 937 c 128,-1,60
 1825 1045 1825 1045 1776.5 1127 c 128,-1,61
 1728 1209 1728 1209 1660.5 1257.5 c 128,-1,62
 1593 1306 1593 1306 1511 1306 c 0,63,64
 1454 1306 1454 1306 1416 1285.5 c 128,-1,65
 1378 1265 1378 1265 1356 1231 c 128,-1,66
 1334 1197 1334 1197 1325 1153.5 c 128,-1,67
 1316 1110 1316 1110 1316 1064 c 0,68,69
 1316 971 1316 971 1343 883.5 c 128,-1,70
 1370 796 1370 796 1402.5 711.5 c 128,-1,71
 1435 627 1435 627 1462 544.5 c 128,-1,72
 1489 462 1489 462 1489 381 c 0,73,74
 1489 294 1489 294 1458 219 c 128,-1,75
 1427 144 1427 144 1370 88.5 c 128,-1,76
 1313 33 1313 33 1232.5 1.5 c 128,-1,77
 1152 -30 1152 -30 1054 -30 c 256,78,79
 956 -30 956 -30 875.5 1.5 c 128,-1,80
 795 33 795 33 738 88.5 c 128,-1,81
 681 144 681 144 650 219 c 128,-1,82
 619 294 619 294 619 381 c 0,83,84
 619 462 619 462 646 546 c 128,-1,85
 673 630 673 630 705.5 715.5 c 128,-1,86
 738 801 738 801 765 888 c 128,-1,87
 792 975 792 975 792 1064 c 0,88,89
 792 1110 792 1110 783 1153.5 c 128,-1,90
 774 1197 774 1197 752 1231 c 128,-1,91
 730 1265 730 1265 692.5 1285.5 c 128,-1,92
 655 1306 655 1306 599 1306 c 0,93,94
 517 1306 517 1306 449 1257 c 128,-1,95
 381 1208 381 1208 332 1126.5 c 128,-1,96
 283 1045 283 1045 256 937 c 128,-1,97
 229 829 229 829 229 710 c 0,98,99
 229 511 229 511 276.5 343.5 c 128,-1,100
 324 176 324 176 400 112 c 1,101,-1
 288 0 l 1,0,1
EndSplineSet
Validated: 1
Substitution2: "Single Substitution lookup 5-1" u11115.half
EndChar

StartChar: u11116
Encoding: 213 69910 208
Width: 2331
GlyphClass: 2
Flags: W
AnchorPoint: "Anchor-10" 2116 1242 basechar 0
AnchorPoint: "Anchor-4" 1492 54 basechar 0
AnchorPoint: "Anchor-3" 1215 -41 basechar 0
AnchorPoint: "Anchor-2" 1816 109 basechar 0
AnchorPoint: "Anchor-1" 1720 1447 basechar 0
AnchorPoint: "Anchor-0" 1161 1420 basechar 0
LayerCount: 2
Fore
SplineSet
698 -26 m 256,0,1
 562 -26 562 -26 444 28 c 128,-1,2
 326 82 326 82 239 180.5 c 128,-1,3
 152 279 152 279 102 415.5 c 128,-1,4
 52 552 52 552 52 717 c 256,5,6
 52 882 52 882 102 1018.5 c 128,-1,7
 152 1155 152 1155 239 1253 c 128,-1,8
 326 1351 326 1351 444 1405 c 128,-1,9
 562 1459 562 1459 698 1459 c 0,10,11
 840 1459 840 1459 960.5 1401.5 c 128,-1,12
 1081 1344 1081 1344 1169 1240 c 1,13,-1
 1256 1100 l 1,14,15
 1264 1236 1264 1236 1292 1292 c 128,-1,16
 1320 1348 1320 1348 1372 1385 c 128,-1,17
 1424 1422 1424 1422 1494.5 1440.5 c 128,-1,18
 1565 1459 1565 1459 1646 1459 c 0,19,20
 1793 1459 1793 1459 1911.5 1399 c 128,-1,21
 2030 1339 2030 1339 2114 1234.5 c 128,-1,22
 2198 1130 2198 1130 2243.5 989.5 c 128,-1,23
 2289 849 2289 849 2289 687 c 0,24,25
 2289 599 2289 599 2256 471.5 c 128,-1,26
 2223 344 2223 344 2160.5 260 c 128,-1,27
 2098 176 2098 176 1944.5 88 c 128,-1,28
 1791 0 1791 0 1568 0 c 1,29,-1
 1600 168 l 1,30,31
 1690 161 1690 161 1890.5 262.5 c 128,-1,32
 2091 364 2091 364 2111 608 c 1,33,34
 2118 824 2118 824 2083 940 c 128,-1,35
 2048 1056 2048 1056 1984.5 1138.5 c 128,-1,36
 1921 1221 1921 1221 1833 1266.5 c 128,-1,37
 1745 1312 1745 1312 1639 1314 c 0,38,39
 1521 1316 1521 1316 1418.5 1224 c 128,-1,40
 1316 1132 1316 1132 1324 932 c 1,41,42
 1336 836 1336 836 1339.5 832.5 c 128,-1,43
 1343 829 1343 829 1343 717 c 0,44,45
 1343 552 1343 552 1293 415.5 c 128,-1,46
 1243 279 1243 279 1156 180.5 c 128,-1,47
 1069 82 1069 82 951.5 28 c 128,-1,48
 834 -26 834 -26 698 -26 c 256,0,1
698 119 m 0,49,50
 799 119 799 119 885.5 162 c 128,-1,51
 972 205 972 205 1036 283.5 c 128,-1,52
 1100 362 1100 362 1136.5 471.5 c 128,-1,53
 1173 581 1173 581 1173 714 c 0,54,55
 1173 849 1173 849 1136.5 959.5 c 128,-1,56
 1100 1070 1100 1070 1036.5 1148.5 c 128,-1,57
 973 1227 973 1227 886 1270.5 c 128,-1,58
 799 1314 799 1314 698 1314 c 0,59,60
 598 1314 598 1314 511 1270.5 c 128,-1,61
 424 1227 424 1227 359.5 1148.5 c 128,-1,62
 295 1070 295 1070 258.5 959.5 c 128,-1,63
 222 849 222 849 222 714 c 0,64,65
 222 581 222 581 258.5 471.5 c 128,-1,66
 295 362 295 362 359.5 283.5 c 128,-1,67
 424 205 424 205 511 162 c 128,-1,68
 598 119 598 119 698 119 c 0,49,50
EndSplineSet
Validated: 33
Substitution2: "Single Substitution lookup 5-1" u11116.half
EndChar

StartChar: u11117
Encoding: 214 69911 209
Width: 2327
GlyphClass: 2
Flags: W
AnchorPoint: "Anchor-10" 2116 1201 basechar 0
AnchorPoint: "Anchor-4" 1406 -14 basechar 0
AnchorPoint: "Anchor-3" 1147 -14 basechar 0
AnchorPoint: "Anchor-2" 1789 27 basechar 0
AnchorPoint: "Anchor-1" 1679 1434 basechar 0
AnchorPoint: "Anchor-0" 1120 1418 basechar 0
LayerCount: 2
Fore
SplineSet
641 -26 m 0,0,1
 516 -26 516 -26 407 27.5 c 128,-1,2
 298 81 298 81 217.5 179 c 128,-1,3
 137 277 137 277 90.5 413 c 128,-1,4
 44 549 44 549 44 713 c 256,5,6
 44 877 44 877 90 1013 c 128,-1,7
 136 1149 136 1149 216 1246.5 c 128,-1,8
 296 1344 296 1344 405 1397.5 c 128,-1,9
 514 1451 514 1451 641 1451 c 0,10,11
 726 1451 726 1451 804.5 1424.5 c 128,-1,12
 883 1398 883 1398 950 1345 c 128,-1,13
 1017 1292 1017 1292 1070 1211.5 c 128,-1,14
 1123 1131 1123 1131 1155 1022 c 1,15,-1
 1160 1022 l 1,16,17
 1193 1132 1193 1132 1245.5 1212.5 c 128,-1,18
 1298 1293 1298 1293 1365 1346 c 128,-1,19
 1432 1399 1432 1399 1511 1425 c 128,-1,20
 1590 1451 1590 1451 1675 1451 c 0,21,22
 1801 1451 1801 1451 1910 1397.5 c 128,-1,23
 2019 1344 2019 1344 2099.5 1246.5 c 128,-1,24
 2180 1149 2180 1149 2226 1013 c 128,-1,25
 2272 877 2272 877 2272 713 c 256,26,27
 2272 549 2272 549 2225.5 413 c 128,-1,28
 2179 277 2179 277 2098.5 179 c 128,-1,29
 2018 81 2018 81 1909 27.5 c 128,-1,30
 1800 -26 1800 -26 1675 -26 c 0,31,32
 1591 -26 1591 -26 1512.5 0 c 128,-1,33
 1434 26 1434 26 1366.5 77 c 128,-1,34
 1299 128 1299 128 1246 206 c 128,-1,35
 1193 284 1193 284 1161 389 c 1,36,-1
 1156 389 l 1,37,38
 1123 285 1123 285 1070 207 c 128,-1,39
 1017 129 1017 129 950 77.5 c 128,-1,40
 883 26 883 26 804.5 0 c 128,-1,41
 726 -26 726 -26 641 -26 c 0,0,1
641 118 m 0,42,43
 732 118 732 118 811.5 161 c 128,-1,44
 891 204 891 204 950.5 282 c 128,-1,45
 1010 360 1010 360 1043.5 469 c 128,-1,46
 1077 578 1077 578 1077 710 c 0,47,48
 1077 844 1077 844 1043.5 954 c 128,-1,49
 1010 1064 1010 1064 950.5 1142 c 128,-1,50
 891 1220 891 1220 811.5 1263.5 c 128,-1,51
 732 1307 732 1307 641 1307 c 0,52,53
 549 1307 549 1307 469.5 1263.5 c 128,-1,54
 390 1220 390 1220 331 1142 c 128,-1,55
 272 1064 272 1064 238.5 954 c 128,-1,56
 205 844 205 844 205 710 c 0,57,58
 205 578 205 578 239 469 c 128,-1,59
 273 360 273 360 331.5 282 c 128,-1,60
 390 204 390 204 469.5 161 c 128,-1,61
 549 118 549 118 641 118 c 0,42,43
1675 118 m 0,62,63
 1767 118 1767 118 1846.5 161 c 128,-1,64
 1926 204 1926 204 1985 282 c 128,-1,65
 2044 360 2044 360 2077.5 469 c 128,-1,66
 2111 578 2111 578 2111 710 c 0,67,68
 2111 844 2111 844 2077.5 954 c 128,-1,69
 2044 1064 2044 1064 1985 1142 c 128,-1,70
 1926 1220 1926 1220 1846.5 1263.5 c 128,-1,71
 1767 1307 1767 1307 1675 1307 c 0,72,73
 1584 1307 1584 1307 1504.5 1263.5 c 128,-1,74
 1425 1220 1425 1220 1365.5 1142 c 128,-1,75
 1306 1064 1306 1064 1272.5 954 c 128,-1,76
 1239 844 1239 844 1239 710 c 0,77,78
 1239 578 1239 578 1273 469 c 128,-1,79
 1307 360 1307 360 1366 282 c 128,-1,80
 1425 204 1425 204 1504.5 161 c 128,-1,81
 1584 118 1584 118 1675 118 c 0,62,63
EndSplineSet
Validated: 1
Substitution2: "Single Substitution lookup 5-1" u11117.half
EndChar

StartChar: u11118
Encoding: 215 69912 210
Width: 1463
GlyphClass: 2
Flags: W
AnchorPoint: "Anchor-10" 1242 1242 basechar 0
AnchorPoint: "Anchor-4" 702 5 basechar 0
AnchorPoint: "Anchor-3" 669 -82 basechar 0
AnchorPoint: "Anchor-2" 983 68 basechar 0
AnchorPoint: "Anchor-1" 1022 1405 basechar 0
AnchorPoint: "Anchor-0" 655 1529 basechar 0
LayerCount: 2
Fore
SplineSet
697 -30 m 1,0,1
 504 -36 504 -36 378 16 c 128,-1,2
 252 68 252 68 181 146 c 128,-1,3
 110 224 110 224 94 264 c 1,4,-1
 266 296 l 1,5,6
 312 260 312 260 312 260 c 0,7,8
 489 129 489 129 703 115 c 0,9,10
 805 108 805 108 919 159 c 0,11,12
 1018 203 1018 203 1089.5 282.5 c 128,-1,13
 1161 362 1161 362 1201.5 472.5 c 128,-1,14
 1242 583 1242 583 1242 716 c 0,15,16
 1242 848 1242 848 1202.5 957.5 c 128,-1,17
 1163 1067 1163 1067 1092.5 1145 c 128,-1,18
 1022 1223 1022 1223 924 1277.5 c 128,-1,19
 826 1332 826 1332 710 1332 c 1,20,21
 502 1347 502 1347 396 1295 c 128,-1,22
 290 1243 290 1243 246 1120 c 1,23,-1
 58 1108 l 1,24,25
 146 1348 146 1348 315 1423 c 128,-1,26
 484 1498 484 1498 710 1480 c 1,27,28
 862 1480 862 1480 992 1413 c 128,-1,29
 1122 1346 1122 1346 1215 1248 c 128,-1,30
 1308 1150 1308 1150 1360 1013.5 c 128,-1,31
 1412 877 1412 877 1412 713 c 0,32,33
 1412 548 1412 548 1359 411 c 128,-1,34
 1306 274 1306 274 1211 176 c 128,-1,35
 1116 78 1116 78 984.5 24 c 128,-1,36
 853 -30 853 -30 697 -30 c 1,0,1
EndSplineSet
Validated: 33
Substitution2: "Single Substitution lookup 5-1" u11118.half
EndChar

StartChar: u11119
Encoding: 216 69913 211
Width: 1631
GlyphClass: 2
Flags: W
AnchorPoint: "Anchor-10" 1420 1174 basechar 0
AnchorPoint: "Anchor-4" 792 14 basechar 0
AnchorPoint: "Anchor-3" 806 -14 basechar 0
AnchorPoint: "Anchor-2" 1201 68 basechar 0
AnchorPoint: "Anchor-1" 1130 1394 basechar 0
AnchorPoint: "Anchor-0" 819 1475 basechar 0
LayerCount: 2
Fore
SplineSet
476 0 m 1,0,1
 348 52 348 52 254 152 c 128,-1,2
 160 252 160 252 126.5 330.5 c 128,-1,3
 93 409 93 409 76.5 499.5 c 128,-1,4
 60 590 60 590 60 670 c 0,5,6
 60 855 60 855 116.5 1001.5 c 128,-1,7
 173 1148 173 1148 273.5 1249.5 c 128,-1,8
 374 1351 374 1351 512 1405 c 128,-1,9
 650 1459 650 1459 814 1459 c 256,10,11
 978 1459 978 1459 1117 1405 c 128,-1,12
 1256 1351 1256 1351 1357 1249.5 c 128,-1,13
 1458 1148 1458 1148 1514.5 1001.5 c 128,-1,14
 1571 855 1571 855 1571 670 c 0,15,16
 1571 588 1571 588 1554.5 496.5 c 128,-1,17
 1538 405 1538 405 1492.5 304.5 c 128,-1,18
 1447 204 1447 204 1343.5 108 c 128,-1,19
 1240 12 1240 12 1148 -4 c 1,20,21
 1108 172 1108 172 804 208 c 1,22,23
 544 176 544 176 476 0 c 1,0,1
440 196 m 1,24,25
 504 268 504 268 568.5 302 c 128,-1,26
 633 336 633 336 694.5 347 c 128,-1,27
 756 358 756 358 815 358 c 256,28,29
 874 358 874 358 999 321 c 128,-1,30
 1124 284 1124 284 1208 188 c 1,31,32
 1308 264 1308 264 1354.5 399.5 c 128,-1,33
 1401 535 1401 535 1401 664 c 0,34,35
 1401 816 1401 816 1358 936.5 c 128,-1,36
 1315 1057 1315 1057 1237 1141 c 128,-1,37
 1159 1225 1159 1225 1051 1269.5 c 128,-1,38
 943 1314 943 1314 814 1314 c 0,39,40
 686 1314 686 1314 579 1269.5 c 128,-1,41
 472 1225 472 1225 394.5 1141 c 128,-1,42
 317 1057 317 1057 274 936.5 c 128,-1,43
 231 816 231 816 231 664 c 0,44,45
 231 533 231 533 269.5 414.5 c 128,-1,46
 308 296 308 296 440 196 c 1,24,25
EndSplineSet
Validated: 1
Substitution2: "Single Substitution lookup 5-1" u11119.half
EndChar

StartChar: u1111A
Encoding: 217 69914 212
Width: 2275
GlyphClass: 2
Flags: W
AnchorPoint: "Anchor-10" 2130 1201 basechar 0
AnchorPoint: "Anchor-4" 1215 -41 basechar 0
AnchorPoint: "Anchor-3" 1133 -27 basechar 0
AnchorPoint: "Anchor-2" 2015 86 basechar 0
AnchorPoint: "Anchor-1" 1584 1434 basechar 0
AnchorPoint: "Anchor-0" 1174 1420 basechar 0
LayerCount: 2
Fore
SplineSet
183 0 m 1,0,1
 67 152 67 152 51.5 312 c 128,-1,2
 36 472 36 472 36 703 c 0,3,4
 36 819 36 819 60.5 920.5 c 128,-1,5
 85 1022 85 1022 128.5 1106.5 c 128,-1,6
 172 1191 172 1191 230.5 1257.5 c 128,-1,7
 289 1324 289 1324 357.5 1370 c 128,-1,8
 426 1416 426 1416 501 1440 c 128,-1,9
 576 1464 576 1464 652 1464 c 0,10,11
 724 1464 724 1464 799.5 1439 c 128,-1,12
 875 1414 875 1414 942 1358 c 128,-1,13
 1009 1302 1009 1302 1061 1212 c 128,-1,14
 1113 1122 1113 1122 1135 976 c 1,15,-1
 1142 968 l 1,16,17
 1173 1123 1173 1123 1226.5 1213 c 128,-1,18
 1280 1303 1280 1303 1346.5 1359 c 128,-1,19
 1413 1415 1413 1415 1487 1439.5 c 128,-1,20
 1561 1464 1561 1464 1633 1464 c 0,21,22
 1709 1464 1709 1464 1784 1440.5 c 128,-1,23
 1859 1417 1859 1417 1927.5 1372 c 128,-1,24
 1996 1327 1996 1327 2054 1261 c 128,-1,25
 2112 1195 2112 1195 2155 1111 c 128,-1,26
 2198 1027 2198 1027 2222 925 c 128,-1,27
 2246 823 2246 823 2246 705 c 0,28,29
 2246 618 2246 618 2233.5 527 c 128,-1,30
 2221 436 2221 436 2198 326 c 128,-1,31
 2175 216 2175 216 2141 108 c 128,-1,32
 2107 0 2107 0 2107 0 c 1,33,-1
 1935 72 l 1,34,35
 1935 72 1935 72 1971 176 c 128,-1,36
 2007 280 2007 280 2031 374.5 c 128,-1,37
 2055 469 2055 469 2065.5 548 c 128,-1,38
 2076 627 2076 627 2076 700 c 0,39,40
 2076 843 2076 843 2039.5 957.5 c 128,-1,41
 2003 1072 2003 1072 1941.5 1152 c 128,-1,42
 1880 1232 1880 1232 1798 1275 c 128,-1,43
 1716 1318 1716 1318 1624 1318 c 0,44,45
 1538 1318 1538 1318 1472 1281 c 128,-1,46
 1406 1244 1406 1244 1357.5 1178.5 c 128,-1,47
 1309 1113 1309 1113 1278 1023 c 128,-1,48
 1247 933 1247 933 1232 828 c 1,49,50
 1276 869 1276 869 1332 892 c 128,-1,51
 1388 915 1388 915 1442 915 c 0,52,53
 1522 915 1522 915 1588.5 879 c 128,-1,54
 1655 843 1655 843 1703 780 c 128,-1,55
 1751 717 1751 717 1778 631 c 128,-1,56
 1805 545 1805 545 1805 445 c 0,57,58
 1805 349 1805 349 1780 264 c 128,-1,59
 1755 179 1755 179 1709 115.5 c 128,-1,60
 1663 52 1663 52 1599 15 c 128,-1,61
 1535 -22 1535 -22 1457 -22 c 0,62,63
 1407 -22 1407 -22 1357.5 -3.5 c 128,-1,64
 1308 15 1308 15 1265.5 52 c 128,-1,65
 1223 89 1223 89 1190.5 143.5 c 128,-1,66
 1158 198 1158 198 1136 320 c 1,67,-1
 1132 336 l 1,68,69
 1120 198 1120 198 1088 143.5 c 128,-1,70
 1056 89 1056 89 1013 52 c 128,-1,71
 970 15 970 15 920 -3.5 c 128,-1,72
 870 -22 870 -22 819 -22 c 0,73,74
 741 -22 741 -22 677.5 15 c 128,-1,75
 614 52 614 52 569.5 116 c 128,-1,76
 525 180 525 180 501 264.5 c 128,-1,77
 477 349 477 349 477 443 c 0,78,79
 477 544 477 544 504.5 630 c 128,-1,80
 532 716 532 716 581 779.5 c 128,-1,81
 630 843 630 843 696.5 879 c 128,-1,82
 763 915 763 915 842 915 c 0,83,84
 893 915 893 915 947.5 893.5 c 128,-1,85
 1002 872 1002 872 1044 835 c 1,86,87
 1027 940 1027 940 994 1028.5 c 128,-1,88
 961 1117 961 1117 912 1181.5 c 128,-1,89
 863 1246 863 1246 799.5 1282 c 128,-1,90
 736 1318 736 1318 658 1318 c 0,91,92
 577 1318 577 1318 496.5 1277 c 128,-1,93
 416 1236 416 1236 351.5 1156.5 c 128,-1,94
 287 1077 287 1077 246.5 961 c 128,-1,95
 206 845 206 845 206 694 c 0,96,97
 206 624 206 624 208.5 488 c 128,-1,98
 211 352 211 352 258 215.375 c 0,99,100
 305 79 305 79 303.5 81.125 c 0,101,102
 302.600855467 83.8198792118 302.600855467 83.8198792118 302 83.5 c 1,103,-1
 183 0 l 1,0,1
1218 667 m 1,104,105
 1218 653 1218 653 1217.5 639 c 128,-1,106
 1217 625 1217 625 1217 611 c 0,107,108
 1216 497 1216 497 1233 406.5 c 128,-1,109
 1250 316 1250 316 1281.5 252.5 c 128,-1,110
 1313 189 1313 189 1357.5 155 c 128,-1,111
 1402 121 1402 121 1455 121 c 0,112,113
 1494 121 1494 121 1529 142 c 128,-1,114
 1564 163 1564 163 1591 204 c 128,-1,115
 1618 245 1618 245 1634 305.5 c 128,-1,116
 1650 366 1650 366 1650 445 c 0,117,118
 1650 511 1650 511 1636 573 c 128,-1,119
 1622 635 1622 635 1593.5 683 c 128,-1,120
 1565 731 1565 731 1522.5 760 c 128,-1,121
 1480 789 1480 789 1422 789 c 0,122,123
 1365 789 1365 789 1310 755.5 c 128,-1,124
 1255 722 1255 722 1218 667 c 1,104,105
1061 671 m 1,125,126
 1025 723 1025 723 972.5 756 c 128,-1,127
 920 789 920 789 865 789 c 0,128,129
 808 789 808 789 765 762 c 128,-1,130
 722 735 722 735 692.5 687.5 c 128,-1,131
 663 640 663 640 647.5 576.5 c 128,-1,132
 632 513 632 513 632 440 c 0,133,134
 632 369 632 369 648.5 310.5 c 128,-1,135
 665 252 665 252 692.5 210 c 128,-1,136
 720 168 720 168 756 144.5 c 128,-1,137
 792 121 792 121 831 121 c 0,138,139
 884 121 884 121 927 155 c 128,-1,140
 970 189 970 189 1000 252 c 128,-1,141
 1030 315 1030 315 1046 404.5 c 128,-1,142
 1062 494 1062 494 1062 606 c 0,143,144
 1062 623 1062 623 1062 639 c 128,-1,145
 1062 655 1062 655 1061 671 c 1,125,126
EndSplineSet
Validated: 33
Substitution2: "Single Substitution lookup 5-1" u1111A.half
EndChar

StartChar: u1111B
Encoding: 218 69915 213
Width: 1619
GlyphClass: 2
Flags: W
AnchorPoint: "Anchor-10" 1434 1201 basechar 0
AnchorPoint: "Anchor-4" 870 37 basechar 0
AnchorPoint: "Anchor-3" 792 -55 basechar 0
AnchorPoint: "Anchor-2" 1133 109 basechar 0
AnchorPoint: "Anchor-1" 1215 1393 basechar 0
AnchorPoint: "Anchor-0" 762 1409 basechar 0
LayerCount: 2
Fore
SplineSet
450 1293 m 1,0,1
 286 1169 286 1169 223 795 c 1,2,3
 223 643 223 643 266 522.5 c 128,-1,4
 309 402 309 402 386.5 318 c 128,-1,5
 464 234 464 234 571 189.5 c 128,-1,6
 678 145 678 145 806 145 c 0,7,8
 935 145 935 145 1043 189.5 c 128,-1,9
 1151 234 1151 234 1229 318 c 128,-1,10
 1307 402 1307 402 1350 522.5 c 0,11,12
 1411 694 1411 694 1393 795 c 0,13,14
 1355.66666667 994.5 1355.66666667 994.5 1286 1099 c 0,15,16
 1190 1245 1190 1245 1126 1293 c 1,17,-1
 1190 1445 l 1,18,19
 1342 1361 1342 1361 1441 1189 c 128,-1,20
 1540 1017 1540 1017 1563 789 c 1,21,22
 1563 604 1563 604 1506.5 457.5 c 128,-1,23
 1450 311 1450 311 1349 209.5 c 128,-1,24
 1248 108 1248 108 1109 54 c 128,-1,25
 970 0 970 0 806 0 c 256,26,27
 642 0 642 0 504 54 c 128,-1,28
 366 108 366 108 265.5 209.5 c 128,-1,29
 165 311 165 311 108.5 457.5 c 128,-1,30
 52 604 52 604 52 789 c 0,31,32
 52 937 52 937 110.5 1109 c 128,-1,33
 169 1281 169 1281 358 1445 c 1,34,-1
 450 1293 l 1,0,1
EndSplineSet
Validated: 33
Substitution2: "Single Substitution lookup 5-1" u1111B.half
EndChar

StartChar: u1111C
Encoding: 219 69916 214
Width: 1647
GlyphClass: 2
Flags: W
AnchorPoint: "Anchor-10" 1475 1242 basechar 0
AnchorPoint: "Anchor-4" 842 14 basechar 0
AnchorPoint: "Anchor-3" 765 -82 basechar 0
AnchorPoint: "Anchor-2" 1106 96 basechar 0
AnchorPoint: "Anchor-1" 1215 1406 basechar 0
AnchorPoint: "Anchor-0" 737 1434 basechar 0
LayerCount: 2
Fore
SplineSet
332 1289 m 1,0,1
 214 1170 214 1170 204 743 c 1,2,3
 218 604 218 604 260 487.5 c 128,-1,4
 302 371 302 371 378.5 288.5 c 128,-1,5
 455 206 455 206 562.5 162 c 128,-1,6
 670 118 670 118 800 118 c 0,7,8
 934 118 934 118 1047.5 162.5 c 128,-1,9
 1161 207 1161 207 1243.5 290.5 c 128,-1,10
 1326 374 1326 374 1373 492.5 c 128,-1,11
 1420 611 1420 611 1416 856 c 1,12,-1
 1410 856 l 1,13,14
 1396 757 1396 757 1268 699 c 128,-1,15
 1140 641 1140 641 1076 658 c 1,16,17
 991 658 991 658 920 686 c 128,-1,18
 849 714 849 714 797.5 765.5 c 128,-1,19
 746 817 746 817 717 889.5 c 128,-1,20
 688 962 688 962 688 1051 c 0,21,22
 688 1142 688 1142 719 1217 c 128,-1,23
 750 1292 750 1292 804.5 1346 c 128,-1,24
 859 1400 859 1400 933.5 1429.5 c 128,-1,25
 1008 1459 1008 1459 1095 1459 c 0,26,27
 1215 1459 1215 1459 1307 1405.5 c 128,-1,28
 1399 1352 1399 1352 1461 1259.5 c 128,-1,29
 1523 1167 1523 1167 1555 1043 c 128,-1,30
 1587 919 1587 919 1587 778 c 0,31,32
 1587 586 1587 586 1525 436.5 c 128,-1,33
 1463 287 1463 287 1356 184.5 c 128,-1,34
 1249 82 1249 82 1105.5 28 c 128,-1,35
 962 -26 962 -26 799 -26 c 0,36,37
 629 -26 629 -26 490.5 28.5 c 128,-1,38
 352 83 352 83 253.5 183.5 c 128,-1,39
 155 284 155 284 101.5 426 c 128,-1,40
 48 568 48 568 36 731 c 1,41,42
 36 1006 36 1006 90.5 1174.5 c 128,-1,43
 145 1343 145 1343 266 1446 c 1,44,-1
 332 1289 l 1,0,1
1102 1315 m 0,45,46
 1050 1315 1050 1315 1004.5 1296.5 c 128,-1,47
 959 1278 959 1278 925.5 1244.5 c 128,-1,48
 892 1211 892 1211 873 1162.5 c 128,-1,49
 854 1114 854 1114 854 1054 c 0,50,51
 854 996 854 996 872.5 949 c 128,-1,52
 891 902 891 902 924 868.5 c 128,-1,53
 957 835 957 835 1002.5 817 c 128,-1,54
 1048 799 1048 799 1102 799 c 0,55,56
 1158 799 1158 799 1206 817 c 128,-1,57
 1254 835 1254 835 1288.5 868 c 128,-1,58
 1323 901 1323 901 1342.5 947 c 128,-1,59
 1362 993 1362 993 1362 1050 c 0,60,61
 1362 1112 1362 1112 1340 1161 c 128,-1,62
 1318 1210 1318 1210 1281.5 1244.5 c 128,-1,63
 1245 1279 1245 1279 1198.5 1297 c 128,-1,64
 1152 1315 1152 1315 1102 1315 c 0,45,46
EndSplineSet
Validated: 33
Substitution2: "Single Substitution lookup 5-1" u1111C.half
EndChar

StartChar: u1111D
Encoding: 220 69917 215
Width: 1631
GlyphClass: 2
Flags: W
AnchorPoint: "Anchor-10" 1434 1229 basechar 0
AnchorPoint: "Anchor-4" 874 54 basechar 0
AnchorPoint: "Anchor-3" 819 -55 basechar 0
AnchorPoint: "Anchor-2" 1092 109 basechar 0
AnchorPoint: "Anchor-1" 1188 1406 basechar 0
AnchorPoint: "Anchor-0" 806 1434 basechar 0
LayerCount: 2
Fore
SplineSet
476 1455 m 1,0,1
 544 1279 544 1279 804 1247 c 1,2,3
 1108 1283 1108 1283 1148 1459 c 1,4,5
 1240 1443 1240 1443 1343.5 1347 c 128,-1,6
 1447 1251 1447 1251 1492.5 1150.5 c 128,-1,7
 1538 1050 1538 1050 1554.5 958.5 c 128,-1,8
 1571 867 1571 867 1571 785 c 0,9,10
 1571 600 1571 600 1514.5 453.5 c 128,-1,11
 1458 307 1458 307 1357 205.5 c 128,-1,12
 1256 104 1256 104 1117 50 c 128,-1,13
 978 -4 978 -4 814 -4 c 256,14,15
 650 -4 650 -4 512 50 c 128,-1,16
 374 104 374 104 273.5 205.5 c 128,-1,17
 173 307 173 307 116.5 453.5 c 128,-1,18
 60 600 60 600 60 785 c 0,19,20
 60 865 60 865 76.5 955.5 c 128,-1,21
 93 1046 93 1046 126.5 1124.5 c 128,-1,22
 160 1203 160 1203 254 1303 c 128,-1,23
 348 1403 348 1403 476 1455 c 1,0,1
440 1259 m 1,24,25
 308 1159 308 1159 269.5 1040.5 c 128,-1,26
 231 922 231 922 231 791 c 0,27,28
 231 639 231 639 274 518.5 c 128,-1,29
 317 398 317 398 394.5 314 c 128,-1,30
 472 230 472 230 579 185.5 c 128,-1,31
 686 141 686 141 814 141 c 0,32,33
 943 141 943 141 1051 185.5 c 128,-1,34
 1159 230 1159 230 1237 314 c 128,-1,35
 1315 398 1315 398 1358 518.5 c 128,-1,36
 1401 639 1401 639 1401 791 c 0,37,38
 1401 920 1401 920 1354.5 1055.5 c 128,-1,39
 1308 1191 1308 1191 1208 1267 c 1,40,41
 1124 1171 1124 1171 999 1134 c 128,-1,42
 874 1097 874 1097 815 1097 c 256,43,44
 756 1097 756 1097 694.5 1108 c 128,-1,45
 633 1119 633 1119 568.5 1153 c 128,-1,46
 504 1187 504 1187 440 1259 c 1,24,25
EndSplineSet
Validated: 1
Substitution2: "Single Substitution lookup 5-1" u1111D.half
EndChar

StartChar: u1111E
Encoding: 221 69918 216
Width: 2107
GlyphClass: 2
Flags: W
AnchorPoint: "Anchor-10" 1952 1256 basechar 0
AnchorPoint: "Anchor-4" 1352 -55 basechar 0
AnchorPoint: "Anchor-3" 1133 -55 basechar 0
AnchorPoint: "Anchor-2" 1638 14 basechar 0
AnchorPoint: "Anchor-1" 1611 1447 basechar 0
AnchorPoint: "Anchor-0" 1120 1475 basechar 0
LayerCount: 2
Fore
SplineSet
617 -30 m 0,0,1
 531 -30 531 -30 460 -13 c 128,-1,2
 389 4 389 4 332 34 c 128,-1,3
 275 64 275 64 237.5 98 c 128,-1,4
 200 132 200 132 142.5 212.5 c 0,5,6
 120 244 120 244 97 276 c 0,7,8
 97 276 97 276 97 276 c 1,9,-1
 260 339 l 1,10,11
 270 337 270 337 273.5 322.5 c 128,-1,12
 277 308 277 308 339 237.5 c 128,-1,13
 401 167 401 167 467 141 c 128,-1,14
 533 115 533 115 619 115 c 0,15,16
 716 115 716 115 802 158.5 c 128,-1,17
 888 202 888 202 953 281 c 128,-1,18
 1018 360 1018 360 1056 471.5 c 128,-1,19
 1094 583 1094 583 1094 718 c 0,20,21
 1094 848 1094 848 1058.5 956.5 c 128,-1,22
 1023 1065 1023 1065 960.5 1143.5 c 128,-1,23
 898 1222 898 1222 812 1266 c 128,-1,24
 726 1310 726 1310 625 1310 c 0,25,26
 549 1310 549 1310 471.5 1285 c 128,-1,27
 394 1260 394 1260 345 1216 c 128,-1,28
 296 1172 296 1172 273 1134 c 128,-1,29
 250 1096 250 1096 241 1064 c 1,30,-1
 81 1112 l 1,31,32
 81 1160 81 1160 131 1226 c 128,-1,33
 181 1292 181 1292 256.5 1337.5 c 128,-1,34
 332 1383 332 1383 424 1419 c 128,-1,35
 516 1455 516 1455 629 1455 c 0,36,37
 766 1455 766 1455 884 1397.5 c 128,-1,38
 1002 1340 1002 1340 1089 1236 c 1,39,-1
 1103 1236 l 1,40,41
 1135 1274 1135 1274 1183 1313 c 128,-1,42
 1231 1352 1231 1352 1292.5 1383.5 c 128,-1,43
 1354 1415 1354 1415 1427.5 1435 c 128,-1,44
 1501 1455 1501 1455 1583 1455 c 0,45,46
 1689 1455 1689 1455 1774 1422.5 c 128,-1,47
 1859 1390 1859 1390 1919 1333 c 128,-1,48
 1979 1276 1979 1276 2011.5 1199.5 c 128,-1,49
 2044 1123 2044 1123 2044 1036 c 0,50,51
 2044 930 2044 930 1991.5 856 c 128,-1,52
 1939 782 1939 782 1783 772 c 1,53,-1
 1651 896 l 1,54,55
 1795 864 1795 864 1834.5 910 c 128,-1,56
 1874 956 1874 956 1874 1021 c 0,57,58
 1874 1073 1874 1073 1857.5 1124.5 c 128,-1,59
 1841 1176 1841 1176 1804 1217.5 c 128,-1,60
 1767 1259 1767 1259 1709 1284.5 c 128,-1,61
 1651 1310 1651 1310 1567 1310 c 0,62,63
 1506 1310 1506 1310 1449.5 1295 c 128,-1,64
 1393 1280 1393 1280 1343 1253 c 128,-1,65
 1293 1226 1293 1226 1250 1189 c 128,-1,66
 1207 1152 1207 1152 1174 1108 c 1,67,68
 1217 1023 1217 1023 1240.5 924 c 128,-1,69
 1264 825 1264 825 1264 711 c 0,70,71
 1264 685 1264 685 1262.5 661 c 128,-1,72
 1261 637 1261 637 1259 613 c 1,73,74
 1328 662 1328 662 1418.5 695.5 c 128,-1,75
 1509 729 1509 729 1617 729 c 0,76,77
 1711 729 1711 729 1789 702.5 c 128,-1,78
 1867 676 1867 676 1923.5 627.5 c 128,-1,79
 1980 579 1980 579 2011 510 c 128,-1,80
 2042 441 2042 441 2042 356 c 0,81,82
 2042 274 2042 274 2014 207.5 c 128,-1,83
 1986 141 1986 141 1905.5 70.5 c 128,-1,84
 1825 0 1825 0 1676.5 -27 c 128,-1,85
 1528 -54 1528 -54 1320 8 c 1,86,-1
 1388 168 l 1,87,88
 1524 39 1524 39 1698.5 137.5 c 128,-1,89
 1873 236 1873 236 1873 355 c 0,90,91
 1873 410 1873 410 1853 453 c 128,-1,92
 1833 496 1833 496 1798 525.5 c 128,-1,93
 1763 555 1763 555 1714 570.5 c 128,-1,94
 1665 586 1665 586 1607 586 c 0,95,96
 1511 586 1511 586 1409.5 547 c 128,-1,97
 1308 508 1308 508 1217 420 c 1,98,99
 1182 317 1182 317 1122.5 233.5 c 128,-1,100
 1063 150 1063 150 985.5 91.5 c 128,-1,101
 908 33 908 33 814.5 1.5 c 128,-1,102
 721 -30 721 -30 617 -30 c 0,0,1
EndSplineSet
Validated: 37
Substitution2: "Single Substitution lookup 5-1" u1111E.half
EndChar

StartChar: u1111F
Encoding: 222 69919 217
Width: 2083
GlyphClass: 2
Flags: W
AnchorPoint: "Anchor-10" 1871 1188 basechar 0
AnchorPoint: "Anchor-4" 1174 -14 basechar 0
AnchorPoint: "Anchor-3" 1024 -27 basechar 0
AnchorPoint: "Anchor-2" 1502 41 basechar 0
AnchorPoint: "Anchor-1" 1434 1434 basechar 0
AnchorPoint: "Anchor-0" 956 1447 basechar 0
LayerCount: 2
Fore
SplineSet
624.75 1.5 m 0,0,1
 523 3 523 3 416 60 c 0,2,3
 311 116 311 116 227.25 206.5 c 0,4,5
 152 288 152 288 96.5 430 c 128,-1,6
 41 572 41 572 41 737 c 1,7,8
 52 1017 52 1017 148 1187.5 c 128,-1,9
 244 1358 244 1358 504 1475 c 1,10,-1
 560 1335 l 1,11,12
 328 1208 328 1208 277 1079 c 128,-1,13
 226 950 226 950 214 740 c 1,14,15
 214 555 214 555 252 472 c 0,16,17
 303 359 303 359 372.5 298 c 0,18,19
 488 197 488 197 580 164 c 0,20,21
 700 121 700 121 820 180 c 0,22,23
 857 198 857 198 901 240 c 0,24,25
 901 240 901 240 901 240 c 1,26,27
 619 393 619 393 665.5 602.5 c 128,-1,28
 712 812 712 812 1008 820 c 1,29,30
 1312 808 1312 808 1363 608.5 c 128,-1,31
 1414 409 1414 409 1167 254 c 1,32,33
 1167 223 1167 223 1260 180 c 0,34,35
 1313 155 1313 155 1392 160 c 0,36,37
 1477 165 1477 165 1528 192 c 0,38,39
 1618 241 1618 241 1668 296 c 0,40,41
 1759 397 1759 397 1808 532 c 0,42,43
 1851 651 1851 651 1836.5 804.5 c 128,-1,44
 1822 958 1822 958 1749 1082.5 c 128,-1,45
 1676 1207 1676 1207 1416 1327 c 1,46,-1
 1468 1487 l 1,47,48
 1800 1343 1800 1343 1905.5 1132.5 c 128,-1,49
 2011 922 2011 922 2003 734 c 1,50,51
 2000 596 2000 596 1984 540 c 0,52,53
 1940 385 1940 385 1880 296 c 0,54,55
 1804 184 1804 184 1700 104 c 0,56,57
 1564 0 1564 0 1372 0 c 0,58,59
 1242 0 1242 0 1148.5 64.5 c 128,-1,60
 1055 129 1055 129 1037 142 c 1,61,62
 912 36 912 36 816 18 c 128,-1,63
 720 -0 720 -0 624.75 1.5 c 0,0,1
1024 316 m 1,64,65
 1384 592 1384 592 1004 672 c 1,66,67
 646 598 646 598 1024 316 c 1,64,65
EndSplineSet
Validated: 37
Substitution2: "Single Substitution lookup 5-1" u1111F.half
EndChar

StartChar: u11120
Encoding: 223 69920 218
Width: 1855
GlyphClass: 2
Flags: W
AnchorPoint: "Anchor-10" 1720 1229 basechar 0
AnchorPoint: "Anchor-4" 1038 -27 basechar 0
AnchorPoint: "Anchor-3" 942 14 basechar 0
AnchorPoint: "Anchor-2" 1338 68 basechar 0
AnchorPoint: "Anchor-1" 1393 1406 basechar 0
AnchorPoint: "Anchor-0" 887 1434 basechar 0
LayerCount: 2
Fore
SplineSet
815 356 m 1,0,1
 828 539 828 539 716 603 c 1,2,-1
 1144 607 l 1,3,4
 1096 586 1096 586 1074 548 c 128,-1,5
 1052 510 1052 510 1046.5 470 c 128,-1,6
 1041 430 1041 430 1047 395.5 c 128,-1,7
 1053 361 1053 361 1060 347 c 0,8,9
 1097 274 1097 274 1150.5 222.5 c 128,-1,10
 1204 171 1204 171 1287 153 c 1,11,12
 1363 153 1363 153 1427.5 193 c 128,-1,13
 1492 233 1492 233 1539.5 305 c 128,-1,14
 1587 377 1587 377 1614 477.5 c 128,-1,15
 1641 578 1641 578 1641 700 c 0,16,17
 1641 814 1641 814 1620 934.5 c 128,-1,18
 1599 1055 1599 1055 1537.5 1138 c 128,-1,19
 1476 1221 1476 1221 1344 1310 c 1,20,-1
 1416 1451 l 1,21,22
 1588 1382 1588 1382 1699.5 1186.5 c 128,-1,23
 1811 991 1811 991 1811 685 c 0,24,25
 1811 546 1811 546 1775.5 422.5 c 128,-1,26
 1740 299 1740 299 1672.5 206 c 128,-1,27
 1605 113 1605 113 1508 58.5 c 128,-1,28
 1411 4 1411 4 1288 4 c 0,29,30
 1215 4 1215 4 1157.5 25 c 128,-1,31
 1100 46 1100 46 1046 99.5 c 128,-1,32
 992 153 992 153 932 274 c 1,33,-1
 929 274 l 1,34,35
 876 131 876 131 818 88.5 c 128,-1,36
 760 46 760 46 702 25 c 128,-1,37
 644 4 644 4 571 4 c 0,38,39
 448 4 448 4 351.5 58.5 c 128,-1,40
 255 113 255 113 187.5 206 c 128,-1,41
 120 299 120 299 84.5 422.5 c 0,42,43
 51 538 51 538 49 685 c 0,44,45
 46 877 46 877 96 1025 c 0,46,47
 155 1201 155 1201 229.5 1303 c 128,-1,48
 304 1405 304 1405 396 1454 c 1,49,-1
 476 1307 l 1,50,51
 372 1258 372 1258 319 1138 c 128,-1,52
 266 1018 266 1018 242.5 916 c 128,-1,53
 219 814 219 814 219 700 c 0,54,55
 219 578 219 578 246 477.5 c 128,-1,56
 273 377 273 377 320.5 305 c 128,-1,57
 368 233 368 233 432.5 193 c 128,-1,58
 497 153 497 153 573 153 c 0,59,60
 646 153 646 153 717 200 c 128,-1,61
 788 247 788 247 815 356 c 1,0,1
EndSplineSet
Validated: 33
Substitution2: "Single Substitution lookup 5-1" u11120.half
EndChar

StartChar: u11121
Encoding: 224 69921 219
Width: 1743
GlyphClass: 2
Flags: W
AnchorPoint: "Anchor-10" 1570 1133 basechar 0
AnchorPoint: "Anchor-4" 1065 -27 basechar 0
AnchorPoint: "Anchor-3" 942 -55 basechar 0
AnchorPoint: "Anchor-2" 1365 27 basechar 0
AnchorPoint: "Anchor-1" 1338 1365 basechar 0
AnchorPoint: "Anchor-0" 860 1475 basechar 0
LayerCount: 2
Fore
SplineSet
551 -34 m 0,0,1
 454 -34 454 -34 376 -6.5 c 128,-1,2
 298 21 298 21 239 69.5 c 128,-1,3
 180 118 180 118 112 223 c 128,-1,4
 44 328 44 328 68 560 c 1,5,-1
 236 528 l 1,6,7
 228 420 228 420 244 344 c 128,-1,8
 260 268 260 268 320 212 c 128,-1,9
 380 156 380 156 434.5 134 c 128,-1,10
 489 112 489 112 560 112 c 0,11,12
 625 112 625 112 675 130 c 128,-1,13
 725 148 725 148 759 178 c 128,-1,14
 793 208 793 208 810.5 247.5 c 128,-1,15
 828 287 828 287 828 330 c 0,16,17
 828 390 828 390 800.5 433.5 c 128,-1,18
 773 477 773 477 728 509.5 c 128,-1,19
 683 542 683 542 624.5 568 c 128,-1,20
 566 594 566 594 504 620 c 0,21,22
 439 647 439 647 375 678.5 c 128,-1,23
 311 710 311 710 260.5 753 c 128,-1,24
 210 796 210 796 179 855 c 128,-1,25
 148 914 148 914 148 997 c 0,26,27
 148 1093 148 1093 195 1176 c 128,-1,28
 242 1259 242 1259 329 1320 c 128,-1,29
 416 1381 416 1381 540 1416 c 128,-1,30
 664 1451 664 1451 818 1451 c 0,31,32
 984 1451 984 1451 1108 1439 c 128,-1,33
 1232 1427 1232 1427 1341.5 1387.5 c 128,-1,34
 1451 1348 1451 1348 1555 1238 c 128,-1,35
 1659 1128 1659 1128 1639 904 c 1,36,-1
 1435 924 l 1,37,38
 1519 1024 1519 1024 1459.5 1107 c 128,-1,39
 1400 1190 1400 1190 1274 1237 c 128,-1,40
 1148 1284 1148 1284 1047 1295 c 128,-1,41
 946 1306 946 1306 814 1306 c 0,42,43
 710 1306 710 1306 619.5 1286 c 128,-1,44
 529 1266 529 1266 462 1228 c 128,-1,45
 395 1190 395 1190 356.5 1134.5 c 128,-1,46
 318 1079 318 1079 318 1008 c 0,47,48
 318 957 318 957 339.5 918.5 c 128,-1,49
 361 880 361 880 397.5 850.5 c 128,-1,50
 434 821 434 821 482.5 797.5 c 128,-1,51
 531 774 531 774 584 751 c 2,52,-1
 748 676 l 1,53,54
 792 832 792 832 934 886 c 128,-1,55
 1076 940 1076 940 1240 904 c 128,-1,56
 1404 868 1404 868 1497.5 772 c 128,-1,57
 1591 676 1591 676 1632.5 559.5 c 128,-1,58
 1674 443 1674 443 1674 353 c 0,59,60
 1674 273 1674 273 1651 209.5 c 128,-1,61
 1628 146 1628 146 1585.5 77 c 128,-1,62
 1543 8 1543 8 1411.5 -28 c 128,-1,63
 1280 -64 1280 -64 1136 -20 c 1,64,-1
 1136 152 l 1,65,66
 1216 88 1216 88 1302 102 c 128,-1,67
 1388 116 1388 116 1437.5 154 c 128,-1,68
 1487 192 1487 192 1511 262 c 128,-1,69
 1535 332 1535 332 1507 450 c 128,-1,70
 1479 568 1479 568 1381.5 664 c 128,-1,71
 1284 760 1284 760 1102 750 c 128,-1,72
 920 740 920 740 872 592 c 1,73,74
 968 516 968 516 984 449.5 c 128,-1,75
 1000 383 1000 383 1000 334 c 0,76,77
 1000 261 1000 261 970 194 c 128,-1,78
 940 127 940 127 882.5 76.5 c 128,-1,79
 825 26 825 26 741.5 -4 c 128,-1,80
 658 -34 658 -34 551 -34 c 0,0,1
EndSplineSet
Validated: 33
Substitution2: "Single Substitution lookup 5-1" u11121.half
EndChar

StartChar: u11122
Encoding: 225 69922 220
Width: 2191
GlyphClass: 2
Flags: W
AnchorPoint: "Anchor-10" 2075 1120 basechar 0
AnchorPoint: "Anchor-4" 1283 -55 basechar 0
AnchorPoint: "Anchor-3" 1120 -27 basechar 0
AnchorPoint: "Anchor-2" 1707 27 basechar 0
AnchorPoint: "Anchor-1" 1816 1406 basechar 0
AnchorPoint: "Anchor-0" 1161 1447 basechar 0
LayerCount: 2
Fore
SplineSet
694 -18 m 0,0,1
 558 -18 558 -18 440 36 c 128,-1,2
 322 90 322 90 235 188.5 c 128,-1,3
 148 287 148 287 102 408 c 128,-1,4
 56 529 56 529 56 694 c 256,5,6
 56 859 56 859 106 995.5 c 128,-1,7
 156 1132 156 1132 243 1230 c 128,-1,8
 330 1328 330 1328 448 1382 c 128,-1,9
 566 1436 566 1436 702 1436 c 0,10,11
 844 1436 844 1436 972 1363 c 128,-1,12
 1100 1290 1100 1290 1188 1186 c 1,13,-1
 1203 1186 l 1,14,15
 1235 1224 1235 1224 1279 1278.5 c 128,-1,16
 1323 1333 1323 1333 1384.5 1364.5 c 128,-1,17
 1446 1396 1446 1396 1519 1416 c 128,-1,18
 1592 1436 1592 1436 1674 1436 c 0,19,20
 1780 1436 1780 1436 1865.5 1403.5 c 128,-1,21
 1951 1371 1951 1371 2011 1314 c 128,-1,22
 2071 1257 2071 1257 2103.5 1180.5 c 128,-1,23
 2136 1104 2136 1104 2136 1017 c 0,24,25
 2136 953 2136 953 2079.5 882.5 c 128,-1,26
 2023 812 2023 812 1959 780 c 1,27,-1
 1711 848 l 1,28,29
 1847 848 1847 848 1906.5 892.5 c 128,-1,30
 1966 937 1966 937 1966 1002 c 0,31,32
 1966 1054 1966 1054 1949.5 1105.5 c 128,-1,33
 1933 1157 1933 1157 1896 1198.5 c 128,-1,34
 1859 1240 1859 1240 1801 1265.5 c 128,-1,35
 1743 1291 1743 1291 1659 1291 c 0,36,37
 1598 1291 1598 1291 1541.5 1275.5 c 128,-1,38
 1485 1260 1485 1260 1434.5 1233 c 128,-1,39
 1384 1206 1384 1206 1341 1169 c 128,-1,40
 1298 1132 1298 1132 1265 1088 c 1,41,42
 1308 1004 1308 1004 1323.5 921 c 128,-1,43
 1339 838 1339 838 1339 725 c 0,44,45
 1339 699 1339 699 1337.5 673.5 c 128,-1,46
 1336 648 1336 648 1334 624 c 1,47,48
 1403 673 1403 673 1494 707 c 128,-1,49
 1585 741 1585 741 1694 741 c 0,50,51
 1787 741 1787 741 1865.5 714.5 c 128,-1,52
 1944 688 1944 688 2000 639.5 c 128,-1,53
 2056 591 2056 591 2087.5 522 c 128,-1,54
 2119 453 2119 453 2119 368 c 0,55,56
 2119 286 2119 286 2091 219.5 c 128,-1,57
 2063 153 2063 153 1977 72.5 c 128,-1,58
 1891 -8 1891 -8 1675 -34 c 128,-1,59
 1459 -60 1459 -60 1232 40 c 1,60,-1
 1344 172 l 1,61,62
 1467 60 1467 60 1641 98 c 128,-1,63
 1815 136 1815 136 1864.5 182 c 128,-1,64
 1914 228 1914 228 1931.5 271 c 128,-1,65
 1949 314 1949 314 1949 367 c 0,66,67
 1949 422 1949 422 1929.5 465 c 128,-1,68
 1910 508 1910 508 1874.5 537.5 c 128,-1,69
 1839 567 1839 567 1790.5 582.5 c 128,-1,70
 1742 598 1742 598 1683 598 c 0,71,72
 1635 598 1635 598 1585 588 c 128,-1,73
 1535 578 1535 578 1485 557.5 c 128,-1,74
 1435 537 1435 537 1385.5 505 c 128,-1,75
 1336 473 1336 473 1291 429 c 1,76,77
 1255 326 1255 326 1196 243.5 c 128,-1,78
 1137 161 1137 161 1059.5 103 c 128,-1,79
 982 45 982 45 889.5 13.5 c 128,-1,80
 797 -18 797 -18 694 -18 c 0,0,1
694 127 m 0,81,82
 795 127 795 127 881.5 170 c 128,-1,83
 968 213 968 213 1032 291.5 c 128,-1,84
 1096 370 1096 370 1136.5 464 c 128,-1,85
 1177 558 1177 558 1177 691 c 0,86,87
 1177 826 1177 826 1140.5 936.5 c 128,-1,88
 1104 1047 1104 1047 1040.5 1125.5 c 128,-1,89
 977 1204 977 1204 890 1247.5 c 128,-1,90
 803 1291 803 1291 702 1291 c 0,91,92
 602 1291 602 1291 515 1247.5 c 128,-1,93
 428 1204 428 1204 363.5 1125.5 c 128,-1,94
 299 1047 299 1047 262.5 936.5 c 128,-1,95
 226 826 226 826 226 691 c 0,96,97
 226 558 226 558 258.5 464 c 128,-1,98
 291 370 291 370 355.5 291.5 c 128,-1,99
 420 213 420 213 507 170 c 128,-1,100
 594 127 594 127 694 127 c 0,81,82
EndSplineSet
Validated: 33
Substitution2: "Single Substitution lookup 5-1" u11122.half
EndChar

StartChar: u11123
Encoding: 226 69923 221
Width: 2091
GlyphClass: 2
Flags: W
AnchorPoint: "Anchor-10" 1911 1120 basechar 0
AnchorPoint: "Anchor-4" 1242 -27 basechar 0
AnchorPoint: "Anchor-3" 983 -41 basechar 0
AnchorPoint: "Anchor-2" 1516 41 basechar 0
AnchorPoint: "Anchor-1" 1502 1406 basechar 0
AnchorPoint: "Anchor-0" 1065 1461 basechar 0
LayerCount: 2
Fore
SplineSet
1454 -34 m 0,0,1
 1346 -34 1346 -34 1256.5 -0.5 c 128,-1,2
 1167 33 1167 33 1101 104 c 128,-1,3
 1035 175 1035 175 995.5 285.5 c 0,4,5
 956 397 956 397 946 550 c 2,6,-1
 926 868 l 2,7,8
 918.259428974 991.075079309 918.259428974 991.075079309 895 1074 c 0,9,10
 871 1159 871 1159 830.5 1213.5 c 128,-1,11
 790 1268 790 1268 733 1292.5 c 128,-1,12
 676 1317 676 1317 601 1317 c 0,13,14
 512 1317 512 1317 442 1283 c 128,-1,15
 372 1249 372 1249 323 1180.5 c 128,-1,16
 274 1112 274 1112 254 940 c 128,-1,17
 234 768 234 768 262 632 c 1,18,19
 358 268 358 268 614 144 c 1,20,-1
 550 0 l 1,21,22
 175 155 175 155 94 536 c 1,23,24
 58 672 58 672 69.5 906 c 128,-1,25
 81 1140 81 1140 173.5 1258.5 c 128,-1,26
 266 1377 266 1377 370 1420 c 128,-1,27
 474 1463 474 1463 599 1463 c 0,28,29
 832 1463 832 1463 961 1321 c 128,-1,30
 1089.96918708 1179.0339181 1089.96918708 1179.0339181 1108 882 c 2,31,-1
 1127 569 l 2,32,33
 1141.35581657 332.506811207 1141.35581657 332.506811207 1220 223.5 c 0,34,35
 1300 112 1300 112 1456 112 c 0,36,37
 1542 112 1542 112 1611.5 149.5 c 128,-1,38
 1681 187 1681 187 1729.5 257.5 c 128,-1,39
 1778 328 1778 328 1805.5 429 c 128,-1,40
 1833 530 1833 530 1833 658 c 1,41,42
 1758 1216 1758 1216 1382 1340 c 1,43,-1
 1454 1500 l 1,44,45
 1958 1357 1958 1357 2022 656 c 1,46,47
 2022 487 2022 487 1979.5 358 c 128,-1,48
 1937 229 1937 229 1862 142 c 128,-1,49
 1787 55 1787 55 1682.5 10.5 c 128,-1,50
 1578 -34 1578 -34 1454 -34 c 0,0,1
EndSplineSet
Validated: 33
Substitution2: "Single Substitution lookup 5-1" u11123.half
EndChar

StartChar: u11124
Encoding: 227 69924 222
Width: 1539
GlyphClass: 2
Flags: W
AnchorPoint: "Anchor-10" 1283 1242 basechar 0
AnchorPoint: "Anchor-4" 777 6 basechar 0
AnchorPoint: "Anchor-3" 778 -68 basechar 0
AnchorPoint: "Anchor-2" 997 55 basechar 0
AnchorPoint: "Anchor-1" 1133 1386 basechar 0
AnchorPoint: "Anchor-0" 765 1475 basechar 0
LayerCount: 2
Fore
SplineSet
774 -26 m 0,0,1
 621 -26 621 -26 489 28.5 c 128,-1,2
 357 83 357 83 260 181 c 128,-1,3
 163 279 163 279 107.5 415.5 c 128,-1,4
 52 552 52 552 52 717 c 256,5,6
 52 882 52 882 107.5 1018.5 c 128,-1,7
 163 1155 163 1155 260 1253 c 128,-1,8
 357 1351 357 1351 489 1405 c 128,-1,9
 621 1459 621 1459 774 1459 c 0,10,11
 926 1459 926 1459 1057 1405 c 128,-1,12
 1188 1351 1188 1351 1284 1253 c 128,-1,13
 1380 1155 1380 1155 1435 1018.5 c 128,-1,14
 1490 882 1490 882 1490 717 c 256,15,16
 1490 552 1490 552 1435 415 c 128,-1,17
 1380 278 1380 278 1284 180 c 128,-1,18
 1188 82 1188 82 1057 28 c 128,-1,19
 926 -26 926 -26 774 -26 c 0,0,1
774 119 m 256,20,21
 891 119 891 119 990.5 162 c 128,-1,22
 1090 205 1090 205 1163.5 283.5 c 128,-1,23
 1237 362 1237 362 1278.5 471.5 c 128,-1,24
 1320 581 1320 581 1320 714 c 0,25,26
 1320 849 1320 849 1278 959.5 c 128,-1,27
 1236 1070 1236 1070 1162.5 1148.5 c 128,-1,28
 1089 1227 1089 1227 989.5 1270.5 c 128,-1,29
 890 1314 890 1314 774 1314 c 0,30,31
 657 1314 657 1314 556 1270.5 c 128,-1,32
 455 1227 455 1227 380.5 1148.5 c 128,-1,33
 306 1070 306 1070 264 959.5 c 128,-1,34
 222 849 222 849 222 714 c 0,35,36
 222 581 222 581 264 471.5 c 128,-1,37
 306 362 306 362 380.5 283.5 c 128,-1,38
 455 205 455 205 556 162 c 128,-1,39
 657 119 657 119 774 119 c 256,20,21
EndSplineSet
Validated: 1
Substitution2: "Single Substitution lookup 5-1" u11124.half
EndChar

